<svg width="42" height="42" viewBox="0 0 42 42" fill="none" xmlns="http://www.w3.org/2000/svg">
<rect x="1" y="1" width="40" height="40" rx="20" stroke="#F4F4F6"/>
<mask id="mask0_607_9841" style="mask-type:luminance" maskUnits="userSpaceOnUse" x="1" y="1" width="40" height="40">
<rect x="1" y="1" width="40" height="40" rx="20" fill="white"/>
</mask>
<g mask="url(#mask0_607_9841)">
<path fill-rule="evenodd" clip-rule="evenodd" d="M18.1716 23.8284C16.6615 22.3184 16.6112 19.9014 18.0206 18.3309L18.1716 18.1716L22.291 14.2929C22.6815 13.9024 23.3147 13.9024 23.7052 14.2929C24.0657 14.6534 24.0934 15.2206 23.7884 15.6129L23.7052 15.7071L19.5858 19.5858C18.8458 20.3257 18.8069 21.5012 19.469 22.287L19.5858 22.4142L23.7052 26.2929C24.0958 26.6834 24.0958 27.3166 23.7052 27.7071C23.3447 28.0676 22.7775 28.0953 22.3852 27.7903L22.291 27.7071L18.1716 23.8284Z" fill="#121826"/>
</g>
</svg>
