<svg width="18" height="18" viewBox="0 0 18 18" fill="none" xmlns="http://www.w3.org/2000/svg">
<circle cx="9" cy="9" r="9" fill="#FFE3DE"/>
<g clip-path="url(#clip0_607_10044)">
<path d="M12.125 5.66659H10.875V5.04159C10.875 4.98633 10.8531 4.93334 10.814 4.89427C10.775 4.8552 10.722 4.83325 10.6667 4.83325C10.6115 4.83325 10.5585 4.8552 10.5194 4.89427C10.4803 4.93334 10.4584 4.98633 10.4584 5.04159V5.66659H7.54171V5.04159C7.54171 4.98633 7.51976 4.93334 7.48069 4.89427C7.44162 4.8552 7.38863 4.83325 7.33337 4.83325C7.27812 4.83325 7.22513 4.8552 7.18606 4.89427C7.14699 4.93334 7.12504 4.98633 7.12504 5.04159V5.66659H5.87504C5.59888 5.66692 5.33412 5.77677 5.13884 5.97205C4.94356 6.16733 4.8337 6.43209 4.83337 6.70825V12.1249C4.8337 12.4011 4.94356 12.6658 5.13884 12.8611C5.33412 13.0564 5.59888 13.1663 5.87504 13.1666H12.125C12.4012 13.1664 12.6661 13.0565 12.8614 12.8612C13.0567 12.6659 13.1665 12.4011 13.1667 12.1249V6.70825C13.1665 6.43205 13.0567 6.16723 12.8614 5.97193C12.6661 5.77662 12.4012 5.66681 12.125 5.66659V5.66659ZM12.75 12.1249C12.75 12.4699 12.47 12.7499 12.125 12.7499H5.87504C5.52921 12.7499 5.25004 12.4699 5.25004 12.1249V8.58325H12.75V12.1249ZM12.75 8.16659H5.25004V6.70825C5.25004 6.36325 5.52921 6.08325 5.87504 6.08325H7.12504V6.70825C7.12504 6.76351 7.14699 6.8165 7.18606 6.85557C7.22513 6.89464 7.27812 6.91659 7.33337 6.91659C7.38863 6.91659 7.44162 6.89464 7.48069 6.85557C7.51976 6.8165 7.54171 6.76351 7.54171 6.70825V6.08325H10.4584V6.70825C10.4584 6.76351 10.4803 6.8165 10.5194 6.85557C10.5585 6.89464 10.6115 6.91659 10.6667 6.91659C10.722 6.91659 10.775 6.89464 10.814 6.85557C10.8531 6.8165 10.875 6.76351 10.875 6.70825V6.08325H12.125C12.47 6.08325 12.75 6.36325 12.75 6.70825V8.16659Z" fill="#FF7561"/>
</g>
<defs>
<clipPath id="clip0_607_10044">
<rect width="10" height="10" fill="white" transform="translate(4 4)"/>
</clipPath>
</defs>
</svg>
