<svg width="28" height="28" viewBox="0 0 28 28" fill="none" xmlns="http://www.w3.org/2000/svg">
<path d="M13.75 27.5C21.3439 27.5 27.5 21.3439 27.5 13.75C27.5 6.15608 21.3439 0 13.75 0C6.15608 0 0 6.15608 0 13.75C0 21.3439 6.15608 27.5 13.75 27.5Z" fill="#12B76A"/>
<path d="M11.7975 18.6725C11.5225 18.6725 11.2612 18.5625 11.0687 18.37L7.17748 14.4787C6.77873 14.08 6.77873 13.42 7.17748 13.0212C7.57623 12.6225 8.23623 12.6225 8.63498 13.0212L11.7975 16.1837L18.865 9.1162C19.2637 8.71745 19.9237 8.71745 20.3225 9.1162C20.7212 9.51495 20.7212 10.175 20.3225 10.5737L12.5262 18.37C12.3337 18.5625 12.0725 18.6725 11.7975 18.6725Z" fill="white"/>
</svg>
