<svg width="64" height="64" viewBox="0 0 64 64" fill="none" xmlns="http://www.w3.org/2000/svg">
<circle cx="32" cy="32" r="22.25" stroke="#D6FFAE" stroke-width="1.5"/>
<mask id="path-2-inside-1_665_97" fill="white">
<path d="M18.9731 13.0449C21.4624 11.3341 24.2642 10.1305 27.2186 9.50257C30.173 8.87466 33.2222 8.83482 36.192 9.38532C39.1618 9.93582 41.9941 11.0659 44.5272 12.711C47.0603 14.3561 49.2445 16.484 50.9552 18.9732C52.666 21.4624 53.8696 24.2643 54.4975 27.2187C55.1254 30.1731 55.1653 33.2222 54.6148 36.1921C54.0643 39.1619 52.9342 41.9942 51.2891 44.5273C49.644 47.0603 47.5161 49.2446 45.0269 50.9553L43.8798 49.2862C46.1499 47.7261 48.0904 45.7342 49.5906 43.4242C51.0909 41.1142 52.1214 38.5312 52.6234 35.8229C53.1255 33.1146 53.0891 30.334 52.5165 27.6397C51.9439 24.9454 50.8462 22.3903 49.2861 20.1203C47.7261 17.8502 45.7342 15.9097 43.4241 14.4095C41.1141 12.9092 38.5312 11.8787 35.8229 11.3767C33.1146 10.8746 30.3339 10.911 27.6396 11.4836C24.9454 12.0562 22.3903 13.1539 20.1202 14.7139L18.9731 13.0449Z"/>
</mask>
<path d="M18.9731 13.0449C21.4624 11.3341 24.2642 10.1305 27.2186 9.50257C30.173 8.87466 33.2222 8.83482 36.192 9.38532C39.1618 9.93582 41.9941 11.0659 44.5272 12.711C47.0603 14.3561 49.2445 16.484 50.9552 18.9732C52.666 21.4624 53.8696 24.2643 54.4975 27.2187C55.1254 30.1731 55.1653 33.2222 54.6148 36.1921C54.0643 39.1619 52.9342 41.9942 51.2891 44.5273C49.644 47.0603 47.5161 49.2446 45.0269 50.9553L43.8798 49.2862C46.1499 47.7261 48.0904 45.7342 49.5906 43.4242C51.0909 41.1142 52.1214 38.5312 52.6234 35.8229C53.1255 33.1146 53.0891 30.334 52.5165 27.6397C51.9439 24.9454 50.8462 22.3903 49.2861 20.1203C47.7261 17.8502 45.7342 15.9097 43.4241 14.4095C41.1141 12.9092 38.5312 11.8787 35.8229 11.3767C33.1146 10.8746 30.3339 10.911 27.6396 11.4836C24.9454 12.0562 22.3903 13.1539 20.1202 14.7139L18.9731 13.0449Z" stroke="#59B300" stroke-width="10" mask="url(#path-2-inside-1_665_97)"/>
<path d="M23.2096 31.449H21.7991V33.893H19.4331L22.7416 27.913H21.1426L17.7366 34.1465V35.232H21.7991V37H23.2096V35.232H24.6006V33.893H23.2096V31.449ZM29.2963 27.744C27.1773 27.744 25.4613 29.5055 25.4613 32.45C25.4613 35.388 27.1773 37.156 29.2963 37.156C31.4088 37.156 33.1378 35.388 33.1378 32.45C33.1378 29.5055 31.4088 27.744 29.2963 27.744ZM29.2963 29.096C30.6093 29.096 31.6623 30.253 31.6623 32.45C31.6623 34.647 30.6093 35.804 29.2963 35.804C27.9963 35.804 26.9368 34.647 26.9368 32.45C26.9368 30.253 27.9963 29.096 29.2963 29.096ZM36.7902 27.7375C35.3537 27.7375 34.2812 28.797 34.2812 30.1945C34.2812 31.605 35.3537 32.658 36.7902 32.658C38.2397 32.658 39.3187 31.605 39.3187 30.1945C39.3187 28.797 38.2397 27.7375 36.7902 27.7375ZM36.7902 28.94C37.5117 28.94 38.0382 29.4535 38.0382 30.1945C38.0382 30.942 37.5117 31.4555 36.7902 31.4555C36.0882 31.4555 35.5617 30.942 35.5617 30.1945C35.5617 29.4535 36.0882 28.94 36.7902 28.94ZM43.7127 27.9H42.2892L36.5497 37H37.9732L43.7127 27.9ZM43.4592 32.242C42.0227 32.242 40.9502 33.3015 40.9502 34.699C40.9502 36.1095 42.0227 37.1625 43.4592 37.1625C44.9087 37.1625 45.9877 36.1095 45.9877 34.699C45.9877 33.3015 44.9087 32.242 43.4592 32.242ZM43.4592 33.4445C44.1807 33.4445 44.7072 33.958 44.7072 34.699C44.7072 35.4465 44.1807 35.96 43.4592 35.96C42.7572 35.96 42.2307 35.4465 42.2307 34.699C42.2307 33.958 42.7572 33.4445 43.4592 33.4445Z" fill="#59B200"/>
</svg>
