<svg width="32" height="32" viewBox="0 0 32 32" fill="none" xmlns="http://www.w3.org/2000/svg">
<path d="M24.4013 4.70507C24.2844 4.70537 24.1695 4.67429 24.0688 4.61507C21.295 3.13007 18.8969 2.50007 16.0219 2.50007C13.1613 2.50007 10.445 3.20507 7.97437 4.61507C7.625 4.81257 7.19437 4.67507 6.99187 4.31257C6.90149 4.13761 6.8811 3.9348 6.93485 3.74535C6.98859 3.55589 7.11245 3.39401 7.28125 3.29257C9.94586 1.78131 12.9585 0.991138 16.0219 1.00007C19.0988 1.00007 21.7862 1.70507 24.7337 3.28007C24.9057 3.37463 25.0338 3.53282 25.0904 3.7207C25.1471 3.90859 25.1279 4.1112 25.0369 4.28507C24.9822 4.40852 24.8932 4.51369 24.7806 4.58813C24.6679 4.66257 24.5363 4.70315 24.4013 4.70507ZM3.72687 12.5801C3.57676 12.579 3.43059 12.5319 3.30812 12.4451C3.14879 12.3267 3.04163 12.151 3.00921 11.9552C2.9768 11.7593 3.02168 11.5585 3.13437 11.3951C4.565 9.29508 6.38437 7.64507 8.5525 6.49007C13.0887 4.06257 18.8969 4.04507 23.4475 6.47507C25.615 7.63007 27.435 9.26508 28.8656 11.3501C28.9779 11.5137 29.0225 11.7143 28.9901 11.91C28.9577 12.1058 28.8508 12.2814 28.6919 12.4001C28.6148 12.4577 28.5266 12.4989 28.433 12.5211C28.3393 12.5433 28.242 12.5461 28.1472 12.5292C28.0525 12.5124 27.9621 12.4762 27.8819 12.423C27.8016 12.3699 27.7331 12.3008 27.6806 12.2201C26.3806 10.3301 24.7337 8.84507 22.7831 7.81007C18.6369 5.60507 13.3344 5.60507 9.2025 7.82507C7.2375 8.87507 5.59062 10.3751 4.29062 12.2626C4.23457 12.3619 4.1524 12.444 4.05303 12.5C3.95366 12.5559 3.84087 12.5836 3.72687 12.5801ZM12.7563 30.6876C12.6608 30.6885 12.5662 30.6689 12.479 30.6301C12.3917 30.5912 12.3139 30.5341 12.2506 30.4626C10.9937 29.1551 10.3125 28.3126 9.34687 26.5001C8.34687 24.6551 7.83 22.4051 7.83 19.9901C7.83 15.5351 11.4994 11.9051 16.0075 11.9051C20.5156 11.9051 24.1875 15.5351 24.1875 19.9901C24.1903 20.0867 24.1738 20.1829 24.1388 20.273C24.1037 20.3631 24.051 20.4453 23.9837 20.5146C23.9163 20.584 23.8357 20.6391 23.7467 20.6768C23.6577 20.7144 23.562 20.7338 23.4653 20.7338C23.3686 20.7338 23.273 20.7144 23.1839 20.6768C23.0949 20.6391 23.0143 20.584 22.947 20.5146C22.8796 20.4453 22.8269 20.3631 22.7919 20.273C22.7569 20.1829 22.7403 20.0867 22.7431 19.9901C22.7431 16.3601 19.7231 13.4051 16.0106 13.4051C12.2981 13.4051 9.275 16.3601 9.275 19.9901C9.275 22.1501 9.73687 24.1451 10.6181 25.7651C11.5431 27.4901 12.1806 28.2251 13.2913 29.3951C13.423 29.5407 13.4959 29.73 13.4959 29.9263C13.4959 30.1227 13.423 30.312 13.2913 30.4576C13.1494 30.6007 12.9576 30.6831 12.7563 30.6876ZM23.1156 27.9126C21.3962 27.9126 19.8794 27.4626 18.6369 26.5776C17.5783 25.8356 16.7135 24.8501 16.1153 23.7042C15.5171 22.5582 15.2029 21.2853 15.1994 19.9926C15.1953 19.8952 15.211 19.7979 15.2455 19.7068C15.28 19.6156 15.3325 19.5323 15.4 19.4619C15.4675 19.3916 15.5485 19.3356 15.6382 19.2973C15.7279 19.2591 15.8244 19.2394 15.9219 19.2394C16.0194 19.2394 16.1159 19.2591 16.2055 19.2973C16.2952 19.3356 16.3762 19.3916 16.4437 19.4619C16.5112 19.5323 16.5638 19.6156 16.5983 19.7068C16.6327 19.7979 16.6484 19.8952 16.6444 19.9926C16.6468 21.0426 16.9029 22.0765 17.3908 23.0062C17.8788 23.936 18.5841 24.7341 19.4469 25.3326C20.4725 26.0526 21.6719 26.3951 23.1169 26.3951C23.6201 26.3861 24.1218 26.336 24.6169 26.2451C25.0069 26.1701 25.3825 26.4401 25.4544 26.8601C25.491 27.0539 25.4492 27.2543 25.3383 27.4174C25.2273 27.5805 25.0562 27.693 24.8625 27.7301C24.287 27.8438 23.7022 27.904 23.1156 27.9101V27.9126ZM20.2113 31.0001C20.1478 30.9974 20.0849 30.9874 20.0238 30.9701C17.7263 30.3101 16.2238 29.4251 14.6488 27.8201C12.6256 25.7351 11.5138 22.9601 11.5138 19.9901C11.5138 17.5601 13.5075 15.5801 15.9631 15.5801C18.4188 15.5801 20.4131 17.5601 20.4131 19.9901C20.4131 21.5951 21.7569 22.9001 23.4181 22.9001C25.0794 22.9001 26.4231 21.5951 26.4231 19.9901C26.4231 14.3351 21.7275 9.74508 15.9487 9.74508C11.8456 9.74508 8.08937 12.1151 6.39937 15.7901C5.83687 17.0051 5.54687 18.4301 5.54687 19.9901C5.54687 21.1601 5.6475 23.0051 6.51437 25.4051C6.65937 25.7951 6.47125 26.2301 6.09562 26.3651C6.00636 26.3991 5.91114 26.4147 5.81569 26.4109C5.72024 26.4072 5.62653 26.3842 5.54019 26.3433C5.45385 26.3025 5.37666 26.2446 5.31326 26.1731C5.24986 26.1017 5.20155 26.0182 5.17125 25.9276C4.47417 24.0256 4.11706 22.0158 4.11625 19.9901C4.11625 18.1901 4.44875 16.5526 5.09875 15.1301C7.02062 10.9426 11.2825 8.23007 15.9487 8.23007C22.5225 8.23007 27.8681 13.4951 27.8681 19.9751C27.8681 22.4051 25.8744 24.3851 23.4181 24.3851C20.9619 24.3851 18.9681 22.4051 18.9681 19.9751C18.9687 18.3701 17.625 17.0626 15.9637 17.0626C14.3025 17.0626 12.9587 18.3676 12.9587 19.9726C12.9587 22.5351 13.9125 24.9376 15.6606 26.7376C17.0356 28.1476 18.3481 28.9251 20.385 29.5126C20.775 29.6176 20.9919 30.0376 20.8906 30.4276C20.8591 30.5859 20.7747 30.7288 20.6512 30.8328C20.5278 30.9368 20.3726 30.9958 20.2113 31.0001Z" fill="#217AC0"/>
</svg>
