<svg width="34" height="34" viewBox="0 0 34 34" fill="none" xmlns="http://www.w3.org/2000/svg">
<circle cx="17" cy="17" r="17" fill="#ECF1FF"/>
<path d="M25.4 22.33C25.12 23.08 24.53 23.65 23.76 23.91C22.68 24.27 21.57 24.54 20.45 24.73C20.34 24.75 20.23 24.7701 20.12 24.7801C19.94 24.8101 19.76 24.83 19.58 24.85C19.36 24.8801 19.13 24.9 18.9 24.92C18.27 24.97 17.65 25 17.02 25C16.38 25 15.74 24.97 15.11 24.91C14.84 24.89 14.58 24.8601 14.32 24.82C14.17 24.8 14.02 24.7801 13.88 24.76C13.77 24.74 13.66 24.73 13.55 24.71C12.44 24.53 11.34 24.26 10.27 23.9C9.47002 23.63 8.86002 23.06 8.59002 22.33C8.32002 21.61 8.42002 20.77 8.85002 20.05L9.98002 18.17C10.22 17.76 10.44 16.97 10.44 16.49V14.63C10.44 11 13.39 8.05005 17.02 8.05005C20.64 8.05005 23.59 11 23.59 14.63V16.49C23.59 16.97 23.81 17.76 24.06 18.17L25.19 20.05C25.6 20.75 25.68 21.57 25.4 22.33Z" fill="#0184D6"/>
<path d="M17 16.7599C16.58 16.7599 16.24 16.4199 16.24 15.9999V12.8999C16.24 12.4799 16.58 12.1399 17 12.1399C17.42 12.1399 17.76 12.4799 17.76 12.8999V15.9999C17.75 16.4199 17.41 16.7599 17 16.7599Z" fill="white"/>
<path d="M19.83 26.01C19.41 27.17 18.3 28 17 28C16.21 28 15.43 27.68 14.88 27.11C14.56 26.81 14.32 26.41 14.18 26C14.31 26.02 14.44 26.03 14.58 26.05C14.81 26.08 15.05 26.11 15.29 26.13C15.86 26.18 16.44 26.21 17.02 26.21C17.59 26.21 18.16 26.18 18.72 26.13C18.93 26.11 19.14 26.1 19.34 26.07C19.5 26.05 19.66 26.03 19.83 26.01Z" fill="#0184D6"/>
<path d="M24.3333 13.6667C26.1743 13.6667 27.6667 12.1743 27.6667 10.3333C27.6667 8.49238 26.1743 7 24.3333 7C22.4924 7 21 8.49238 21 10.3333C21 12.1743 22.4924 13.6667 24.3333 13.6667Z" fill="#FF0000"/>
</svg>
