<svg xmlns:dc="http://purl.org/dc/elements/1.1/" xmlns:cc="http://creativecommons.org/ns#" xmlns:rdf="http://www.w3.org/1999/02/22-rdf-syntax-ns#" xmlns:svg="http://www.w3.org/2000/svg" xmlns="http://www.w3.org/2000/svg" xmlns:sodipodi="http://sodipodi.sourceforge.net/DTD/sodipodi-0.dtd" xmlns:inkscape="http://www.inkscape.org/namespaces/inkscape" viewBox="0 0 529.16666 661.4583500000001" version="1.1" x="0px" y="0px"><g style="" display="inline"><path style="color:#000000;font-style:normal;font-variant:normal;font-weight:normal;font-stretch:normal;font-size:medium;line-height:normal;font-family:sans-serif;font-variant-ligatures:normal;font-variant-position:normal;font-variant-caps:normal;font-variant-numeric:normal;font-variant-alternates:normal;font-variant-east-asian:normal;font-feature-settings:normal;font-variation-settings:normal;text-indent:0;text-align:start;text-decoration:none;text-decoration-line:none;text-decoration-style:solid;text-decoration-color:#000000;letter-spacing:normal;word-spacing:normal;text-transform:none;writing-mode:lr-tb;direction:ltr;text-orientation:mixed;dominant-baseline:auto;baseline-shift:baseline;text-anchor:start;white-space:normal;shape-padding:0;shape-margin:0;inline-size:0;clip-rule:nonzero;display:inline;overflow:visible;visibility:visible;isolation:auto;mix-blend-mode:normal;color-interpolation:sRGB;color-interpolation-filters:linearRGB;solid-color:#000000;solid-opacity:1;vector-effect:none;fill:#000000;fill-opacity:1;fill-rule:nonzero;stroke:none;stroke-linecap:round;stroke-linejoin:round;stroke-miterlimit:4;stroke-dasharray:none;stroke-dashoffset:0;stroke-opacity:1;color-rendering:auto;image-rendering:auto;shape-rendering:auto;text-rendering:auto;enable-background:accumulate;stop-color:#000000;stop-opacity:1;opacity:1" d="M 265.33008 314.15234 A 2.6458349 2.6458349 0 0 0 262.85156 315.85742 A 2.6458349 2.6458349 0 0 0 264.38281 319.27148 C 280.46197 325.39855 297.62064 330.58105 316.90234 333.77148 C 319.31286 334.17021 321.75506 334.5384 324.23438 334.87305 A 2.6458349 2.6458349 0 0 0 327.21094 332.60547 A 2.6458349 2.6458349 0 0 0 324.94336 329.62891 C 322.51667 329.30136 320.12511 328.94106 317.76562 328.55078 C 298.89533 325.42842 282.10442 320.3609 266.26758 314.32617 A 2.6458349 2.6458349 0 0 0 265.33008 314.15234 z "/><path style="color:#000000;font-style:normal;font-variant:normal;font-weight:normal;font-stretch:normal;font-size:medium;line-height:normal;font-family:sans-serif;font-variant-ligatures:normal;font-variant-position:normal;font-variant-caps:normal;font-variant-numeric:normal;font-variant-alternates:normal;font-variant-east-asian:normal;font-feature-settings:normal;font-variation-settings:normal;text-indent:0;text-align:start;text-decoration:none;text-decoration-line:none;text-decoration-style:solid;text-decoration-color:#000000;letter-spacing:normal;word-spacing:normal;text-transform:none;writing-mode:lr-tb;direction:ltr;text-orientation:mixed;dominant-baseline:auto;baseline-shift:baseline;text-anchor:start;white-space:normal;shape-padding:0;shape-margin:0;inline-size:0;clip-rule:nonzero;display:inline;overflow:visible;visibility:visible;isolation:auto;mix-blend-mode:normal;color-interpolation:sRGB;color-interpolation-filters:linearRGB;solid-color:#000000;solid-opacity:1;vector-effect:none;fill:#000000;fill-opacity:1;fill-rule:nonzero;stroke-width:5.29166;stroke-linecap:square;stroke-linejoin:miter;stroke-miterlimit:4;stroke-dasharray:none;stroke-dashoffset:0;stroke-opacity:1;paint-order:markers fill stroke;color-rendering:auto;image-rendering:auto;shape-rendering:auto;text-rendering:auto;enable-background:accumulate;stop-color:#000000;stop-opacity:1;stroke:none;opacity:1" d="m 235.69698,158.87302 c 0,2.58315 -2.19876,4.67721 -4.91108,4.67721 -2.71231,0 -4.91107,-2.09406 -4.91107,-4.67721 0,-2.58316 2.19876,-4.67722 4.91107,-4.67722 2.71232,0 4.91108,2.09406 4.91108,4.67722 z"/><path style="color:#000000;font-style:normal;font-variant:normal;font-weight:normal;font-stretch:normal;font-size:medium;line-height:normal;font-family:sans-serif;font-variant-ligatures:normal;font-variant-position:normal;font-variant-caps:normal;font-variant-numeric:normal;font-variant-alternates:normal;font-variant-east-asian:normal;font-feature-settings:normal;font-variation-settings:normal;text-indent:0;text-align:start;text-decoration:none;text-decoration-line:none;text-decoration-style:solid;text-decoration-color:#000000;letter-spacing:normal;word-spacing:normal;text-transform:none;writing-mode:lr-tb;direction:ltr;text-orientation:mixed;dominant-baseline:auto;baseline-shift:baseline;text-anchor:start;white-space:normal;shape-padding:0;shape-margin:0;inline-size:0;clip-rule:nonzero;display:inline;overflow:visible;visibility:visible;isolation:auto;mix-blend-mode:normal;color-interpolation:sRGB;color-interpolation-filters:linearRGB;solid-color:#000000;solid-opacity:1;vector-effect:none;fill:#000000;fill-opacity:1;fill-rule:nonzero;stroke-width:5.29166;stroke-linecap:square;stroke-linejoin:miter;stroke-miterlimit:4;stroke-dasharray:none;stroke-dashoffset:0;stroke-opacity:1;paint-order:markers fill stroke;color-rendering:auto;image-rendering:auto;shape-rendering:auto;text-rendering:auto;enable-background:accumulate;stop-color:#000000;stop-opacity:1;stroke:none;opacity:1" d="m 331.60715,158.87692 c 0,2.58316 -2.19876,4.67722 -4.91107,4.67722 -2.71232,0 -4.91108,-2.09406 -4.91108,-4.67722 0,-2.58315 2.19876,-4.67721 4.91108,-4.67721 2.71231,0 4.91107,2.09406 4.91107,4.67721 z"/><path style="color:#000000;font-style:normal;font-variant:normal;font-weight:normal;font-stretch:normal;font-size:medium;line-height:normal;font-family:sans-serif;font-variant-ligatures:normal;font-variant-position:normal;font-variant-caps:normal;font-variant-numeric:normal;font-variant-alternates:normal;font-variant-east-asian:normal;font-feature-settings:normal;font-variation-settings:normal;text-indent:0;text-align:start;text-decoration:none;text-decoration-line:none;text-decoration-style:solid;text-decoration-color:#000000;letter-spacing:normal;word-spacing:normal;text-transform:none;writing-mode:lr-tb;direction:ltr;text-orientation:mixed;dominant-baseline:auto;baseline-shift:baseline;text-anchor:start;white-space:normal;shape-padding:0;shape-margin:0;inline-size:0;clip-rule:nonzero;display:inline;overflow:visible;visibility:visible;isolation:auto;mix-blend-mode:normal;color-interpolation:sRGB;color-interpolation-filters:linearRGB;solid-color:#000000;solid-opacity:1;vector-effect:none;fill:#000000;fill-opacity:1;fill-rule:nonzero;stroke:none;stroke-linecap:square;stroke-linejoin:miter;stroke-miterlimit:4;stroke-dasharray:none;stroke-dashoffset:0;stroke-opacity:1;paint-order:markers fill stroke;color-rendering:auto;image-rendering:auto;shape-rendering:auto;text-rendering:auto;enable-background:accumulate;stop-color:#000000;stop-opacity:1;opacity:1" d="M 257.55469 47.623047 C 190.12908 47.623047 135.40039 102.35174 135.40039 169.77734 C 135.40039 237.20295 190.12908 291.93359 257.55469 291.93359 C 324.9803 291.93359 379.71094 237.20295 379.71094 169.77734 C 379.71094 102.35174 324.9803 47.623047 257.55469 47.623047 z M 257.55469 54.236328 C 321.40551 54.236328 373.0957 105.92652 373.0957 169.77734 C 373.0957 233.62817 321.40551 285.32031 257.55469 285.32031 C 193.70386 285.32031 142.01367 233.62817 142.01367 169.77734 C 142.01367 105.92652 193.70386 54.236328 257.55469 54.236328 z "/><path style="color:#000000;font-style:normal;font-variant:normal;font-weight:normal;font-stretch:normal;font-size:medium;line-height:normal;font-family:sans-serif;font-variant-ligatures:normal;font-variant-position:normal;font-variant-caps:normal;font-variant-numeric:normal;font-variant-alternates:normal;font-variant-east-asian:normal;font-feature-settings:normal;font-variation-settings:normal;text-indent:0;text-align:start;text-decoration:none;text-decoration-line:none;text-decoration-style:solid;text-decoration-color:#000000;letter-spacing:normal;word-spacing:normal;text-transform:none;writing-mode:lr-tb;direction:ltr;text-orientation:mixed;dominant-baseline:auto;baseline-shift:baseline;text-anchor:start;white-space:normal;shape-padding:0;shape-margin:0;inline-size:0;clip-rule:nonzero;display:inline;overflow:visible;visibility:visible;isolation:auto;mix-blend-mode:normal;color-interpolation:sRGB;color-interpolation-filters:linearRGB;solid-color:#000000;solid-opacity:1;vector-effect:none;fill:#000000;fill-opacity:1;fill-rule:nonzero;stroke:none;stroke-linecap:round;stroke-linejoin:round;stroke-miterlimit:4;stroke-dasharray:none;stroke-dashoffset:0;stroke-opacity:1;color-rendering:auto;image-rendering:auto;shape-rendering:auto;text-rendering:auto;enable-background:accumulate;stop-color:#000000;stop-opacity:1;opacity:1" d="M 242.42188 457.7207 C 237.47613 457.12574 232.77795 460.21949 228.49414 465.875 C 224.21033 471.53051 219.96248 480.0409 215.50781 491.86914 A 2.6458349 2.6458349 0 0 0 217.05078 495.2793 A 2.6458349 2.6458349 0 0 0 220.45898 493.73438 C 224.81482 482.16857 228.96854 474.01363 232.71289 469.07031 C 236.45724 464.127 239.41418 462.68891 241.78906 462.97461 C 244.16394 463.2603 247.18812 465.62142 250.33984 470.82617 C 253.49157 476.03092 256.64904 483.77316 259.67773 493.60156 A 2.6458349 2.6458349 0 0 0 262.98633 495.35156 A 2.6458349 2.6458349 0 0 0 264.73438 492.04492 C 261.63307 481.98092 258.40142 473.92559 254.86523 468.08594 C 251.32905 462.24629 247.36762 458.31567 242.42188 457.7207 z "/><path style="color:#000000;font-style:normal;font-variant:normal;font-weight:normal;font-stretch:normal;font-size:medium;line-height:normal;font-family:sans-serif;font-variant-ligatures:normal;font-variant-position:normal;font-variant-caps:normal;font-variant-numeric:normal;font-variant-alternates:normal;font-variant-east-asian:normal;font-feature-settings:normal;font-variation-settings:normal;text-indent:0;text-align:start;text-decoration:none;text-decoration-line:none;text-decoration-style:solid;text-decoration-color:#000000;letter-spacing:normal;word-spacing:normal;text-transform:none;writing-mode:lr-tb;direction:ltr;text-orientation:mixed;dominant-baseline:auto;baseline-shift:baseline;text-anchor:start;white-space:normal;shape-padding:0;shape-margin:0;inline-size:0;clip-rule:nonzero;display:inline;overflow:visible;visibility:visible;isolation:auto;mix-blend-mode:normal;color-interpolation:sRGB;color-interpolation-filters:linearRGB;solid-color:#000000;solid-opacity:1;vector-effect:none;fill:#000000;fill-opacity:1;fill-rule:nonzero;stroke:none;stroke-linecap:round;stroke-linejoin:round;stroke-miterlimit:4;stroke-dasharray:none;stroke-dashoffset:0;stroke-opacity:1;color-rendering:auto;image-rendering:auto;shape-rendering:auto;text-rendering:auto;enable-background:accumulate;stop-color:#000000;stop-opacity:1;opacity:1" d="M 247.58984 309.63477 A 2.6458349 2.6458349 0 0 0 244.97656 312.17383 L 239.47266 448.76367 A 2.6458349 2.6458349 0 0 0 242.00977 451.51367 A 2.6458349 2.6458349 0 0 0 244.75977 448.97656 L 250.26367 312.38672 A 2.6458349 2.6458349 0 0 0 247.72656 309.63672 A 2.6458349 2.6458349 0 0 0 247.58984 309.63477 z "/><path style="color:#000000;font-style:normal;font-variant:normal;font-weight:normal;font-stretch:normal;font-size:medium;line-height:normal;font-family:sans-serif;font-variant-ligatures:normal;font-variant-position:normal;font-variant-caps:normal;font-variant-numeric:normal;font-variant-alternates:normal;font-variant-east-asian:normal;font-feature-settings:normal;font-variation-settings:normal;text-indent:0;text-align:start;text-decoration:none;text-decoration-line:none;text-decoration-style:solid;text-decoration-color:#000000;letter-spacing:normal;word-spacing:normal;text-transform:none;writing-mode:lr-tb;direction:ltr;text-orientation:mixed;dominant-baseline:auto;baseline-shift:baseline;text-anchor:start;white-space:normal;shape-padding:0;shape-margin:0;inline-size:0;clip-rule:nonzero;display:inline;overflow:visible;visibility:visible;isolation:auto;mix-blend-mode:normal;color-interpolation:sRGB;color-interpolation-filters:linearRGB;solid-color:#000000;solid-opacity:1;vector-effect:none;fill:#000000;fill-opacity:1;fill-rule:nonzero;stroke:none;stroke-linecap:round;stroke-linejoin:round;stroke-miterlimit:4;stroke-dasharray:none;stroke-dashoffset:0;stroke-opacity:1;color-rendering:auto;image-rendering:auto;shape-rendering:auto;text-rendering:auto;enable-background:accumulate;stop-color:#000000;stop-opacity:1;opacity:1" d="M 261.92383 342.26758 A 2.6458349 2.6458349 0 0 0 259.44531 343.9707 A 2.6458349 2.6458349 0 0 0 260.97461 347.38672 C 277.05377 353.51379 294.21439 358.69628 313.49609 361.88672 A 2.6458349 2.6458349 0 0 0 316.53711 359.70898 A 2.6458349 2.6458349 0 0 0 314.35938 356.66602 C 295.48908 353.54365 278.69622 348.47614 262.85938 342.44141 A 2.6458349 2.6458349 0 0 0 261.92383 342.26758 z "/><path style="color:#000000;font-style:normal;font-variant:normal;font-weight:normal;font-stretch:normal;font-size:medium;line-height:normal;font-family:sans-serif;font-variant-ligatures:normal;font-variant-position:normal;font-variant-caps:normal;font-variant-numeric:normal;font-variant-alternates:normal;font-variant-east-asian:normal;font-feature-settings:normal;font-variation-settings:normal;text-indent:0;text-align:start;text-decoration:none;text-decoration-line:none;text-decoration-style:solid;text-decoration-color:#000000;letter-spacing:normal;word-spacing:normal;text-transform:none;writing-mode:lr-tb;direction:ltr;text-orientation:mixed;dominant-baseline:auto;baseline-shift:baseline;text-anchor:start;white-space:normal;shape-padding:0;shape-margin:0;inline-size:0;clip-rule:nonzero;display:inline;overflow:visible;visibility:visible;isolation:auto;mix-blend-mode:normal;color-interpolation:sRGB;color-interpolation-filters:linearRGB;solid-color:#000000;solid-opacity:1;vector-effect:none;fill:#000000;fill-opacity:1;fill-rule:nonzero;stroke:none;stroke-linecap:round;stroke-linejoin:round;stroke-miterlimit:4;stroke-dasharray:none;stroke-dashoffset:0;stroke-opacity:1;color-rendering:auto;image-rendering:auto;shape-rendering:auto;text-rendering:auto;enable-background:accumulate;stop-color:#000000;stop-opacity:1;opacity:1" d="M 395.43164 252.625 A 1.3230472 1.3230472 0 0 0 394.1582 253.76758 L 389.46094 287.99414 L 383.47461 282.28711 A 1.3230472 1.3230472 0 0 0 381.24023 283.17773 L 380.64844 294.68164 L 376.35156 290.36914 A 1.3230472 1.3230472 0 0 0 374.11523 291.54688 L 376.32031 303.25781 L 372.33398 301.55469 A 1.3230472 1.3230472 0 0 0 370.5918 303.2793 L 372.04492 306.76758 L 373.49805 310.25586 L 374.22266 312 A 1.322915 1.322915 0 0 0 375.95312 312.71289 A 1.322915 1.322915 0 0 0 376.66602 310.98438 L 375.93945 309.24023 L 374.48633 305.75195 L 374.2832 305.26562 L 377.55859 306.66406 A 1.3230472 1.3230472 0 0 0 379.37891 305.20312 L 377.50977 295.2793 L 380.88086 298.66211 A 1.3230472 1.3230472 0 0 0 383.13867 297.79688 L 383.73438 286.19141 L 389.50781 291.69336 A 1.3230472 1.3230472 0 0 0 391.73047 290.91602 L 395.93555 260.28125 L 402.53906 282.95898 A 1.3230472 1.3230472 0 0 0 404.67188 283.59375 L 420.3125 270.17969 L 412.02539 290.01758 A 1.3230472 1.3230472 0 0 0 413.43555 291.83594 L 436.96094 288.44336 L 409.69531 302.09961 A 1.3230472 1.3230472 0 0 0 410.1582 304.59766 L 418.32617 305.40234 L 406.56055 310.81055 A 1.3230472 1.3230472 0 0 0 406.66406 313.25781 L 411.25391 314.91211 L 399.75 316.43945 A 1.3230472 1.3230472 0 0 0 399.42773 318.97852 L 403.94336 320.80469 C 402.2065 320.95986 400.45611 321.10416 398.70117 321.23828 C 396.91645 321.37465 395.12712 321.5009 393.35156 321.625 C 393.12698 321.64019 392.90623 321.65723 392.68945 321.67188 A 1.322915 1.322915 0 0 0 391.45898 323.08008 A 1.322915 1.322915 0 0 0 392.86719 324.31055 C 393.09313 324.29528 393.31515 324.28036 393.5332 324.26562 A 1.3230472 1.3230472 0 0 0 393.53711 324.26562 C 395.31555 324.14132 397.10907 324.01203 398.90234 323.875 C 400.69667 323.73787 402.49024 323.59324 404.27148 323.43359 C 406.05273 323.27384 407.82075 323.10029 409.5625 322.9082 A 1.3230472 1.3230472 0 0 0 409.91406 320.36719 L 405.0625 318.4043 L 416.98242 316.82227 A 1.3230472 1.3230472 0 0 0 417.25781 314.26562 L 410.60352 311.86523 L 423.87109 305.76562 A 1.3230472 1.3230472 0 0 0 423.44727 303.24609 L 414.97656 302.41406 L 445.44922 287.15234 A 1.3230472 1.3230472 0 0 0 444.66797 284.66016 L 415.36523 288.88672 L 424.90234 266.05664 A 1.3230472 1.3230472 0 0 0 422.82031 264.54102 L 404.50586 280.25 L 396.74023 253.57812 A 1.3230472 1.3230472 0 0 0 395.43164 252.625 z "/><path style="color:#000000;font-style:normal;font-variant:normal;font-weight:normal;font-stretch:normal;font-size:medium;line-height:normal;font-family:sans-serif;font-variant-ligatures:normal;font-variant-position:normal;font-variant-caps:normal;font-variant-numeric:normal;font-variant-alternates:normal;font-variant-east-asian:normal;font-feature-settings:normal;font-variation-settings:normal;text-indent:0;text-align:start;text-decoration:none;text-decoration-line:none;text-decoration-style:solid;text-decoration-color:#000000;letter-spacing:normal;word-spacing:normal;text-transform:none;writing-mode:lr-tb;direction:ltr;text-orientation:mixed;dominant-baseline:auto;baseline-shift:baseline;text-anchor:start;white-space:normal;shape-padding:0;shape-margin:0;inline-size:0;clip-rule:nonzero;display:inline;overflow:visible;visibility:visible;isolation:auto;mix-blend-mode:normal;color-interpolation:sRGB;color-interpolation-filters:linearRGB;solid-color:#000000;solid-opacity:1;vector-effect:none;fill:#000000;fill-opacity:1;fill-rule:nonzero;stroke:none;stroke-linecap:round;stroke-linejoin:round;stroke-miterlimit:4;stroke-dasharray:none;stroke-dashoffset:0;stroke-opacity:1;color-rendering:auto;image-rendering:auto;shape-rendering:auto;text-rendering:auto;enable-background:accumulate;stop-color:#000000;stop-opacity:1;opacity:1" d="M 373.6582 309.9043 C 372.21237 309.96595 370.75836 310.15528 369.30664 310.46289 C 363.49974 311.69334 357.68883 314.74427 352.21094 318.96875 C 341.25515 327.41771 331.58121 340.59483 326.48633 354.24414 C 324.03095 360.82274 325.14716 367.55623 328.33008 373.35156 C 331.513 379.14689 336.71208 384.11282 342.67773 387.6582 C 348.64339 391.20358 355.39177 393.34316 361.80469 393.25391 C 368.2176 393.16465 374.37415 390.71497 378.47656 385.19336 C 387.41944 373.15777 395.10646 359.13092 397.78906 346.04883 C 399.13036 339.50778 399.21757 333.17141 397.43945 327.4707 C 395.66134 321.77 391.96313 316.75893 386.0918 313.08789 C 382.25203 310.68709 377.9957 309.71934 373.6582 309.9043 z M 373.82422 313.85742 C 377.44582 313.68644 380.84518 314.48791 383.98828 316.45312 C 389.13594 319.67169 392.13388 323.79034 393.65039 328.65234 C 395.1669 333.51435 395.14659 339.17469 393.90039 345.25195 C 391.40799 357.40648 383.99814 371.10786 375.29102 382.82617 C 371.96793 387.29886 367.2273 389.20892 361.75 389.28516 C 356.2727 389.36139 350.13725 387.47326 344.70703 384.24609 C 339.27681 381.01892 334.56815 376.46589 331.80859 371.44141 C 329.04904 366.41692 328.1885 361.03051 330.20312 355.63281 C 335.01125 342.75173 344.37406 330.02425 354.63477 322.11133 C 359.76512 318.15487 365.10711 315.4098 370.12891 314.3457 C 371.38435 314.07968 372.61702 313.91442 373.82422 313.85742 z "/><path style="color:#000000;font-style:normal;font-variant:normal;font-weight:normal;font-stretch:normal;font-size:medium;line-height:normal;font-family:sans-serif;font-variant-ligatures:normal;font-variant-position:normal;font-variant-caps:normal;font-variant-numeric:normal;font-variant-alternates:normal;font-variant-east-asian:normal;font-feature-settings:normal;font-variation-settings:normal;text-indent:0;text-align:start;text-decoration:none;text-decoration-line:none;text-decoration-style:solid;text-decoration-color:#000000;letter-spacing:normal;word-spacing:normal;text-transform:none;writing-mode:lr-tb;direction:ltr;text-orientation:mixed;dominant-baseline:auto;baseline-shift:baseline;text-anchor:start;white-space:normal;shape-padding:0;shape-margin:0;inline-size:0;clip-rule:nonzero;display:inline;overflow:visible;visibility:visible;isolation:auto;mix-blend-mode:normal;color-interpolation:sRGB;color-interpolation-filters:linearRGB;solid-color:#000000;solid-opacity:1;vector-effect:none;fill:#000000;fill-opacity:1;fill-rule:nonzero;stroke:none;stroke-linecap:round;stroke-linejoin:round;stroke-miterlimit:4;stroke-dasharray:none;stroke-dashoffset:0;stroke-opacity:1;color-rendering:auto;image-rendering:auto;shape-rendering:auto;text-rendering:auto;enable-background:accumulate;stop-color:#000000;stop-opacity:1;opacity:1" d="M 366.09961 317.37305 A 1.3230472 1.3230472 0 0 0 366.01562 317.37695 L 355.7832 318.00781 A 1.322915 1.322915 0 0 0 354.54492 319.41016 A 1.322915 1.322915 0 0 0 355.94727 320.64844 L 365.16992 320.08008 L 367.79688 327.82812 A 1.3230472 1.3230472 0 0 0 369.19727 328.71875 L 377.38867 327.79883 L 380.72656 336.51367 A 1.3230472 1.3230472 0 0 0 382.29297 337.32227 L 390.34766 335.24805 L 394.68945 343.70703 A 1.322915 1.322915 0 0 0 396.4707 344.28125 A 1.322915 1.322915 0 0 0 397.04297 342.5 L 392.21875 333.09961 A 1.3230472 1.3230472 0 0 0 390.71289 332.42383 L 382.77539 334.46484 L 379.49414 325.89648 A 1.3230472 1.3230472 0 0 0 378.11133 325.05664 L 369.96094 325.9707 L 367.34961 318.27148 A 1.3230472 1.3230472 0 0 0 366.09961 317.37305 z "/><path style="color:#000000;font-style:normal;font-variant:normal;font-weight:normal;font-stretch:normal;font-size:medium;line-height:normal;font-family:sans-serif;font-variant-ligatures:normal;font-variant-position:normal;font-variant-caps:normal;font-variant-numeric:normal;font-variant-alternates:normal;font-variant-east-asian:normal;font-feature-settings:normal;font-variation-settings:normal;text-indent:0;text-align:start;text-decoration:none;text-decoration-line:none;text-decoration-style:solid;text-decoration-color:#000000;letter-spacing:normal;word-spacing:normal;text-transform:none;writing-mode:lr-tb;direction:ltr;text-orientation:mixed;dominant-baseline:auto;baseline-shift:baseline;text-anchor:start;white-space:normal;shape-padding:0;shape-margin:0;inline-size:0;clip-rule:nonzero;display:inline;overflow:visible;visibility:visible;isolation:auto;mix-blend-mode:normal;color-interpolation:sRGB;color-interpolation-filters:linearRGB;solid-color:#000000;solid-opacity:1;vector-effect:none;fill:#000000;fill-opacity:1;fill-rule:nonzero;stroke:none;stroke-linecap:round;stroke-linejoin:round;stroke-miterlimit:4;stroke-dasharray:none;stroke-dashoffset:0;stroke-opacity:1;color-rendering:auto;image-rendering:auto;shape-rendering:auto;text-rendering:auto;enable-background:accumulate;stop-color:#000000;stop-opacity:1;opacity:1" d="M 353.17383 327.67773 A 1.3230472 1.3230472 0 0 0 352.90625 327.70508 L 343.37695 329.63477 A 1.322915 1.322915 0 0 0 342.34375 331.19336 A 1.322915 1.322915 0 0 0 343.90234 332.22852 L 352.10742 330.56445 L 353.33398 337.37109 A 1.3230472 1.3230472 0 0 0 354.90625 338.43164 L 362.15625 336.91797 L 364.31445 344.17773 A 1.3230472 1.3230472 0 0 0 365.73047 345.11523 L 373.84961 344.20312 L 376.33398 352.26172 A 1.3230472 1.3230472 0 0 0 378.04102 353.11914 L 385.13477 350.60352 L 389.43164 358.97461 A 1.322915 1.322915 0 0 0 391.21289 359.54688 A 1.322915 1.322915 0 0 0 391.78516 357.76562 L 386.95898 348.36719 A 1.3230472 1.3230472 0 0 0 385.33984 347.72461 L 378.45703 350.16406 L 376.05469 342.37695 A 1.3230472 1.3230472 0 0 0 374.64258 341.45312 L 366.53516 342.36133 L 364.34375 334.99805 A 1.3230472 1.3230472 0 0 0 362.80664 334.08008 L 355.69531 335.56445 L 354.4707 328.76562 A 1.3230472 1.3230472 0 0 0 353.17383 327.67773 z "/><path style="color:#000000;font-style:normal;font-variant:normal;font-weight:normal;font-stretch:normal;font-size:medium;line-height:normal;font-family:sans-serif;font-variant-ligatures:normal;font-variant-position:normal;font-variant-caps:normal;font-variant-numeric:normal;font-variant-alternates:normal;font-variant-east-asian:normal;font-feature-settings:normal;font-variation-settings:normal;text-indent:0;text-align:start;text-decoration:none;text-decoration-line:none;text-decoration-style:solid;text-decoration-color:#000000;letter-spacing:normal;word-spacing:normal;text-transform:none;writing-mode:lr-tb;direction:ltr;text-orientation:mixed;dominant-baseline:auto;baseline-shift:baseline;text-anchor:start;white-space:normal;shape-padding:0;shape-margin:0;inline-size:0;clip-rule:nonzero;display:inline;overflow:visible;visibility:visible;isolation:auto;mix-blend-mode:normal;color-interpolation:sRGB;color-interpolation-filters:linearRGB;solid-color:#000000;solid-opacity:1;vector-effect:none;fill:#000000;fill-opacity:1;fill-rule:nonzero;stroke:none;stroke-linecap:round;stroke-linejoin:round;stroke-miterlimit:4;stroke-dasharray:none;stroke-dashoffset:0;stroke-opacity:1;color-rendering:auto;image-rendering:auto;shape-rendering:auto;text-rendering:auto;enable-background:accumulate;stop-color:#000000;stop-opacity:1;opacity:1" d="M 343.49219 342.26758 A 1.3230472 1.3230472 0 0 0 343.31445 342.2793 L 333.55859 343.57617 A 1.322915 1.322915 0 0 0 332.42188 345.0625 A 1.322915 1.322915 0 0 0 333.90625 346.19922 L 342.58398 345.04492 L 345.42578 353.48047 A 1.3230472 1.3230472 0 0 0 346.94922 354.35352 L 354.20117 352.83984 L 356.35938 360.09961 A 1.3230472 1.3230472 0 0 0 357.77344 361.03711 L 365.89453 360.125 L 368.37891 368.18359 A 1.3230472 1.3230472 0 0 0 370.08594 369.04102 L 377.17969 366.52539 L 381.47656 374.89648 A 1.322915 1.322915 0 0 0 383.25586 375.46875 A 1.322915 1.322915 0 0 0 383.83008 373.6875 L 379.00391 364.28906 A 1.3230472 1.3230472 0 0 0 377.38477 363.64453 L 370.50195 366.08594 L 368.09961 358.29883 A 1.3230472 1.3230472 0 0 0 366.6875 357.37305 L 358.58008 358.2832 L 356.39062 350.91992 A 1.3230472 1.3230472 0 0 0 354.85156 350.00195 L 347.55859 351.52344 L 344.74219 343.16797 A 1.3230472 1.3230472 0 0 0 343.49219 342.26758 z "/><path style="color:#000000;font-style:normal;font-variant:normal;font-weight:normal;font-stretch:normal;font-size:medium;line-height:normal;font-family:sans-serif;font-variant-ligatures:normal;font-variant-position:normal;font-variant-caps:normal;font-variant-numeric:normal;font-variant-alternates:normal;font-variant-east-asian:normal;font-feature-settings:normal;font-variation-settings:normal;text-indent:0;text-align:start;text-decoration:none;text-decoration-line:none;text-decoration-style:solid;text-decoration-color:#000000;letter-spacing:normal;word-spacing:normal;text-transform:none;writing-mode:lr-tb;direction:ltr;text-orientation:mixed;dominant-baseline:auto;baseline-shift:baseline;text-anchor:start;white-space:normal;shape-padding:0;shape-margin:0;inline-size:0;clip-rule:nonzero;display:inline;overflow:visible;visibility:visible;isolation:auto;mix-blend-mode:normal;color-interpolation:sRGB;color-interpolation-filters:linearRGB;solid-color:#000000;solid-opacity:1;vector-effect:none;fill:#000000;fill-opacity:1;fill-rule:nonzero;stroke:none;stroke-linecap:round;stroke-linejoin:round;stroke-miterlimit:4;stroke-dasharray:none;stroke-dashoffset:0;stroke-opacity:1;color-rendering:auto;image-rendering:auto;shape-rendering:auto;text-rendering:auto;enable-background:accumulate;stop-color:#000000;stop-opacity:1;opacity:1" d="M 333.02734 356.42188 A 1.3230472 1.3230472 0 0 0 332.80273 356.43945 L 328.14844 357.23047 A 1.322915 1.322915 0 0 0 327.06641 358.75586 A 1.322915 1.322915 0 0 0 328.5918 359.83984 L 332.13281 359.23828 L 334.96289 367.63672 A 1.3230472 1.3230472 0 0 0 336.48633 368.50781 L 343.73633 366.99609 L 345.89648 374.25391 A 1.3230472 1.3230472 0 0 0 347.31055 375.19141 L 355.42969 374.2793 L 357.91602 382.33789 A 1.3230472 1.3230472 0 0 0 359.62305 383.19531 L 366.7168 380.67969 L 371.01367 389.05078 A 1.322915 1.322915 0 0 0 372.79297 389.62305 A 1.322915 1.322915 0 0 0 373.36719 387.8418 L 368.54102 378.44336 A 1.3230472 1.3230472 0 0 0 366.92188 377.80078 L 360.03906 380.24023 L 357.63672 372.45312 A 1.3230472 1.3230472 0 0 0 356.22461 371.5293 L 348.11523 372.4375 L 345.92578 365.07422 A 1.3230472 1.3230472 0 0 0 344.38672 364.15625 L 337.0957 365.67773 L 334.27734 357.32227 A 1.3230472 1.3230472 0 0 0 333.02734 356.42188 z "/></g><text x="0" y="544.16668" fill="#000000" font-size="5px" font-weight="bold" font-family="'Helvetica Neue', Helvetica, Arial-Unicode, Arial, Sans-serif">Created by Jevgenijs Kudinovs</text><text x="0" y="549.16668" fill="#000000" font-size="5px" font-weight="bold" font-family="'Helvetica Neue', Helvetica, Arial-Unicode, Arial, Sans-serif">from the Noun Project</text></svg>