<svg xmlns:dc="http://purl.org/dc/elements/1.1/" xmlns:cc="http://creativecommons.org/ns#" xmlns:rdf="http://www.w3.org/1999/02/22-rdf-syntax-ns#" xmlns:svg="http://www.w3.org/2000/svg" xmlns="http://www.w3.org/2000/svg" xmlns:sodipodi="http://sodipodi.sourceforge.net/DTD/sodipodi-0.dtd" xmlns:inkscape="http://www.inkscape.org/namespaces/inkscape" viewBox="0 0 529.16666 661.4583500000001" version="1.1" x="0px" y="0px"><g style="" display="inline"><path style="color:#000000;font-style:normal;font-variant:normal;font-weight:normal;font-stretch:normal;font-size:medium;line-height:normal;font-family:sans-serif;font-variant-ligatures:normal;font-variant-position:normal;font-variant-caps:normal;font-variant-numeric:normal;font-variant-alternates:normal;font-variant-east-asian:normal;font-feature-settings:normal;font-variation-settings:normal;text-indent:0;text-align:start;text-decoration:none;text-decoration-line:none;text-decoration-style:solid;text-decoration-color:#000000;letter-spacing:normal;word-spacing:normal;text-transform:none;writing-mode:lr-tb;direction:ltr;text-orientation:mixed;dominant-baseline:auto;baseline-shift:baseline;text-anchor:start;white-space:normal;shape-padding:0;shape-margin:0;inline-size:0;clip-rule:nonzero;display:inline;overflow:visible;visibility:visible;isolation:auto;mix-blend-mode:normal;color-interpolation:sRGB;color-interpolation-filters:linearRGB;solid-color:#000000;solid-opacity:1;vector-effect:none;fill:#000000;fill-opacity:1;fill-rule:nonzero;stroke:none;stroke-linecap:round;stroke-linejoin:round;stroke-miterlimit:4;stroke-dasharray:none;stroke-dashoffset:0;stroke-opacity:1;color-rendering:auto;image-rendering:auto;shape-rendering:auto;text-rendering:auto;enable-background:accumulate;stop-color:#000000;stop-opacity:1;opacity:1" d="M 225.66016 307.78125 A 2.6458349 2.6458349 0 0 0 224.67969 307.99219 C 212.81806 313.02184 204.61467 318.01606 199.52148 323.35352 C 194.4283 328.69097 192.55536 334.76885 194.14062 340.5625 C 195.72589 346.35615 200.2698 351.59981 206.86133 356.76758 C 213.45286 361.93535 222.20473 367.03838 232.68164 372.2207 A 2.6458349 2.6458349 0 0 0 236.22656 371.02344 A 2.6458349 2.6458349 0 0 0 235.02734 367.47852 C 224.74126 362.39059 216.25499 357.40791 210.12695 352.60352 C 203.99892 347.79912 200.34362 343.18427 199.24414 339.16602 C 198.14466 335.14776 199.10135 331.45982 203.34961 327.00781 C 207.59787 322.5558 215.24677 317.73848 226.74414 312.86328 A 2.6458349 2.6458349 0 0 0 228.14844 309.39453 A 2.6458349 2.6458349 0 0 0 225.66016 307.78125 z "/><path style="color:#000000;font-style:normal;font-variant:normal;font-weight:normal;font-stretch:normal;font-size:medium;line-height:normal;font-family:sans-serif;font-variant-ligatures:normal;font-variant-position:normal;font-variant-caps:normal;font-variant-numeric:normal;font-variant-alternates:normal;font-variant-east-asian:normal;font-feature-settings:normal;font-variation-settings:normal;text-indent:0;text-align:start;text-decoration:none;text-decoration-line:none;text-decoration-style:solid;text-decoration-color:#000000;letter-spacing:normal;word-spacing:normal;text-transform:none;writing-mode:lr-tb;direction:ltr;text-orientation:mixed;dominant-baseline:auto;baseline-shift:baseline;text-anchor:start;white-space:normal;shape-padding:0;shape-margin:0;inline-size:0;clip-rule:nonzero;display:inline;overflow:visible;visibility:visible;isolation:auto;mix-blend-mode:normal;color-interpolation:sRGB;color-interpolation-filters:linearRGB;solid-color:#000000;solid-opacity:1;vector-effect:none;fill:#000000;fill-opacity:1;fill-rule:nonzero;stroke:none;stroke-linecap:round;stroke-linejoin:round;stroke-miterlimit:4;stroke-dasharray:none;stroke-dashoffset:0;stroke-opacity:1;color-rendering:auto;image-rendering:auto;shape-rendering:auto;text-rendering:auto;enable-background:accumulate;stop-color:#000000;stop-opacity:1;opacity:1" d="M 246.70703 383.98633 A 2.6458349 2.6458349 0 0 0 244.0293 386.59766 L 243.20117 451.84766 A 2.6458349 2.6458349 0 0 0 245.81445 454.52734 A 2.6458349 2.6458349 0 0 0 248.49219 451.91406 L 249.32031 386.66406 A 2.6458349 2.6458349 0 0 0 246.70703 383.98633 z "/><path style="color:#000000;font-style:normal;font-variant:normal;font-weight:normal;font-stretch:normal;font-size:medium;line-height:normal;font-family:sans-serif;font-variant-ligatures:normal;font-variant-position:normal;font-variant-caps:normal;font-variant-numeric:normal;font-variant-alternates:normal;font-variant-east-asian:normal;font-feature-settings:normal;font-variation-settings:normal;text-indent:0;text-align:start;text-decoration:none;text-decoration-line:none;text-decoration-style:solid;text-decoration-color:#000000;letter-spacing:normal;word-spacing:normal;text-transform:none;writing-mode:lr-tb;direction:ltr;text-orientation:mixed;dominant-baseline:auto;baseline-shift:baseline;text-anchor:start;white-space:normal;shape-padding:0;shape-margin:0;inline-size:0;clip-rule:nonzero;display:inline;overflow:visible;visibility:visible;isolation:auto;mix-blend-mode:normal;color-interpolation:sRGB;color-interpolation-filters:linearRGB;solid-color:#000000;solid-opacity:1;vector-effect:none;fill:#000000;fill-opacity:1;fill-rule:nonzero;stroke-width:5.29166;stroke-linecap:square;stroke-linejoin:miter;stroke-miterlimit:4;stroke-dasharray:none;stroke-dashoffset:0;stroke-opacity:1;paint-order:markers fill stroke;color-rendering:auto;image-rendering:auto;shape-rendering:auto;text-rendering:auto;enable-background:accumulate;stop-color:#000000;stop-opacity:1;stroke:none;opacity:1" d="m 233.48597,163.45953 c 0,2.58316 -2.19877,4.67722 -4.91108,4.67722 -2.71231,0 -4.91108,-2.09406 -4.91108,-4.67722 0,-2.58315 2.19877,-4.67721 4.91108,-4.67721 2.71231,0 4.91108,2.09406 4.91108,4.67721 z"/><path style="color:#000000;font-style:normal;font-variant:normal;font-weight:normal;font-stretch:normal;font-size:medium;line-height:normal;font-family:sans-serif;font-variant-ligatures:normal;font-variant-position:normal;font-variant-caps:normal;font-variant-numeric:normal;font-variant-alternates:normal;font-variant-east-asian:normal;font-feature-settings:normal;font-variation-settings:normal;text-indent:0;text-align:start;text-decoration:none;text-decoration-line:none;text-decoration-style:solid;text-decoration-color:#000000;letter-spacing:normal;word-spacing:normal;text-transform:none;writing-mode:lr-tb;direction:ltr;text-orientation:mixed;dominant-baseline:auto;baseline-shift:baseline;text-anchor:start;white-space:normal;shape-padding:0;shape-margin:0;inline-size:0;clip-rule:nonzero;display:inline;overflow:visible;visibility:visible;isolation:auto;mix-blend-mode:normal;color-interpolation:sRGB;color-interpolation-filters:linearRGB;solid-color:#000000;solid-opacity:1;vector-effect:none;fill:#000000;fill-opacity:1;fill-rule:nonzero;stroke-width:5.29166;stroke-linecap:square;stroke-linejoin:miter;stroke-miterlimit:4;stroke-dasharray:none;stroke-dashoffset:0;stroke-opacity:1;paint-order:markers fill stroke;color-rendering:auto;image-rendering:auto;shape-rendering:auto;text-rendering:auto;enable-background:accumulate;stop-color:#000000;stop-opacity:1;stroke:none;opacity:1" d="m 329.39612,163.46442 c 0,2.58315 -2.19876,4.67721 -4.91107,4.67721 -2.71232,0 -4.91108,-2.09406 -4.91108,-4.67721 0,-2.58316 2.19876,-4.67722 4.91108,-4.67722 2.71231,0 4.91107,2.09406 4.91107,4.67722 z"/><path style="color:#000000;font-style:normal;font-variant:normal;font-weight:normal;font-stretch:normal;font-size:medium;line-height:normal;font-family:sans-serif;font-variant-ligatures:normal;font-variant-position:normal;font-variant-caps:normal;font-variant-numeric:normal;font-variant-alternates:normal;font-variant-east-asian:normal;font-feature-settings:normal;font-variation-settings:normal;text-indent:0;text-align:start;text-decoration:none;text-decoration-line:none;text-decoration-style:solid;text-decoration-color:#000000;letter-spacing:normal;word-spacing:normal;text-transform:none;writing-mode:lr-tb;direction:ltr;text-orientation:mixed;dominant-baseline:auto;baseline-shift:baseline;text-anchor:start;white-space:normal;shape-padding:0;shape-margin:0;inline-size:0;clip-rule:nonzero;display:inline;overflow:visible;visibility:visible;isolation:auto;mix-blend-mode:normal;color-interpolation:sRGB;color-interpolation-filters:linearRGB;solid-color:#000000;solid-opacity:1;vector-effect:none;fill:#000000;fill-opacity:1;fill-rule:nonzero;stroke:none;stroke-linecap:square;stroke-linejoin:miter;stroke-miterlimit:4;stroke-dasharray:none;stroke-dashoffset:0;stroke-opacity:1;paint-order:markers fill stroke;color-rendering:auto;image-rendering:auto;shape-rendering:auto;text-rendering:auto;enable-background:accumulate;stop-color:#000000;stop-opacity:1;opacity:1" d="M 255.34375 52.208984 C 187.91816 52.208984 133.18945 106.93964 133.18945 174.36523 C 133.18945 176.47233 133.24224 178.56723 133.34766 180.64844 C 133.45318 182.72985 133.60983 184.7965 133.81836 186.84961 C 134.02688 188.9025 134.28671 190.94077 134.5957 192.96289 C 134.90468 194.98479 135.26305 196.99214 135.66992 198.98047 C 136.07678 200.96869 136.53281 202.93852 137.03516 204.89062 C 137.53734 206.8425 138.08656 208.77642 138.68164 210.68945 C 139.27662 212.60259 139.9164 214.49397 140.60156 216.36523 C 141.28674 218.23654 142.01619 220.08684 142.78906 221.91406 C 143.56189 223.74117 144.37835 225.54575 145.23633 227.32617 C 146.0942 229.10669 146.99334 230.86279 147.93359 232.59375 C 148.8739 234.32471 149.85477 236.02991 150.875 237.70898 C 151.89526 239.38811 152.95522 241.04148 154.05273 242.66602 C 155.15029 244.29061 156.2867 245.88744 157.45898 247.45508 C 158.63131 249.02267 159.83946 250.56034 161.08398 252.06836 C 162.32851 253.57625 163.60944 255.05396 164.92383 256.5 C 166.23805 257.94596 167.58537 259.36076 168.9668 260.74219 C 170.34823 262.12362 171.76303 263.47094 173.20898 264.78516 C 174.65503 266.09954 176.13273 267.38048 177.64062 268.625 C 179.14865 269.86953 180.68632 271.07767 182.25391 272.25 C 183.82154 273.42228 185.41838 274.5587 187.04297 275.65625 C 188.66751 276.75377 190.32088 277.81372 192 278.83398 C 193.67907 279.85421 195.38427 280.83508 197.11523 281.77539 C 198.8462 282.71565 200.6023 283.61478 202.38281 284.47266 C 204.16323 285.33064 205.96782 286.1471 207.79492 286.91992 C 209.62214 287.69279 211.47245 288.42225 213.34375 289.10742 C 215.21502 289.79258 217.1064 290.43237 219.01953 291.02734 C 220.93257 291.62242 222.86649 292.17165 224.81836 292.67383 C 226.77047 293.17617 228.74029 293.63221 230.72852 294.03906 C 232.71685 294.44594 234.72419 294.80431 236.74609 295.11328 C 237.25068 295.19033 237.75691 295.26485 238.26562 295.33594 C 238.77088 295.40666 239.27655 295.47464 239.7832 295.53906 C 239.90733 295.55509 240.04024 295.57079 240.18164 295.58789 L 243.46484 295.98633 L 244.25977 289.41992 L 240.97656 289.02148 C 240.86996 289.00859 240.75454 288.99449 240.63086 288.97852 L 240.62695 288.97852 L 240.625 288.97656 C 240.14282 288.91528 239.66123 288.85228 239.18164 288.78516 C 238.70276 288.71824 238.22315 288.64737 237.74414 288.57422 C 235.83184 288.28199 233.93476 287.94332 232.05469 287.55859 C 230.17451 287.17385 228.31209 286.74243 226.4668 286.26758 C 224.62127 285.79276 222.79274 285.27346 220.98438 284.71094 C 219.17591 284.14851 217.38652 283.54432 215.61719 282.89648 C 213.84789 282.24866 212.09868 281.55885 210.37109 280.82812 C 208.6434 280.09735 206.93729 279.32489 205.25391 278.51367 C 203.57042 277.70255 201.91067 276.85223 200.27344 275.96289 C 198.6364 275.0736 197.02172 274.14466 195.43359 273.17969 C 193.84552 272.21475 192.28295 271.21406 190.74609 270.17578 C 189.20929 269.13753 187.69996 268.06224 186.2168 266.95312 C 184.73379 265.84405 183.27834 264.70091 181.85156 263.52344 C 180.42466 262.34576 179.02616 261.13404 177.6582 259.89062 C 176.28996 258.64704 174.9515 257.37142 173.64453 256.06445 C 172.33756 254.75748 171.06194 253.41902 169.81836 252.05078 C 168.57495 250.68282 167.36322 249.28433 166.18555 247.85742 C 165.00807 246.43065 163.86493 244.9752 162.75586 243.49219 C 161.64674 242.00902 160.57145 240.4997 159.5332 238.96289 C 158.49492 237.42603 157.49424 235.86347 156.5293 234.27539 C 155.56433 232.68726 154.63538 231.07259 153.74609 229.43555 C 152.85675 227.79831 152.00644 226.13856 151.19531 224.45508 C 150.38409 222.7717 149.61163 221.06558 148.88086 219.33789 C 148.15013 217.61031 147.46033 215.86109 146.8125 214.0918 C 146.16466 212.32246 145.56047 210.53308 144.99805 208.72461 C 144.43553 206.91624 143.91623 205.08772 143.44141 203.24219 C 142.96655 201.3969 142.53514 199.53447 142.15039 197.6543 C 141.76567 195.77423 141.42699 193.87714 141.13477 191.96484 C 140.84256 190.05257 140.59767 188.12395 140.40039 186.18164 C 140.20312 184.23935 140.053 182.28249 139.95312 180.3125 C 139.85334 178.34251 139.80273 176.36054 139.80273 174.36523 C 139.80273 110.51443 191.49294 58.824219 255.34375 58.824219 C 319.19456 58.824219 370.88477 110.51443 370.88477 174.36523 C 370.88477 190.32799 367.65234 205.51724 361.80664 219.33789 C 360.34526 222.79301 358.72001 226.16132 356.94141 229.43555 C 355.16285 232.70958 353.2308 235.88926 351.1543 238.96289 C 350.63529 239.73124 350.10723 240.49308 349.57031 241.24805 C 349.03339 242.00312 348.48819 242.75062 347.93359 243.49219 C 347.79454 243.67804 347.6553 243.86239 347.51562 244.04688 C 347.37629 244.23091 347.2369 244.41542 347.0957 244.59961 C 346.9553 244.78277 346.81219 244.96708 346.66992 245.15039 L 344.64258 247.76172 L 349.86914 251.81836 L 351.89648 249.20508 C 352.04602 249.01239 352.19455 248.81964 352.34375 248.625 C 352.49216 248.43139 352.641 248.23658 352.78906 248.04102 C 352.93679 247.8459 353.08432 247.65042 353.23047 247.45508 C 353.81667 246.67124 354.39326 245.88036 354.96094 245.08203 C 355.52862 244.2838 356.08792 243.47847 356.63672 242.66602 C 358.83182 239.41684 360.87326 236.05572 362.75391 232.59375 C 364.6345 229.13178 366.35282 225.56834 367.89844 221.91406 C 374.08094 207.29711 377.5 191.22168 377.5 174.36523 C 377.5 106.93964 322.76934 52.208984 255.34375 52.208984 z "/><path style="color:#000000;font-style:normal;font-variant:normal;font-weight:normal;font-stretch:normal;font-size:medium;line-height:normal;font-family:sans-serif;font-variant-ligatures:normal;font-variant-position:normal;font-variant-caps:normal;font-variant-numeric:normal;font-variant-alternates:normal;font-variant-east-asian:normal;font-feature-settings:normal;font-variation-settings:normal;text-indent:0;text-align:start;text-decoration:none;text-decoration-line:none;text-decoration-style:solid;text-decoration-color:#000000;letter-spacing:normal;word-spacing:normal;text-transform:none;writing-mode:lr-tb;direction:ltr;text-orientation:mixed;dominant-baseline:auto;baseline-shift:baseline;text-anchor:start;white-space:normal;shape-padding:0;shape-margin:0;inline-size:0;clip-rule:nonzero;display:inline;overflow:visible;visibility:visible;isolation:auto;mix-blend-mode:normal;color-interpolation:sRGB;color-interpolation-filters:linearRGB;solid-color:#000000;solid-opacity:1;vector-effect:none;fill:#000000;fill-opacity:1;fill-rule:nonzero;stroke:none;stroke-linecap:round;stroke-linejoin:round;stroke-miterlimit:4;stroke-dasharray:none;stroke-dashoffset:0;stroke-opacity:1;color-rendering:auto;image-rendering:auto;shape-rendering:auto;text-rendering:auto;enable-background:accumulate;stop-color:#000000;stop-opacity:1;opacity:1" d="M 328.85547 277.61914 A 1.984375 1.984375 0 0 0 326.91211 279.39648 C 322.60816 320.59303 324.4055 364.04649 326.02344 404.50391 A 1.984375 1.984375 0 0 0 328.08594 406.4082 A 1.984375 1.984375 0 0 0 329.98828 404.3457 C 328.37021 363.88492 326.59733 320.60405 330.85938 279.80859 A 1.984375 1.984375 0 0 0 329.0918 277.62891 A 1.984375 1.984375 0 0 0 328.85547 277.61914 z "/><path style="color:#000000;font-style:normal;font-variant:normal;font-weight:normal;font-stretch:normal;font-size:medium;line-height:normal;font-family:sans-serif;font-variant-ligatures:normal;font-variant-position:normal;font-variant-caps:normal;font-variant-numeric:normal;font-variant-alternates:normal;font-variant-east-asian:normal;font-feature-settings:normal;font-variation-settings:normal;text-indent:0;text-align:start;text-decoration:none;text-decoration-line:none;text-decoration-style:solid;text-decoration-color:#000000;letter-spacing:normal;word-spacing:normal;text-transform:none;writing-mode:lr-tb;direction:ltr;text-orientation:mixed;dominant-baseline:auto;baseline-shift:baseline;text-anchor:start;white-space:normal;shape-padding:0;shape-margin:0;inline-size:0;clip-rule:nonzero;display:inline;overflow:visible;visibility:visible;isolation:auto;mix-blend-mode:normal;color-interpolation:sRGB;color-interpolation-filters:linearRGB;solid-color:#000000;solid-opacity:1;vector-effect:none;fill:#000000;fill-opacity:1;fill-rule:nonzero;stroke:none;stroke-linecap:round;stroke-linejoin:round;stroke-miterlimit:4;stroke-dasharray:none;stroke-dashoffset:0;stroke-opacity:1;color-rendering:auto;image-rendering:auto;shape-rendering:auto;text-rendering:auto;enable-background:accumulate;stop-color:#000000;stop-opacity:1;opacity:1" d="M 337.11328 273.51562 A 1.984375 1.984375 0 0 0 335.87305 273.95117 A 1.984375 1.984375 0 0 0 335.56445 276.74023 C 364.67902 313.10206 363.07962 362.70737 357.08789 393.95508 A 1.984375 1.984375 0 0 0 358.66211 396.27734 A 1.984375 1.984375 0 0 0 360.98438 394.70312 C 367.09664 362.82683 368.91554 312.04394 338.66211 274.25977 A 1.984375 1.984375 0 0 0 337.11328 273.51562 z "/><path style="color:#000000;font-style:normal;font-variant:normal;font-weight:normal;font-stretch:normal;font-size:medium;line-height:normal;font-family:sans-serif;font-variant-ligatures:normal;font-variant-position:normal;font-variant-caps:normal;font-variant-numeric:normal;font-variant-alternates:normal;font-variant-east-asian:normal;font-feature-settings:normal;font-variation-settings:normal;text-indent:0;text-align:start;text-decoration:none;text-decoration-line:none;text-decoration-style:solid;text-decoration-color:#000000;letter-spacing:normal;word-spacing:normal;text-transform:none;writing-mode:lr-tb;direction:ltr;text-orientation:mixed;dominant-baseline:auto;baseline-shift:baseline;text-anchor:start;white-space:normal;shape-padding:0;shape-margin:0;inline-size:0;clip-rule:nonzero;display:inline;overflow:visible;visibility:visible;isolation:auto;mix-blend-mode:normal;color-interpolation:sRGB;color-interpolation-filters:linearRGB;solid-color:#000000;solid-opacity:1;vector-effect:none;fill:#000000;fill-opacity:1;fill-rule:nonzero;stroke:none;stroke-linecap:round;stroke-linejoin:round;stroke-miterlimit:4;stroke-dasharray:none;stroke-dashoffset:0;stroke-opacity:1;color-rendering:auto;image-rendering:auto;shape-rendering:auto;text-rendering:auto;enable-background:accumulate;stop-color:#000000;stop-opacity:1;opacity:1" d="M 345.80859 267.46094 A 1.984375 1.984375 0 0 0 344.13672 268.48438 A 1.984375 1.984375 0 0 0 344.91406 271.18164 C 366.88388 283.30984 377.49471 299.37075 382.25586 316.70508 C 387.01701 334.03941 385.79979 352.70199 383.59961 369.59375 A 1.984375 1.984375 0 0 0 385.3125 371.81836 A 1.984375 1.984375 0 0 0 387.53516 370.10547 C 389.75898 353.03223 391.08233 333.85222 386.08398 315.6543 C 381.08563 297.45637 369.63816 280.29583 346.83398 267.70703 A 1.984375 1.984375 0 0 0 345.80859 267.46094 z "/><g style="opacity:1;fill:#000000;fill-opacity:1"><path style="color:#000000;font-variant-ligatures:normal;font-variant-position:normal;font-variant-caps:normal;font-variant-numeric:normal;font-variant-alternates:normal;font-variant-east-asian:normal;font-feature-settings:normal;font-variation-settings:normal;text-indent:0;text-decoration-line:none;text-decoration-style:solid;text-decoration-color:#000000;text-transform:none;direction:ltr;text-orientation:mixed;dominant-baseline:auto;baseline-shift:baseline;white-space:normal;shape-padding:0;shape-margin:0;inline-size:0;isolation:auto;mix-blend-mode:normal;color-interpolation:sRGB;color-interpolation-filters:linearRGB;solid-color:#000000;solid-opacity:1;vector-effect:none;color-rendering:auto;image-rendering:auto;shape-rendering:auto;enable-background:accumulate;" d="m 348.34502,262.40537 c 12.66,-0.693 18.931,1.371 26.003,4.093" clip-rule="nonzero" display="inline" overflow="visible" visibility="visible" fill="#000000" fill-opacity="1" fill-rule="nonzero" stroke="none" stop-color="#000000" stop-opacity="1"/><path style="color:#000000;font-variant-ligatures:normal;font-variant-position:normal;font-variant-caps:normal;font-variant-numeric:normal;font-variant-alternates:normal;font-variant-east-asian:normal;font-feature-settings:normal;font-variation-settings:normal;text-indent:0;text-decoration-line:none;text-decoration-style:solid;text-decoration-color:#000000;text-transform:none;direction:ltr;text-orientation:mixed;dominant-baseline:auto;baseline-shift:baseline;white-space:normal;shape-padding:0;shape-margin:0;inline-size:0;isolation:auto;mix-blend-mode:normal;color-interpolation:sRGB;color-interpolation-filters:linearRGB;solid-color:#000000;solid-opacity:1;vector-effect:none;color-rendering:auto;image-rendering:auto;shape-rendering:auto;enable-background:accumulate;" d="M 356.87305 260.40039 C 354.30975 260.25192 351.46393 260.24715 348.23633 260.42383 A 1.984375 1.984375 0 0 0 346.36328 262.51367 A 1.984375 1.984375 0 0 0 348.45312 264.38672 C 360.8627 263.70743 366.61594 265.64808 373.63477 268.34961 A 1.984375 1.984375 0 0 0 376.19922 267.21094 A 1.984375 1.984375 0 0 0 375.06055 264.64648 C 369.71667 262.58963 364.56294 260.84582 356.87305 260.40039 z " clip-rule="nonzero" display="inline" overflow="visible" visibility="visible" fill="#000000" fill-opacity="1" fill-rule="nonzero" stroke="none" stop-color="#000000" stop-opacity="1"/></g><g style="opacity:1;fill:#000000;fill-opacity:1"><path style="color:#000000;font-variant-ligatures:normal;font-variant-position:normal;font-variant-caps:normal;font-variant-numeric:normal;font-variant-alternates:normal;font-variant-east-asian:normal;font-feature-settings:normal;font-variation-settings:normal;text-indent:0;text-decoration-line:none;text-decoration-style:solid;text-decoration-color:#000000;text-transform:none;direction:ltr;text-orientation:mixed;dominant-baseline:auto;baseline-shift:baseline;white-space:normal;shape-padding:0;shape-margin:0;inline-size:0;isolation:auto;mix-blend-mode:normal;color-interpolation:sRGB;color-interpolation-filters:linearRGB;solid-color:#000000;solid-opacity:1;vector-effect:none;color-rendering:auto;image-rendering:auto;shape-rendering:auto;enable-background:accumulate;" d="m 341.61702,254.93837 4.897,-5.64" clip-rule="nonzero" display="inline" overflow="visible" visibility="visible" fill="#000000" fill-opacity="1" fill-rule="nonzero" stroke="none" stop-color="#000000" stop-opacity="1"/><path style="color:#000000;font-variant-ligatures:normal;font-variant-position:normal;font-variant-caps:normal;font-variant-numeric:normal;font-variant-alternates:normal;font-variant-east-asian:normal;font-feature-settings:normal;font-variation-settings:normal;text-indent:0;text-decoration-line:none;text-decoration-style:solid;text-decoration-color:#000000;text-transform:none;direction:ltr;text-orientation:mixed;dominant-baseline:auto;baseline-shift:baseline;white-space:normal;shape-padding:0;shape-margin:0;inline-size:0;isolation:auto;mix-blend-mode:normal;color-interpolation:sRGB;color-interpolation-filters:linearRGB;solid-color:#000000;solid-opacity:1;vector-effect:none;color-rendering:auto;image-rendering:auto;shape-rendering:auto;enable-background:accumulate;" d="M 346.51172 247.31445 A 1.984375 1.984375 0 0 0 345.01562 247.99805 L 340.11914 253.63672 A 1.984375 1.984375 0 0 0 340.31641 256.4375 A 1.984375 1.984375 0 0 0 343.11523 256.24023 L 348.01172 250.59961 A 1.984375 1.984375 0 0 0 347.81445 247.80078 A 1.984375 1.984375 0 0 0 346.51172 247.31445 z " clip-rule="nonzero" display="inline" overflow="visible" visibility="visible" fill="#000000" fill-opacity="1" fill-rule="nonzero" stroke="none" stop-color="#000000" stop-opacity="1"/></g><g style="opacity:1;fill:#000000;fill-opacity:1"><path style="color:#000000;font-variant-ligatures:normal;font-variant-position:normal;font-variant-caps:normal;font-variant-numeric:normal;font-variant-alternates:normal;font-variant-east-asian:normal;font-feature-settings:normal;font-variation-settings:normal;text-indent:0;text-decoration-line:none;text-decoration-style:solid;text-decoration-color:#000000;text-transform:none;direction:ltr;text-orientation:mixed;dominant-baseline:auto;baseline-shift:baseline;white-space:normal;shape-padding:0;shape-margin:0;inline-size:0;isolation:auto;mix-blend-mode:normal;color-interpolation:sRGB;color-interpolation-filters:linearRGB;solid-color:#000000;solid-opacity:1;vector-effect:none;color-rendering:auto;image-rendering:auto;shape-rendering:auto;enable-background:accumulate;" d="m 325.17302,250.57537 -7.915,-6.42" clip-rule="nonzero" display="inline" overflow="visible" visibility="visible" fill="#000000" fill-opacity="1" fill-rule="nonzero" stroke="none" stop-color="#000000" stop-opacity="1"/><path style="color:#000000;font-variant-ligatures:normal;font-variant-position:normal;font-variant-caps:normal;font-variant-numeric:normal;font-variant-alternates:normal;font-variant-east-asian:normal;font-feature-settings:normal;font-variation-settings:normal;text-indent:0;text-decoration-line:none;text-decoration-style:solid;text-decoration-color:#000000;text-transform:none;direction:ltr;text-orientation:mixed;dominant-baseline:auto;baseline-shift:baseline;white-space:normal;shape-padding:0;shape-margin:0;inline-size:0;isolation:auto;mix-blend-mode:normal;color-interpolation:sRGB;color-interpolation-filters:linearRGB;solid-color:#000000;solid-opacity:1;vector-effect:none;color-rendering:auto;image-rendering:auto;shape-rendering:auto;enable-background:accumulate;" d="M 317.18945 242.17188 A 1.984375 1.984375 0 0 0 315.7168 242.90625 A 1.984375 1.984375 0 0 0 316.00781 245.69727 L 323.92383 252.11719 A 1.984375 1.984375 0 0 0 326.71484 251.82617 A 1.984375 1.984375 0 0 0 326.42383 249.03516 L 318.50781 242.61328 A 1.984375 1.984375 0 0 0 317.18945 242.17188 z " clip-rule="nonzero" display="inline" overflow="visible" visibility="visible" fill="#000000" fill-opacity="1" fill-rule="nonzero" stroke="none" stop-color="#000000" stop-opacity="1"/></g><g style="opacity:1;fill:#000000;fill-opacity:1"><path style="color:#000000;font-variant-ligatures:normal;font-variant-position:normal;font-variant-caps:normal;font-variant-numeric:normal;font-variant-alternates:normal;font-variant-east-asian:normal;font-feature-settings:normal;font-variation-settings:normal;text-indent:0;text-decoration-line:none;text-decoration-style:solid;text-decoration-color:#000000;text-transform:none;direction:ltr;text-orientation:mixed;dominant-baseline:auto;baseline-shift:baseline;white-space:normal;shape-padding:0;shape-margin:0;inline-size:0;isolation:auto;mix-blend-mode:normal;color-interpolation:sRGB;color-interpolation-filters:linearRGB;solid-color:#000000;solid-opacity:1;vector-effect:none;color-rendering:auto;image-rendering:auto;shape-rendering:auto;enable-background:accumulate;" d="m 310.05402,255.67637 c -7.681,-4.036 -15.381,-5.129 -23.675,-5.758" clip-rule="nonzero" display="inline" overflow="visible" visibility="visible" fill="#000000" fill-opacity="1" fill-rule="nonzero" stroke="none" stop-color="#000000" stop-opacity="1"/><path style="color:#000000;font-variant-ligatures:normal;font-variant-position:normal;font-variant-caps:normal;font-variant-numeric:normal;font-variant-alternates:normal;font-variant-east-asian:normal;font-feature-settings:normal;font-variation-settings:normal;text-indent:0;text-decoration-line:none;text-decoration-style:solid;text-decoration-color:#000000;text-transform:none;direction:ltr;text-orientation:mixed;dominant-baseline:auto;baseline-shift:baseline;white-space:normal;shape-padding:0;shape-margin:0;inline-size:0;isolation:auto;mix-blend-mode:normal;color-interpolation:sRGB;color-interpolation-filters:linearRGB;solid-color:#000000;solid-opacity:1;vector-effect:none;color-rendering:auto;image-rendering:auto;shape-rendering:auto;enable-background:accumulate;" d="M 286.41016 247.93359 A 1.984375 1.984375 0 0 0 284.40039 249.76758 A 1.984375 1.984375 0 0 0 286.22852 251.89648 C 294.44202 252.51938 301.80268 253.58298 309.13086 257.43359 A 1.984375 1.984375 0 0 0 311.81055 256.59961 A 1.984375 1.984375 0 0 0 310.97656 253.91992 C 302.94275 249.69853 294.9038 248.57456 286.5293 247.93945 A 1.984375 1.984375 0 0 0 286.41016 247.93359 z " clip-rule="nonzero" display="inline" overflow="visible" visibility="visible" fill="#000000" fill-opacity="1" fill-rule="nonzero" stroke="none" stop-color="#000000" stop-opacity="1"/></g><path style="color:#000000;font-style:normal;font-variant:normal;font-weight:normal;font-stretch:normal;font-size:medium;line-height:normal;font-family:sans-serif;font-variant-ligatures:normal;font-variant-position:normal;font-variant-caps:normal;font-variant-numeric:normal;font-variant-alternates:normal;font-variant-east-asian:normal;font-feature-settings:normal;font-variation-settings:normal;text-indent:0;text-align:start;text-decoration:none;text-decoration-line:none;text-decoration-style:solid;text-decoration-color:#000000;letter-spacing:normal;word-spacing:normal;text-transform:none;writing-mode:lr-tb;direction:ltr;text-orientation:mixed;dominant-baseline:auto;baseline-shift:baseline;text-anchor:start;white-space:normal;shape-padding:0;shape-margin:0;inline-size:0;clip-rule:nonzero;display:inline;overflow:visible;visibility:visible;isolation:auto;mix-blend-mode:normal;color-interpolation:sRGB;color-interpolation-filters:linearRGB;solid-color:#000000;solid-opacity:1;vector-effect:none;fill:#000000;fill-opacity:1;fill-rule:nonzero;stroke:none;stroke-linecap:round;stroke-linejoin:round;stroke-miterlimit:4;stroke-dasharray:none;stroke-dashoffset:0;stroke-opacity:1;color-rendering:auto;image-rendering:auto;shape-rendering:auto;text-rendering:auto;enable-background:accumulate;stop-color:#000000;stop-opacity:1;opacity:1" d="M 307.10352 260.08398 A 1.984375 1.984375 0 0 0 306.94727 260.0918 C 275.4869 262.81223 248.16928 281.73424 235.83984 310.43359 A 1.984375 1.984375 0 0 0 236.88086 313.03906 A 1.984375 1.984375 0 0 0 239.48633 312 C 251.2269 284.67135 277.20343 266.64648 307.28906 264.04492 A 1.984375 1.984375 0 0 0 309.0957 261.89648 A 1.984375 1.984375 0 0 0 307.10352 260.08398 z "/><path style="color:#000000;font-style:normal;font-variant:normal;font-weight:normal;font-stretch:normal;font-size:medium;line-height:normal;font-family:sans-serif;font-variant-ligatures:normal;font-variant-position:normal;font-variant-caps:normal;font-variant-numeric:normal;font-variant-alternates:normal;font-variant-east-asian:normal;font-feature-settings:normal;font-variation-settings:normal;text-indent:0;text-align:start;text-decoration:none;text-decoration-line:none;text-decoration-style:solid;text-decoration-color:#000000;letter-spacing:normal;word-spacing:normal;text-transform:none;writing-mode:lr-tb;direction:ltr;text-orientation:mixed;dominant-baseline:auto;baseline-shift:baseline;text-anchor:start;white-space:normal;shape-padding:0;shape-margin:0;inline-size:0;clip-rule:nonzero;display:inline;overflow:visible;visibility:visible;isolation:auto;mix-blend-mode:normal;color-interpolation:sRGB;color-interpolation-filters:linearRGB;solid-color:#000000;solid-opacity:1;vector-effect:none;fill:#000000;fill-opacity:1;fill-rule:nonzero;stroke:none;stroke-linecap:round;stroke-linejoin:round;stroke-miterlimit:4;stroke-dasharray:none;stroke-dashoffset:0;stroke-opacity:1;color-rendering:auto;image-rendering:auto;shape-rendering:auto;text-rendering:auto;enable-background:accumulate;stop-color:#000000;stop-opacity:1;opacity:1" d="M 313.75586 267.87305 A 1.984375 1.984375 0 0 0 313.02344 267.99805 C 310.98883 268.75492 309.01985 269.55109 307.11523 270.38672 C 305.21086 271.22122 303.37125 272.09382 301.59375 273.00195 C 298.03904 274.8191 294.73241 276.77732 291.66406 278.85938 A 1.9845734 1.9845734 0 0 0 291.66406 278.86133 C 288.59501 280.94419 285.76425 283.15032 283.15625 285.46094 C 280.54771 287.7711 278.16219 290.18731 275.98633 292.6875 C 267.28442 302.68576 261.94642 314.02967 258.98633 325.45898 C 253.06715 348.31718 256.55768 371.48317 261.59961 385.84766 A 1.984375 1.984375 0 0 0 264.12891 387.0625 A 1.984375 1.984375 0 0 0 265.34375 384.5332 C 260.55768 370.89768 257.1693 348.30593 262.82812 326.45312 C 265.65804 315.52644 270.72637 304.77671 278.98047 295.29297 C 281.04461 292.92116 283.30765 290.62748 285.78711 288.43164 C 288.2668 286.23462 290.96207 284.13337 293.89258 282.14453 C 296.82223 280.15659 299.98515 278.28196 303.39844 276.53711 C 305.10494 275.66524 306.87536 274.82498 308.70898 274.02148 C 310.54237 273.21711 312.44086 272.44792 314.40625 271.7168 A 1.984375 1.984375 0 0 0 315.57422 269.16602 A 1.984375 1.984375 0 0 0 313.75586 267.87305 z "/><path style="color:#000000;font-style:normal;font-variant:normal;font-weight:normal;font-stretch:normal;font-size:medium;line-height:normal;font-family:sans-serif;font-variant-ligatures:normal;font-variant-position:normal;font-variant-caps:normal;font-variant-numeric:normal;font-variant-alternates:normal;font-variant-east-asian:normal;font-feature-settings:normal;font-variation-settings:normal;text-indent:0;text-align:start;text-decoration:none;text-decoration-line:none;text-decoration-style:solid;text-decoration-color:#000000;letter-spacing:normal;word-spacing:normal;text-transform:none;writing-mode:lr-tb;direction:ltr;text-orientation:mixed;dominant-baseline:auto;baseline-shift:baseline;text-anchor:start;white-space:normal;shape-padding:0;shape-margin:0;inline-size:0;clip-rule:nonzero;display:inline;overflow:visible;visibility:visible;isolation:auto;mix-blend-mode:normal;color-interpolation:sRGB;color-interpolation-filters:linearRGB;solid-color:#000000;solid-opacity:1;vector-effect:none;fill:#000000;fill-opacity:1;fill-rule:nonzero;stroke:none;stroke-linecap:round;stroke-linejoin:round;stroke-miterlimit:4;stroke-dasharray:none;stroke-dashoffset:0;stroke-opacity:1;color-rendering:auto;image-rendering:auto;shape-rendering:auto;text-rendering:auto;enable-background:accumulate;stop-color:#000000;stop-opacity:1;opacity:1" d="M 320.77539 274.13086 A 1.984375 1.984375 0 0 0 319.35352 274.71289 C 285.18391 308.94996 281.70647 366.00095 291.66602 402.63672 A 1.984375 1.984375 0 0 0 294.10156 404.03125 A 1.984375 1.984375 0 0 0 295.49609 401.5957 C 285.87564 366.20727 289.46972 310.27451 322.16211 277.51758 A 1.984375 1.984375 0 0 0 322.16016 274.71094 A 1.984375 1.984375 0 0 0 320.77539 274.13086 z "/><path class="st45" d="m 322.60602,260.66337 c -1.825,4.709 11.536,9.525 14.208,4.286 2.461,-4.842 -12.171,-9.578 -14.208,-4.286 z" style="display:inline;fill:#000000;fill-opacity:1;stroke:none;stroke-width:0.208756;stroke-miterlimit:15.1183;stroke-opacity:1;opacity:1"/><path style="color:#000000;font-style:normal;font-variant:normal;font-weight:normal;font-stretch:normal;font-size:medium;line-height:normal;font-family:sans-serif;font-variant-ligatures:normal;font-variant-position:normal;font-variant-caps:normal;font-variant-numeric:normal;font-variant-alternates:normal;font-variant-east-asian:normal;font-feature-settings:normal;font-variation-settings:normal;text-indent:0;text-align:start;text-decoration:none;text-decoration-line:none;text-decoration-style:solid;text-decoration-color:#000000;letter-spacing:normal;word-spacing:normal;text-transform:none;writing-mode:lr-tb;direction:ltr;text-orientation:mixed;dominant-baseline:auto;baseline-shift:baseline;text-anchor:start;white-space:normal;shape-padding:0;shape-margin:0;inline-size:0;clip-rule:nonzero;display:inline;overflow:visible;visibility:visible;isolation:auto;mix-blend-mode:normal;color-interpolation:sRGB;color-interpolation-filters:linearRGB;solid-color:#000000;solid-opacity:1;vector-effect:none;fill:#000000;fill-opacity:1;fill-rule:nonzero;stroke:none;stroke-linecap:round;stroke-linejoin:round;stroke-miterlimit:15.1183;stroke-dasharray:none;stroke-dashoffset:0;stroke-opacity:1;paint-order:stroke fill markers;color-rendering:auto;image-rendering:auto;shape-rendering:auto;text-rendering:auto;enable-background:accumulate;stop-color:#000000;stop-opacity:1;opacity:1" d="M 317.87109 241.35938 C 271.79066 241.35938 234.39258 278.75745 234.39258 324.83789 C 234.39258 370.91833 271.79066 408.31641 317.87109 408.31641 C 363.95153 408.31641 401.34961 370.91833 401.34961 324.83789 C 401.34961 278.75745 363.95153 241.35937 317.87109 241.35938 z M 317.87109 245.32812 C 361.80666 245.32812 397.38086 280.90233 397.38086 324.83789 C 397.38086 368.77346 361.80666 404.34766 317.87109 404.34766 C 273.93553 404.34766 238.36133 368.77346 238.36133 324.83789 C 238.36133 280.90233 273.93553 245.32813 317.87109 245.32812 z "/><path style="color:#000000;font-style:normal;font-variant:normal;font-weight:normal;font-stretch:normal;font-size:medium;line-height:normal;font-family:sans-serif;font-variant-ligatures:normal;font-variant-position:normal;font-variant-caps:normal;font-variant-numeric:normal;font-variant-alternates:normal;font-variant-east-asian:normal;font-feature-settings:normal;font-variation-settings:normal;text-indent:0;text-align:start;text-decoration:none;text-decoration-line:none;text-decoration-style:solid;text-decoration-color:#000000;letter-spacing:normal;word-spacing:normal;text-transform:none;writing-mode:lr-tb;direction:ltr;text-orientation:mixed;dominant-baseline:auto;baseline-shift:baseline;text-anchor:start;white-space:normal;shape-padding:0;shape-margin:0;inline-size:0;clip-rule:nonzero;display:inline;overflow:visible;visibility:visible;isolation:auto;mix-blend-mode:normal;color-interpolation:sRGB;color-interpolation-filters:linearRGB;solid-color:#000000;solid-opacity:1;vector-effect:none;fill:#000000;fill-opacity:1;fill-rule:nonzero;stroke:none;stroke-linecap:round;stroke-linejoin:round;stroke-miterlimit:4;stroke-dasharray:none;stroke-dashoffset:0;stroke-opacity:1;color-rendering:auto;image-rendering:auto;shape-rendering:auto;text-rendering:auto;enable-background:accumulate;stop-color:#000000;stop-opacity:1;opacity:1" d="M 245.27344 461.93945 C 244.01518 461.97386 242.74794 462.24298 241.53711 462.76562 C 239.11545 463.81092 236.92971 465.72838 234.82422 468.44727 C 230.61324 473.88504 226.59071 482.67685 222.35742 495.98828 A 2.6458349 2.6458349 0 0 0 224.07617 499.31055 A 2.6458349 2.6458349 0 0 0 227.40039 497.5918 C 231.5401 484.57463 235.51614 476.19446 239.00781 471.68555 C 240.75365 469.43109 242.343 468.18063 243.63477 467.62305 C 244.92654 467.06546 245.92802 467.06211 247.17578 467.50781 C 249.67131 468.39921 253.0185 471.82017 256.30664 477.21484 C 259.59478 482.60951 262.9136 489.80512 266.21094 497.74805 A 2.6458349 2.6458349 0 0 0 269.66992 499.17773 A 2.6458349 2.6458349 0 0 0 271.09961 495.71875 C 267.75545 487.66302 264.37494 480.2832 260.82617 474.46094 C 257.27741 468.63867 253.65017 464.20248 248.95508 462.52539 C 247.7813 462.10612 246.5317 461.90504 245.27344 461.93945 z "/></g><text x="0" y="544.16668" fill="#000000" font-size="5px" font-weight="bold" font-family="'Helvetica Neue', Helvetica, Arial-Unicode, Arial, Sans-serif">Created by Jevgenijs Kudinovs</text><text x="0" y="549.16668" fill="#000000" font-size="5px" font-weight="bold" font-family="'Helvetica Neue', Helvetica, Arial-Unicode, Arial, Sans-serif">from the Noun Project</text></svg>