<svg xmlns:dc="http://purl.org/dc/elements/1.1/" xmlns:cc="http://creativecommons.org/ns#" xmlns:rdf="http://www.w3.org/1999/02/22-rdf-syntax-ns#" xmlns:svg="http://www.w3.org/2000/svg" xmlns="http://www.w3.org/2000/svg" xmlns:sodipodi="http://sodipodi.sourceforge.net/DTD/sodipodi-0.dtd" xmlns:inkscape="http://www.inkscape.org/namespaces/inkscape" viewBox="0 0 529.16666 661.4583500000001" version="1.1" x="0px" y="0px"><g style="" display="inline"><path style="color:#000000;font-style:normal;font-variant:normal;font-weight:normal;font-stretch:normal;font-size:medium;line-height:normal;font-family:sans-serif;font-variant-ligatures:normal;font-variant-position:normal;font-variant-caps:normal;font-variant-numeric:normal;font-variant-alternates:normal;font-variant-east-asian:normal;font-feature-settings:normal;font-variation-settings:normal;text-indent:0;text-align:start;text-decoration:none;text-decoration-line:none;text-decoration-style:solid;text-decoration-color:#000000;letter-spacing:normal;word-spacing:normal;text-transform:none;writing-mode:lr-tb;direction:ltr;text-orientation:mixed;dominant-baseline:auto;baseline-shift:baseline;text-anchor:start;white-space:normal;shape-padding:0;shape-margin:0;inline-size:0;clip-rule:nonzero;display:inline;overflow:visible;visibility:visible;isolation:auto;mix-blend-mode:normal;color-interpolation:sRGB;color-interpolation-filters:linearRGB;solid-color:#000000;solid-opacity:1;vector-effect:none;fill:#000000;fill-opacity:1;fill-rule:nonzero;stroke:none;stroke-linecap:round;stroke-linejoin:round;stroke-miterlimit:4;stroke-dasharray:none;stroke-dashoffset:0;stroke-opacity:1;color-rendering:auto;image-rendering:auto;shape-rendering:auto;text-rendering:auto;enable-background:accumulate;stop-color:#000000;stop-opacity:1;opacity:1" d="M 232.62305 306.80273 A 2.6458349 2.6458349 0 0 0 230.14648 308.50977 C 215.77461 346.34634 221.78125 386.47852 221.78125 386.47852 A 2.6458349 2.6458349 0 0 0 224.78516 388.71094 A 2.6458349 2.6458349 0 0 0 227.01758 385.70703 C 227.01758 385.70703 221.33963 346.5989 235.09375 310.38867 A 2.6458349 2.6458349 0 0 0 233.55859 306.97656 A 2.6458349 2.6458349 0 0 0 232.62305 306.80273 z "/><path style="color:#000000;font-style:normal;font-variant:normal;font-weight:normal;font-stretch:normal;font-size:medium;line-height:normal;font-family:sans-serif;font-variant-ligatures:normal;font-variant-position:normal;font-variant-caps:normal;font-variant-numeric:normal;font-variant-alternates:normal;font-variant-east-asian:normal;font-feature-settings:normal;font-variation-settings:normal;text-indent:0;text-align:start;text-decoration:none;text-decoration-line:none;text-decoration-style:solid;text-decoration-color:#000000;letter-spacing:normal;word-spacing:normal;text-transform:none;writing-mode:lr-tb;direction:ltr;text-orientation:mixed;dominant-baseline:auto;baseline-shift:baseline;text-anchor:start;white-space:normal;shape-padding:0;shape-margin:0;inline-size:0;clip-rule:nonzero;display:inline;overflow:visible;visibility:visible;isolation:auto;mix-blend-mode:normal;color-interpolation:sRGB;color-interpolation-filters:linearRGB;solid-color:#000000;solid-opacity:1;vector-effect:none;fill:#000000;fill-opacity:1;fill-rule:nonzero;stroke-width:5.29166;stroke-linecap:square;stroke-linejoin:miter;stroke-miterlimit:4;stroke-dasharray:none;stroke-dashoffset:0;stroke-opacity:1;paint-order:markers fill stroke;color-rendering:auto;image-rendering:auto;shape-rendering:auto;text-rendering:auto;enable-background:accumulate;stop-color:#000000;stop-opacity:1;stroke:none;opacity:1" d="m 235.08874,158.38374 c 0,2.58316 -2.19877,4.67722 -4.91108,4.67722 -2.71232,0 -4.91108,-2.09406 -4.91108,-4.67722 0,-2.58315 2.19876,-4.67721 4.91108,-4.67721 2.71231,0 4.91108,2.09406 4.91108,4.67721 z"/><path style="color:#000000;font-style:normal;font-variant:normal;font-weight:normal;font-stretch:normal;font-size:medium;line-height:normal;font-family:sans-serif;font-variant-ligatures:normal;font-variant-position:normal;font-variant-caps:normal;font-variant-numeric:normal;font-variant-alternates:normal;font-variant-east-asian:normal;font-feature-settings:normal;font-variation-settings:normal;text-indent:0;text-align:start;text-decoration:none;text-decoration-line:none;text-decoration-style:solid;text-decoration-color:#000000;letter-spacing:normal;word-spacing:normal;text-transform:none;writing-mode:lr-tb;direction:ltr;text-orientation:mixed;dominant-baseline:auto;baseline-shift:baseline;text-anchor:start;white-space:normal;shape-padding:0;shape-margin:0;inline-size:0;clip-rule:nonzero;display:inline;overflow:visible;visibility:visible;isolation:auto;mix-blend-mode:normal;color-interpolation:sRGB;color-interpolation-filters:linearRGB;solid-color:#000000;solid-opacity:1;vector-effect:none;fill:#000000;fill-opacity:1;fill-rule:nonzero;stroke-width:5.29166;stroke-linecap:square;stroke-linejoin:miter;stroke-miterlimit:4;stroke-dasharray:none;stroke-dashoffset:0;stroke-opacity:1;paint-order:markers fill stroke;color-rendering:auto;image-rendering:auto;shape-rendering:auto;text-rendering:auto;enable-background:accumulate;stop-color:#000000;stop-opacity:1;stroke:none;opacity:1" d="m 330.99595,158.38765 c 0,2.58315 -2.19877,4.67722 -4.91108,4.67722 -2.71231,0 -4.91108,-2.09407 -4.91108,-4.67722 0,-2.58316 2.19877,-4.67722 4.91108,-4.67722 2.71231,0 4.91108,2.09406 4.91108,4.67722 z"/><path style="color:#000000;font-style:normal;font-variant:normal;font-weight:normal;font-stretch:normal;font-size:medium;line-height:normal;font-family:sans-serif;font-variant-ligatures:normal;font-variant-position:normal;font-variant-caps:normal;font-variant-numeric:normal;font-variant-alternates:normal;font-variant-east-asian:normal;font-feature-settings:normal;font-variation-settings:normal;text-indent:0;text-align:start;text-decoration:none;text-decoration-line:none;text-decoration-style:solid;text-decoration-color:#000000;letter-spacing:normal;word-spacing:normal;text-transform:none;writing-mode:lr-tb;direction:ltr;text-orientation:mixed;dominant-baseline:auto;baseline-shift:baseline;text-anchor:start;white-space:normal;shape-padding:0;shape-margin:0;inline-size:0;clip-rule:nonzero;display:inline;overflow:visible;visibility:visible;isolation:auto;mix-blend-mode:normal;color-interpolation:sRGB;color-interpolation-filters:linearRGB;solid-color:#000000;solid-opacity:1;vector-effect:none;fill:#000000;fill-opacity:1;fill-rule:nonzero;stroke:none;stroke-linecap:square;stroke-linejoin:miter;stroke-miterlimit:4;stroke-dasharray:none;stroke-dashoffset:0;stroke-opacity:1;paint-order:markers fill stroke;color-rendering:auto;image-rendering:auto;shape-rendering:auto;text-rendering:auto;enable-background:accumulate;stop-color:#000000;stop-opacity:1;opacity:1" d="M 256.94531 47.132812 C 189.5197 47.132812 134.78906 101.86345 134.78906 169.28906 C 134.78906 236.71467 189.5197 291.44531 256.94531 291.44531 C 324.37092 291.44531 379.10156 236.71467 379.10156 169.28906 C 379.10156 101.86345 324.37092 47.132813 256.94531 47.132812 z M 256.94531 53.748047 C 320.79614 53.748047 372.48633 105.43824 372.48633 169.28906 C 372.48633 233.13989 320.79614 284.83008 256.94531 284.83008 C 193.09449 284.83008 141.4043 233.13989 141.4043 169.28906 C 141.4043 105.43824 193.09449 53.748047 256.94531 53.748047 z "/><path style="color:#000000;font-style:normal;font-variant:normal;font-weight:normal;font-stretch:normal;font-size:medium;line-height:normal;font-family:sans-serif;font-variant-ligatures:normal;font-variant-position:normal;font-variant-caps:normal;font-variant-numeric:normal;font-variant-alternates:normal;font-variant-east-asian:normal;font-feature-settings:normal;font-variation-settings:normal;text-indent:0;text-align:start;text-decoration:none;text-decoration-line:none;text-decoration-style:solid;text-decoration-color:#000000;letter-spacing:normal;word-spacing:normal;text-transform:none;writing-mode:lr-tb;direction:ltr;text-orientation:mixed;dominant-baseline:auto;baseline-shift:baseline;text-anchor:start;white-space:normal;shape-padding:0;shape-margin:0;inline-size:0;clip-rule:nonzero;display:inline;overflow:visible;visibility:visible;isolation:auto;mix-blend-mode:normal;color-interpolation:sRGB;color-interpolation-filters:linearRGB;solid-color:#000000;solid-opacity:1;vector-effect:none;fill:#000000;fill-opacity:1;fill-rule:nonzero;stroke:none;stroke-linecap:butt;stroke-linejoin:miter;stroke-miterlimit:4;stroke-dasharray:none;stroke-dashoffset:0;stroke-opacity:1;color-rendering:auto;image-rendering:auto;shape-rendering:auto;text-rendering:auto;enable-background:accumulate;stop-color:#000000;stop-opacity:1;opacity:1" d="M 394.94922 267.92969 C 393.23865 267.82565 391.53587 267.94499 389.91797 268.3125 C 386.68216 269.04751 383.69659 270.87048 382.14648 273.96094 C 379.10227 280.03254 376.173 286.07074 371.64453 288.54102 C 364.58164 292.39344 359.27196 297.08441 356.26562 302.61133 C 353.25929 308.13825 352.68706 314.49866 354.9375 321.07812 C 359.27463 333.75672 372.69056 341.57776 385.76367 342.51758 C 392.30023 342.98749 398.83491 341.723 404.16211 338.27539 C 409.48931 334.82778 413.51395 329.14963 414.92773 321.30469 C 416.69723 311.48832 414.30053 305.92479 412.22656 301.32812 C 410.1526 296.73146 408.40249 293.18983 410.40039 285.01953 L 410.39258 285.05469 C 411.44916 281.04255 410.52789 277.33994 408.46875 274.58594 C 406.40961 271.83193 403.33747 269.95272 400.03125 268.89258 C 398.37814 268.36251 396.65978 268.03372 394.94922 267.92969 z M 394.70898 271.90039 C 396.07997 271.9835 397.48417 272.24344 398.82031 272.67188 C 401.49259 273.52874 403.86082 275.05268 405.28906 276.96289 C 406.7173 278.8731 407.3311 281.0947 406.55469 284.04297 L 406.55078 284.06055 L 406.54492 284.07812 C 404.33682 293.10803 406.53334 298.35968 408.60938 302.96094 C 410.68541 307.5622 412.64399 311.60063 411.02148 320.60156 C 409.77727 327.50557 406.45528 332.06382 402.00586 334.94336 C 397.55644 337.8229 391.88432 338.97825 386.04688 338.55859 C 374.37199 337.71929 362.36623 330.53173 358.69336 319.79492 C 356.75179 314.11849 357.23754 309.13037 359.75195 304.50781 C 362.26637 299.88526 366.94082 295.62561 373.54492 292.02344 C 379.70646 288.66232 382.69557 281.71924 385.69336 275.74023 C 386.61626 273.90024 388.39231 272.72979 390.79688 272.18359 C 391.99916 271.9105 393.338 271.81729 394.70898 271.90039 z "/><g style="opacity:1;fill:#000000;fill-opacity:1"><path style="color:#000000;font-variant-ligatures:normal;font-variant-position:normal;font-variant-caps:normal;font-variant-numeric:normal;font-variant-alternates:normal;font-variant-east-asian:normal;font-feature-settings:normal;font-variation-settings:normal;text-indent:0;text-decoration-line:none;text-decoration-style:solid;text-decoration-color:#000000;text-transform:none;direction:ltr;text-orientation:mixed;dominant-baseline:auto;baseline-shift:baseline;white-space:normal;shape-padding:0;shape-margin:0;inline-size:0;isolation:auto;mix-blend-mode:normal;color-interpolation:sRGB;color-interpolation-filters:linearRGB;solid-color:#000000;solid-opacity:1;vector-effect:none;color-rendering:auto;image-rendering:auto;shape-rendering:auto;enable-background:accumulate;" d="m 369.81747,306.15548 c 2.814,5.425 -2.994,25.9861 -6.633,10.6721 -1.512,-6.3648 3.462,-16.7853 6.633,-10.6721 z" clip-rule="nonzero" display="inline" overflow="visible" visibility="visible" fill="#000000" fill-opacity="1" fill-rule="nonzero" stroke="none" stop-color="#000000" stop-opacity="1"/><path style="color:#000000;font-variant-ligatures:normal;font-variant-position:normal;font-variant-caps:normal;font-variant-numeric:normal;font-variant-alternates:normal;font-variant-east-asian:normal;font-feature-settings:normal;font-variation-settings:normal;text-indent:0;text-decoration-line:none;text-decoration-style:solid;text-decoration-color:#000000;text-transform:none;direction:ltr;text-orientation:mixed;dominant-baseline:auto;baseline-shift:baseline;white-space:normal;shape-padding:0;shape-margin:0;inline-size:0;isolation:auto;mix-blend-mode:normal;color-interpolation:sRGB;color-interpolation-filters:linearRGB;solid-color:#000000;solid-opacity:1;vector-effect:none;color-rendering:auto;image-rendering:auto;shape-rendering:auto;enable-background:accumulate;" d="M 366.91797 303.06445 C 365.37794 303.44002 364.40073 304.69317 363.58594 306.17383 C 361.95636 309.13515 361.02757 313.47509 361.89648 317.13281 C 362.36821 319.11796 362.87503 320.56603 363.47656 321.63672 C 364.07809 322.70741 364.85295 323.53776 365.96875 323.69336 C 367.08455 323.84896 368.01334 323.1971 368.63281 322.4668 C 369.25228 321.7365 369.72844 320.81713 370.15039 319.75781 C 370.9943 317.63917 371.5825 314.95359 371.79883 312.375 C 372.01515 309.79641 371.93861 307.37144 370.99219 305.54688 C 370.5279 304.6518 369.98947 303.95702 369.28711 303.49414 C 368.58475 303.03126 367.68798 302.87667 366.91797 303.06445 z M 367.54492 305.63477 C 367.66352 305.60584 367.66134 305.59063 367.83203 305.70312 C 368.00273 305.81562 368.31412 306.13045 368.64258 306.76367 C 369.10316 307.65161 369.35706 309.83046 369.16211 312.1543 C 368.96715 314.47813 368.40262 316.99379 367.69141 318.7793 C 367.3358 319.67205 366.93283 320.38144 366.61523 320.75586 C 366.29764 321.13028 366.23045 321.05978 366.33398 321.07422 C 366.43752 321.08866 366.18483 321.05473 365.7832 320.33984 C 365.38157 319.62496 364.90873 318.36484 364.4707 316.52148 C 363.82762 313.81441 364.63213 309.76104 365.9043 307.44922 C 366.54038 306.29331 367.30773 305.69261 367.54492 305.63477 z " clip-rule="nonzero" display="inline" overflow="visible" visibility="visible" fill="#000000" fill-opacity="1" fill-rule="nonzero" stroke="none" stop-color="#000000" stop-opacity="1"/></g><path style="color:#000000;font-style:normal;font-variant:normal;font-weight:normal;font-stretch:normal;font-size:medium;line-height:normal;font-family:sans-serif;font-variant-ligatures:normal;font-variant-position:normal;font-variant-caps:normal;font-variant-numeric:normal;font-variant-alternates:normal;font-variant-east-asian:normal;font-feature-settings:normal;font-variation-settings:normal;text-indent:0;text-align:start;text-decoration:none;text-decoration-line:none;text-decoration-style:solid;text-decoration-color:#000000;letter-spacing:normal;word-spacing:normal;text-transform:none;writing-mode:lr-tb;direction:ltr;text-orientation:mixed;dominant-baseline:auto;baseline-shift:baseline;text-anchor:start;white-space:normal;shape-padding:0;shape-margin:0;inline-size:0;clip-rule:nonzero;display:inline;overflow:visible;visibility:visible;isolation:auto;mix-blend-mode:normal;color-interpolation:sRGB;color-interpolation-filters:linearRGB;solid-color:#000000;solid-opacity:1;vector-effect:none;fill:#000000;fill-opacity:1;fill-rule:nonzero;stroke:none;stroke-linecap:round;stroke-linejoin:round;stroke-miterlimit:4;stroke-dasharray:none;stroke-dashoffset:0;stroke-opacity:1;color-rendering:auto;image-rendering:auto;shape-rendering:auto;text-rendering:auto;enable-background:accumulate;stop-color:#000000;stop-opacity:1;opacity:1" d="M 400.94922 248.86523 A 1.322915 1.322915 0 0 0 400.52539 248.95312 A 1.322915 1.322915 0 0 0 399.76758 250.66406 C 401.18065 254.33341 401.52634 258.40893 401.25977 261.89258 C 400.99319 265.37623 400.02774 268.322 399.2832 269.39844 A 1.322915 1.322915 0 0 0 399.61719 271.23828 A 1.322915 1.322915 0 0 0 401.45898 270.90234 C 402.75244 269.03228 403.60506 265.9022 403.89648 262.09375 C 404.18791 258.2853 403.83125 253.85444 402.23633 249.71289 A 1.322915 1.322915 0 0 0 400.94922 248.86523 z "/><path style="color:#000000;font-style:normal;font-variant:normal;font-weight:normal;font-stretch:normal;font-size:medium;line-height:normal;font-family:sans-serif;font-variant-ligatures:normal;font-variant-position:normal;font-variant-caps:normal;font-variant-numeric:normal;font-variant-alternates:normal;font-variant-east-asian:normal;font-feature-settings:normal;font-variation-settings:normal;text-indent:0;text-align:start;text-decoration:none;text-decoration-line:none;text-decoration-style:solid;text-decoration-color:#000000;letter-spacing:normal;word-spacing:normal;text-transform:none;writing-mode:lr-tb;direction:ltr;text-orientation:mixed;dominant-baseline:auto;baseline-shift:baseline;text-anchor:start;white-space:normal;shape-padding:0;shape-margin:0;inline-size:0;clip-rule:nonzero;display:inline;overflow:visible;visibility:visible;isolation:auto;mix-blend-mode:normal;color-interpolation:sRGB;color-interpolation-filters:linearRGB;solid-color:#000000;solid-opacity:1;vector-effect:none;fill:#000000;fill-opacity:1;fill-rule:nonzero;stroke:none;stroke-linecap:round;stroke-linejoin:round;stroke-miterlimit:4;stroke-dasharray:none;stroke-dashoffset:0;stroke-opacity:1;color-rendering:auto;image-rendering:auto;shape-rendering:auto;text-rendering:auto;enable-background:accumulate;stop-color:#000000;stop-opacity:1;opacity:1" d="M 254.55078 455.47852 C 251.94686 455.55514 249.84663 457.26203 248.20898 459.53906 C 246.57134 461.81609 245.16838 464.87541 243.80469 468.81445 C 241.07731 476.69255 238.58646 488.10691 236.22852 503.16797 A 2.6458349 2.6458349 0 0 0 238.43359 506.19141 A 2.6458349 2.6458349 0 0 0 241.45703 503.98828 C 243.78959 489.08939 246.27166 477.86161 248.80469 470.54492 C 250.0712 466.88658 251.36899 464.20964 252.50586 462.62891 C 253.64273 461.04817 254.39089 460.77688 254.70703 460.76758 C 255.02318 460.75828 255.8145 460.99536 257.07812 462.52734 C 258.34175 464.05933 259.84482 466.68845 261.39453 470.33008 C 264.49396 477.61333 267.84752 488.9259 271.34375 504.16992 A 2.6458349 2.6458349 0 0 0 274.51367 506.15625 A 2.6458349 2.6458349 0 0 0 276.50195 502.98633 C 272.96919 487.583 269.5939 476.08343 266.26367 468.25781 C 264.59856 464.34501 262.96336 461.34631 261.16016 459.16016 C 259.35695 456.974 257.1547 455.40189 254.55078 455.47852 z "/><path style="color:#000000;font-style:normal;font-variant:normal;font-weight:normal;font-stretch:normal;font-size:medium;line-height:normal;font-family:sans-serif;font-variant-ligatures:normal;font-variant-position:normal;font-variant-caps:normal;font-variant-numeric:normal;font-variant-alternates:normal;font-variant-east-asian:normal;font-feature-settings:normal;font-variation-settings:normal;text-indent:0;text-align:start;text-decoration:none;text-decoration-line:none;text-decoration-style:solid;text-decoration-color:#000000;letter-spacing:normal;word-spacing:normal;text-transform:none;writing-mode:lr-tb;direction:ltr;text-orientation:mixed;dominant-baseline:auto;baseline-shift:baseline;text-anchor:start;white-space:normal;shape-padding:0;shape-margin:0;inline-size:0;clip-rule:nonzero;display:inline;overflow:visible;visibility:visible;isolation:auto;mix-blend-mode:normal;color-interpolation:sRGB;color-interpolation-filters:linearRGB;solid-color:#000000;solid-opacity:1;vector-effect:none;fill:#000000;fill-opacity:1;fill-rule:nonzero;stroke:none;stroke-linecap:round;stroke-linejoin:round;stroke-miterlimit:4;stroke-dasharray:none;stroke-dashoffset:0;stroke-opacity:1;color-rendering:auto;image-rendering:auto;shape-rendering:auto;text-rendering:auto;enable-background:accumulate;stop-color:#000000;stop-opacity:1;opacity:1" d="M 255.17578 305.81836 A 2.6458349 2.6458349 0 0 0 252.51367 308.44727 L 251.6875 443.63281 A 2.6458349 2.6458349 0 0 0 254.31641 446.29492 A 2.6458349 2.6458349 0 0 0 256.97852 443.66602 L 257.80469 308.48047 A 2.6458349 2.6458349 0 0 0 255.17578 305.81836 z "/><path style="color:#000000;font-style:normal;font-variant:normal;font-weight:normal;font-stretch:normal;font-size:medium;line-height:normal;font-family:sans-serif;font-variant-ligatures:normal;font-variant-position:normal;font-variant-caps:normal;font-variant-numeric:normal;font-variant-alternates:normal;font-variant-east-asian:normal;font-feature-settings:normal;font-variation-settings:normal;text-indent:0;text-align:start;text-decoration:none;text-decoration-line:none;text-decoration-style:solid;text-decoration-color:#000000;letter-spacing:normal;word-spacing:normal;text-transform:none;writing-mode:lr-tb;direction:ltr;text-orientation:mixed;dominant-baseline:auto;baseline-shift:baseline;text-anchor:start;white-space:normal;shape-padding:0;shape-margin:0;inline-size:0;clip-rule:nonzero;display:inline;overflow:visible;visibility:visible;isolation:auto;mix-blend-mode:normal;color-interpolation:sRGB;color-interpolation-filters:linearRGB;solid-color:#000000;solid-opacity:1;vector-effect:none;fill:#000000;fill-opacity:1;fill-rule:nonzero;stroke:none;stroke-linecap:round;stroke-linejoin:round;stroke-miterlimit:4;stroke-dasharray:none;stroke-dashoffset:0;stroke-opacity:1;color-rendering:auto;image-rendering:auto;shape-rendering:auto;text-rendering:auto;enable-background:accumulate;stop-color:#000000;stop-opacity:1;opacity:1" d="M 278.37891 306.5918 A 2.6458349 2.6458349 0 0 0 276.30469 307.58594 A 2.6458349 2.6458349 0 0 0 276.71875 311.30469 C 308.3291 336.58224 348.37109 343.16406 348.37109 343.16406 A 2.6458349 2.6458349 0 0 0 351.41602 340.98828 A 2.6458349 2.6458349 0 0 0 349.24219 337.94531 C 349.24219 337.94531 310.27509 331.36292 280.02344 307.17188 A 2.6458349 2.6458349 0 0 0 278.37891 306.5918 z "/></g><text x="0" y="544.16668" fill="#000000" font-size="5px" font-weight="bold" font-family="'Helvetica Neue', Helvetica, Arial-Unicode, Arial, Sans-serif">Created by Jevgenijs Kudinovs</text><text x="0" y="549.16668" fill="#000000" font-size="5px" font-weight="bold" font-family="'Helvetica Neue', Helvetica, Arial-Unicode, Arial, Sans-serif">from the Noun Project</text></svg>