<svg xmlns:dc="http://purl.org/dc/elements/1.1/" xmlns:cc="http://creativecommons.org/ns#" xmlns:rdf="http://www.w3.org/1999/02/22-rdf-syntax-ns#" xmlns:svg="http://www.w3.org/2000/svg" xmlns="http://www.w3.org/2000/svg" xmlns:sodipodi="http://sodipodi.sourceforge.net/DTD/sodipodi-0.dtd" xmlns:inkscape="http://www.inkscape.org/namespaces/inkscape" viewBox="0 0 529.16666 661.4583500000001" version="1.1" x="0px" y="0px"><g style="" display="inline"><path style="color:#000000;font-style:normal;font-variant:normal;font-weight:normal;font-stretch:normal;font-size:medium;line-height:normal;font-family:sans-serif;font-variant-ligatures:normal;font-variant-position:normal;font-variant-caps:normal;font-variant-numeric:normal;font-variant-alternates:normal;font-variant-east-asian:normal;font-feature-settings:normal;font-variation-settings:normal;text-indent:0;text-align:start;text-decoration:none;text-decoration-line:none;text-decoration-style:solid;text-decoration-color:#000000;letter-spacing:normal;word-spacing:normal;text-transform:none;writing-mode:lr-tb;direction:ltr;text-orientation:mixed;dominant-baseline:auto;baseline-shift:baseline;text-anchor:start;white-space:normal;shape-padding:0;shape-margin:0;inline-size:0;clip-rule:nonzero;display:inline;overflow:visible;visibility:visible;isolation:auto;mix-blend-mode:normal;color-interpolation:sRGB;color-interpolation-filters:linearRGB;solid-color:#000000;solid-opacity:1;vector-effect:none;fill:#000000;fill-opacity:1;fill-rule:nonzero;stroke:none;stroke-linecap:round;stroke-linejoin:round;stroke-miterlimit:4;stroke-dasharray:none;stroke-dashoffset:0;stroke-opacity:1;color-rendering:auto;image-rendering:auto;shape-rendering:auto;text-rendering:auto;enable-background:accumulate;stop-color:#000000;stop-opacity:1;opacity:1" d="M 255.6543 461.80469 C 254.39604 461.8391 253.1288 462.10821 251.91797 462.63086 C 249.49631 463.67615 247.30862 465.59361 245.20312 468.3125 C 240.99214 473.75028 236.96962 482.54209 232.73633 495.85352 A 2.6458349 2.6458349 0 0 0 234.45703 499.17773 A 2.6458349 2.6458349 0 0 0 237.7793 497.45703 C 241.91901 484.43986 245.89504 476.06165 249.38672 471.55273 C 251.13256 469.29828 252.72386 468.04782 254.01562 467.49023 C 255.30739 466.93265 256.30888 466.92735 257.55664 467.37305 C 260.05217 468.26445 263.39936 471.68736 266.6875 477.08203 C 269.97564 482.4767 273.29446 489.67036 276.5918 497.61328 A 2.6458349 2.6458349 0 0 0 280.05078 499.04297 A 2.6458349 2.6458349 0 0 0 281.47852 495.58594 C 278.13435 487.53021 274.75384 480.15039 271.20508 474.32812 C 267.65631 468.50586 264.03103 464.06771 259.33594 462.39062 C 258.16216 461.97135 256.91256 461.77028 255.6543 461.80469 z "/><path style="color:#000000;font-style:normal;font-variant:normal;font-weight:normal;font-stretch:normal;font-size:medium;line-height:normal;font-family:sans-serif;font-variant-ligatures:normal;font-variant-position:normal;font-variant-caps:normal;font-variant-numeric:normal;font-variant-alternates:normal;font-variant-east-asian:normal;font-feature-settings:normal;font-variation-settings:normal;text-indent:0;text-align:start;text-decoration:none;text-decoration-line:none;text-decoration-style:solid;text-decoration-color:#000000;letter-spacing:normal;word-spacing:normal;text-transform:none;writing-mode:lr-tb;direction:ltr;text-orientation:mixed;dominant-baseline:auto;baseline-shift:baseline;text-anchor:start;white-space:normal;shape-padding:0;shape-margin:0;inline-size:0;clip-rule:nonzero;display:inline;overflow:visible;visibility:visible;isolation:auto;mix-blend-mode:normal;color-interpolation:sRGB;color-interpolation-filters:linearRGB;solid-color:#000000;solid-opacity:1;vector-effect:none;fill:#000000;fill-opacity:1;fill-rule:nonzero;stroke:none;stroke-linecap:round;stroke-linejoin:round;stroke-miterlimit:4;stroke-dasharray:none;stroke-dashoffset:0;stroke-opacity:1;color-rendering:auto;image-rendering:auto;shape-rendering:auto;text-rendering:auto;enable-background:accumulate;stop-color:#000000;stop-opacity:1;opacity:1" d="M 230.82812 312.81055 A 2.6458349 2.6458349 0 0 0 229.24609 313.33008 C 219.15977 320.79677 212.01626 326.45644 207.39062 331.44727 C 202.76499 336.43809 200.47633 341.20631 201.4082 346.05859 C 202.34008 350.91087 205.97452 354.98087 211.36719 359.76172 C 216.75985 364.54256 224.12779 370.07021 233.29883 377.36328 A 2.6458349 2.6458349 0 0 0 237.01562 376.93945 A 2.6458349 2.6458349 0 0 0 236.5918 373.22266 C 227.36134 365.88233 219.98926 360.33503 214.87695 355.80273 C 209.76465 351.27044 207.12947 347.78902 206.60547 345.06055 C 206.08147 342.33208 207.15134 339.49034 211.27148 335.04492 C 215.39163 330.59951 222.38086 324.99689 232.39453 317.58398 A 2.6458349 2.6458349 0 0 0 232.94727 313.88281 A 2.6458349 2.6458349 0 0 0 230.82812 312.81055 z "/><path style="color:#000000;font-style:normal;font-variant:normal;font-weight:normal;font-stretch:normal;font-size:medium;line-height:normal;font-family:sans-serif;font-variant-ligatures:normal;font-variant-position:normal;font-variant-caps:normal;font-variant-numeric:normal;font-variant-alternates:normal;font-variant-east-asian:normal;font-feature-settings:normal;font-variation-settings:normal;text-indent:0;text-align:start;text-decoration:none;text-decoration-line:none;text-decoration-style:solid;text-decoration-color:#000000;letter-spacing:normal;word-spacing:normal;text-transform:none;writing-mode:lr-tb;direction:ltr;text-orientation:mixed;dominant-baseline:auto;baseline-shift:baseline;text-anchor:start;white-space:normal;shape-padding:0;shape-margin:0;inline-size:0;clip-rule:nonzero;display:inline;overflow:visible;visibility:visible;isolation:auto;mix-blend-mode:normal;color-interpolation:sRGB;color-interpolation-filters:linearRGB;solid-color:#000000;solid-opacity:1;vector-effect:none;fill:#000000;fill-opacity:1;fill-rule:nonzero;stroke:none;stroke-linecap:round;stroke-linejoin:round;stroke-miterlimit:4;stroke-dasharray:none;stroke-dashoffset:0;stroke-opacity:1;color-rendering:auto;image-rendering:auto;shape-rendering:auto;text-rendering:auto;enable-background:accumulate;stop-color:#000000;stop-opacity:1;opacity:1" d="M 257.33008 388.85742 A 2.6458349 2.6458349 0 0 0 254.78125 391.46289 L 253.95508 447.1875 A 2.6458349 2.6458349 0 0 0 256.56055 449.87305 A 2.6458349 2.6458349 0 0 0 259.24609 447.26562 L 260.07227 391.54102 A 2.6458349 2.6458349 0 0 0 257.4668 388.85742 A 2.6458349 2.6458349 0 0 0 257.33008 388.85742 z "/><path style="color:#000000;font-style:normal;font-variant:normal;font-weight:normal;font-stretch:normal;font-size:medium;line-height:normal;font-family:sans-serif;font-variant-ligatures:normal;font-variant-position:normal;font-variant-caps:normal;font-variant-numeric:normal;font-variant-alternates:normal;font-variant-east-asian:normal;font-feature-settings:normal;font-variation-settings:normal;text-indent:0;text-align:start;text-decoration:none;text-decoration-line:none;text-decoration-style:solid;text-decoration-color:#000000;letter-spacing:normal;word-spacing:normal;text-transform:none;writing-mode:lr-tb;direction:ltr;text-orientation:mixed;dominant-baseline:auto;baseline-shift:baseline;text-anchor:start;white-space:normal;shape-padding:0;shape-margin:0;inline-size:0;clip-rule:nonzero;display:inline;overflow:visible;visibility:visible;isolation:auto;mix-blend-mode:normal;color-interpolation:sRGB;color-interpolation-filters:linearRGB;solid-color:#000000;solid-opacity:1;vector-effect:none;fill:#000000;fill-opacity:1;fill-rule:nonzero;stroke-width:5.29166;stroke-linecap:square;stroke-linejoin:miter;stroke-miterlimit:4;stroke-dasharray:none;stroke-dashoffset:0;stroke-opacity:1;paint-order:markers fill stroke;color-rendering:auto;image-rendering:auto;shape-rendering:auto;text-rendering:auto;enable-background:accumulate;stop-color:#000000;stop-opacity:1;stroke:none;opacity:1" d="m 244.23682,168.32983 c 0,2.58316 -2.19876,4.67722 -4.91108,4.67722 -2.71231,0 -4.91107,-2.09406 -4.91107,-4.67722 0,-2.58315 2.19876,-4.67721 4.91107,-4.67721 2.71232,0 4.91108,2.09406 4.91108,4.67721 z"/><path style="color:#000000;font-style:normal;font-variant:normal;font-weight:normal;font-stretch:normal;font-size:medium;line-height:normal;font-family:sans-serif;font-variant-ligatures:normal;font-variant-position:normal;font-variant-caps:normal;font-variant-numeric:normal;font-variant-alternates:normal;font-variant-east-asian:normal;font-feature-settings:normal;font-variation-settings:normal;text-indent:0;text-align:start;text-decoration:none;text-decoration-line:none;text-decoration-style:solid;text-decoration-color:#000000;letter-spacing:normal;word-spacing:normal;text-transform:none;writing-mode:lr-tb;direction:ltr;text-orientation:mixed;dominant-baseline:auto;baseline-shift:baseline;text-anchor:start;white-space:normal;shape-padding:0;shape-margin:0;inline-size:0;clip-rule:nonzero;display:inline;overflow:visible;visibility:visible;isolation:auto;mix-blend-mode:normal;color-interpolation:sRGB;color-interpolation-filters:linearRGB;solid-color:#000000;solid-opacity:1;vector-effect:none;fill:#000000;fill-opacity:1;fill-rule:nonzero;stroke-width:5.29166;stroke-linecap:square;stroke-linejoin:miter;stroke-miterlimit:4;stroke-dasharray:none;stroke-dashoffset:0;stroke-opacity:1;paint-order:markers fill stroke;color-rendering:auto;image-rendering:auto;shape-rendering:auto;text-rendering:auto;enable-background:accumulate;stop-color:#000000;stop-opacity:1;stroke:none;opacity:1" d="m 340.14698,168.33472 c 0,2.58315 -2.19877,4.67721 -4.91108,4.67721 -2.71231,0 -4.91108,-2.09406 -4.91108,-4.67721 0,-2.58316 2.19877,-4.67722 4.91108,-4.67722 2.71231,0 4.91108,2.09406 4.91108,4.67722 z"/><path style="color:#000000;font-style:normal;font-variant:normal;font-weight:normal;font-stretch:normal;font-size:medium;line-height:normal;font-family:sans-serif;font-variant-ligatures:normal;font-variant-position:normal;font-variant-caps:normal;font-variant-numeric:normal;font-variant-alternates:normal;font-variant-east-asian:normal;font-feature-settings:normal;font-variation-settings:normal;text-indent:0;text-align:start;text-decoration:none;text-decoration-line:none;text-decoration-style:solid;text-decoration-color:#000000;letter-spacing:normal;word-spacing:normal;text-transform:none;writing-mode:lr-tb;direction:ltr;text-orientation:mixed;dominant-baseline:auto;baseline-shift:baseline;text-anchor:start;white-space:normal;shape-padding:0;shape-margin:0;inline-size:0;clip-rule:nonzero;display:inline;overflow:visible;visibility:visible;isolation:auto;mix-blend-mode:normal;color-interpolation:sRGB;color-interpolation-filters:linearRGB;solid-color:#000000;solid-opacity:1;vector-effect:none;fill:#000000;fill-opacity:1;fill-rule:nonzero;stroke:none;stroke-linecap:square;stroke-linejoin:miter;stroke-miterlimit:4;stroke-dasharray:none;stroke-dashoffset:0;stroke-opacity:1;paint-order:markers fill stroke;color-rendering:auto;image-rendering:auto;shape-rendering:auto;text-rendering:auto;enable-background:accumulate;stop-color:#000000;stop-opacity:1;opacity:1" d="M 266.0957 57.080078 C 198.6701 57.080078 143.93945 111.80877 143.93945 179.23438 C 143.93945 246.65998 198.6701 301.39062 266.0957 301.39062 C 333.52131 301.39062 388.25195 246.65998 388.25195 179.23438 C 388.25195 111.80877 333.52131 57.080078 266.0957 57.080078 z M 266.0957 63.693359 C 329.94653 63.693359 381.63672 115.38355 381.63672 179.23438 C 381.63672 243.0852 329.94653 294.77539 266.0957 294.77539 C 202.24488 294.77539 150.55469 243.0852 150.55469 179.23438 C 150.55469 115.38355 202.24488 63.693359 266.0957 63.693359 z "/><path style="color:#000000;font-style:normal;font-variant:normal;font-weight:normal;font-stretch:normal;font-size:medium;line-height:normal;font-family:sans-serif;font-variant-ligatures:normal;font-variant-position:normal;font-variant-caps:normal;font-variant-numeric:normal;font-variant-alternates:normal;font-variant-east-asian:normal;font-feature-settings:normal;font-variation-settings:normal;text-indent:0;text-align:start;text-decoration:none;text-decoration-line:none;text-decoration-style:solid;text-decoration-color:#000000;letter-spacing:normal;word-spacing:normal;text-transform:none;writing-mode:lr-tb;direction:ltr;text-orientation:mixed;dominant-baseline:auto;baseline-shift:baseline;text-anchor:start;white-space:normal;shape-padding:0;shape-margin:0;inline-size:0;clip-rule:nonzero;display:inline;overflow:visible;visibility:visible;isolation:auto;mix-blend-mode:normal;color-interpolation:sRGB;color-interpolation-filters:linearRGB;solid-color:#000000;solid-opacity:1;vector-effect:none;fill:#000000;fill-opacity:1;fill-rule:nonzero;stroke:none;stroke-linecap:round;stroke-linejoin:round;stroke-miterlimit:4;stroke-dasharray:none;stroke-dashoffset:0;stroke-opacity:1;color-rendering:auto;image-rendering:auto;shape-rendering:auto;text-rendering:auto;enable-background:accumulate;stop-color:#000000;stop-opacity:1;opacity:1" d="M 245.79297 315.52734 A 1.984375 1.984375 0 0 0 243.89062 316.91992 C 237.88055 336.16132 239.22964 351.94282 245.58594 363.98438 C 251.94223 376.02593 263.20369 384.19799 276.51172 388.60156 C 303.12778 397.40871 338.14714 391.50757 361.32422 371.30664 A 1.984375 1.984375 0 0 0 361.51562 368.50781 A 1.984375 1.984375 0 0 0 358.7168 368.31641 C 336.75688 387.45647 302.86875 393.14309 277.75781 384.83398 C 265.20234 380.67943 254.89566 373.11846 249.0957 362.13086 C 243.29575 351.14326 241.90226 336.60011 247.67969 318.10352 A 1.984375 1.984375 0 0 0 246.37695 315.61719 A 1.984375 1.984375 0 0 0 245.79297 315.52734 z "/><path style="color:#000000;font-style:normal;font-variant:normal;font-weight:normal;font-stretch:normal;font-size:medium;line-height:normal;font-family:sans-serif;font-variant-ligatures:normal;font-variant-position:normal;font-variant-caps:normal;font-variant-numeric:normal;font-variant-alternates:normal;font-variant-east-asian:normal;font-feature-settings:normal;font-variation-settings:normal;text-indent:0;text-align:start;text-decoration:none;text-decoration-line:none;text-decoration-style:solid;text-decoration-color:#000000;letter-spacing:normal;word-spacing:normal;text-transform:none;writing-mode:lr-tb;direction:ltr;text-orientation:mixed;dominant-baseline:auto;baseline-shift:baseline;text-anchor:start;white-space:normal;shape-padding:0;shape-margin:0;inline-size:0;clip-rule:nonzero;display:inline;overflow:visible;visibility:visible;isolation:auto;mix-blend-mode:normal;color-interpolation:sRGB;color-interpolation-filters:linearRGB;solid-color:#000000;solid-opacity:1;vector-effect:none;fill:#000000;fill-opacity:1;fill-rule:nonzero;stroke:none;stroke-linecap:round;stroke-linejoin:round;stroke-miterlimit:4;stroke-dasharray:none;stroke-dashoffset:0;stroke-opacity:1;color-rendering:auto;image-rendering:auto;shape-rendering:auto;text-rendering:auto;enable-background:accumulate;stop-color:#000000;stop-opacity:1;opacity:1" d="M 379.78906 294.50391 A 1.9845734 1.9845734 0 0 0 379.08398 294.625 C 335.82204 310.50951 290.93689 313.45197 245.73828 315.38281 A 1.9845734 1.9845734 0 0 0 243.83984 317.37109 C 243.92036 342.31569 254.37148 360.67824 269.54492 372.11914 C 284.71837 383.56004 304.50252 388.16359 323.40039 386.1875 C 342.29826 384.21141 360.39028 375.62762 372.02344 360.45703 C 383.6566 345.28645 388.66166 323.58209 381.69336 296.00195 A 1.9845734 1.9845734 0 0 0 379.78906 294.50391 z M 378.27539 299.07031 C 384.22737 324.68344 379.44396 344.26018 368.875 358.04297 C 358.01275 372.20822 340.96404 380.36056 322.98828 382.24023 C 305.01252 384.1199 286.18976 379.69896 271.93555 368.95117 C 258.06989 358.49636 248.49861 342.07945 247.91211 319.24023 C 291.75869 317.33621 335.65721 314.28433 378.27539 299.07031 z "/><path style="color:#000000;font-style:normal;font-variant:normal;font-weight:normal;font-stretch:normal;font-size:medium;line-height:normal;font-family:sans-serif;font-variant-ligatures:normal;font-variant-position:normal;font-variant-caps:normal;font-variant-numeric:normal;font-variant-alternates:normal;font-variant-east-asian:normal;font-feature-settings:normal;font-variation-settings:normal;text-indent:0;text-align:start;text-decoration:none;text-decoration-line:none;text-decoration-style:solid;text-decoration-color:#000000;letter-spacing:normal;word-spacing:normal;text-transform:none;writing-mode:lr-tb;direction:ltr;text-orientation:mixed;dominant-baseline:auto;baseline-shift:baseline;text-anchor:start;white-space:normal;shape-padding:0;shape-margin:0;inline-size:0;clip-rule:nonzero;display:inline;overflow:visible;visibility:visible;isolation:auto;mix-blend-mode:normal;color-interpolation:sRGB;color-interpolation-filters:linearRGB;solid-color:#000000;solid-opacity:1;vector-effect:none;fill:#000000;fill-opacity:1;fill-rule:nonzero;stroke:none;stroke-linecap:round;stroke-linejoin:round;stroke-miterlimit:15.1183;stroke-dasharray:none;stroke-dashoffset:0;stroke-opacity:1;color-rendering:auto;image-rendering:auto;shape-rendering:auto;text-rendering:auto;enable-background:accumulate;stop-color:#000000;stop-opacity:1;opacity:1" d="M 361.84766 300.63867 A 1.984375 1.984375 0 0 0 359.95703 302.04883 C 355.13615 317.97385 336.96863 328.35895 317.28516 331.1582 C 297.60266 333.95648 276.9222 329.04234 267.50391 315.91211 A 1.984375 1.984375 0 0 0 264.73438 315.45703 A 1.984375 1.984375 0 0 0 264.2793 318.22656 C 274.997 333.16833 297.15225 338.02962 317.84375 335.08789 C 338.53628 332.14514 358.28474 321.2722 363.75586 303.19922 A 1.984375 1.984375 0 0 0 362.43164 300.72461 A 1.984375 1.984375 0 0 0 361.84766 300.63867 z "/><path style="color:#000000;font-style:normal;font-variant:normal;font-weight:normal;font-stretch:normal;font-size:medium;line-height:normal;font-family:sans-serif;font-variant-ligatures:normal;font-variant-position:normal;font-variant-caps:normal;font-variant-numeric:normal;font-variant-alternates:normal;font-variant-east-asian:normal;font-feature-settings:normal;font-variation-settings:normal;text-indent:0;text-align:start;text-decoration:none;text-decoration-line:none;text-decoration-style:solid;text-decoration-color:#000000;letter-spacing:normal;word-spacing:normal;text-transform:none;writing-mode:lr-tb;direction:ltr;text-orientation:mixed;dominant-baseline:auto;baseline-shift:baseline;text-anchor:start;white-space:normal;shape-padding:0;shape-margin:0;inline-size:0;clip-rule:nonzero;display:inline;overflow:visible;visibility:visible;isolation:auto;mix-blend-mode:normal;color-interpolation:sRGB;color-interpolation-filters:linearRGB;solid-color:#000000;solid-opacity:1;vector-effect:none;fill:#000000;fill-opacity:1;fill-rule:nonzero;stroke:none;stroke-linecap:round;stroke-linejoin:round;stroke-miterlimit:15.1183;stroke-dasharray:none;stroke-dashoffset:0;stroke-opacity:1;paint-order:stroke fill markers;color-rendering:auto;image-rendering:auto;shape-rendering:auto;text-rendering:auto;enable-background:accumulate;stop-color:#000000;stop-opacity:1;opacity:1" d="M 271.57422 334.71094 A 1.3230472 1.3230472 0 0 0 271.28516 334.74414 A 1.3230472 1.3230472 0 0 0 271.19141 334.76758 A 1.3230472 1.3230472 0 0 0 270.84375 334.93164 A 1.3230472 1.3230472 0 0 0 270.76367 334.98828 A 1.3230472 1.3230472 0 0 0 270.55664 335.18945 A 1.3230472 1.3230472 0 0 0 270.39648 335.42969 A 1.3230472 1.3230472 0 0 0 270.35547 335.51758 A 1.3230472 1.3230472 0 0 0 270.33398 335.57031 L 266.29102 346.85352 A 1.3230472 1.3230472 0 0 0 266.26172 346.94531 A 1.3230472 1.3230472 0 0 0 266.24219 347.03906 A 1.3230472 1.3230472 0 0 0 266.2207 347.32812 A 1.3230472 1.3230472 0 0 0 266.22656 347.42578 A 1.3230472 1.3230472 0 0 0 266.36523 347.88672 A 1.3230472 1.3230472 0 0 0 266.52539 348.12695 A 1.3230472 1.3230472 0 0 0 266.73242 348.32812 A 1.3230472 1.3230472 0 0 0 266.81055 348.38477 A 1.3230472 1.3230472 0 0 0 267.06836 348.51758 A 1.3230472 1.3230472 0 0 0 267.25391 348.57227 A 1.3230472 1.3230472 0 0 0 267.44531 348.60156 A 1.3230472 1.3230472 0 0 0 267.63867 348.60156 A 1.3230472 1.3230472 0 0 0 268.78125 347.74609 L 272.82422 336.46289 A 1.3230472 1.3230472 0 0 0 272.875 336.27734 A 1.3230472 1.3230472 0 0 0 272.85352 335.70117 A 1.3230472 1.3230472 0 0 0 271.57422 334.71094 z "/><path style="color:#000000;font-style:normal;font-variant:normal;font-weight:normal;font-stretch:normal;font-size:medium;line-height:normal;font-family:sans-serif;font-variant-ligatures:normal;font-variant-position:normal;font-variant-caps:normal;font-variant-numeric:normal;font-variant-alternates:normal;font-variant-east-asian:normal;font-feature-settings:normal;font-variation-settings:normal;text-indent:0;text-align:start;text-decoration:none;text-decoration-line:none;text-decoration-style:solid;text-decoration-color:#000000;letter-spacing:normal;word-spacing:normal;text-transform:none;writing-mode:lr-tb;direction:ltr;text-orientation:mixed;dominant-baseline:auto;baseline-shift:baseline;text-anchor:start;white-space:normal;shape-padding:0;shape-margin:0;inline-size:0;clip-rule:nonzero;display:inline;overflow:visible;visibility:visible;isolation:auto;mix-blend-mode:normal;color-interpolation:sRGB;color-interpolation-filters:linearRGB;solid-color:#000000;solid-opacity:1;vector-effect:none;fill:#000000;fill-opacity:1;fill-rule:nonzero;stroke:none;stroke-linecap:round;stroke-linejoin:round;stroke-miterlimit:15.1183;stroke-dasharray:none;stroke-dashoffset:0;stroke-opacity:1;paint-order:stroke fill markers;color-rendering:auto;image-rendering:auto;shape-rendering:auto;text-rendering:auto;enable-background:accumulate;stop-color:#000000;stop-opacity:1;opacity:1" d="M 295.55078 344.61719 A 1.3230472 1.3230472 0 0 0 295.35742 344.625 A 1.3230472 1.3230472 0 0 0 295.26172 344.64062 A 1.3230472 1.3230472 0 0 0 295.16797 344.66211 A 1.3230472 1.3230472 0 0 0 295.07422 344.68945 A 1.3230472 1.3230472 0 0 0 294.98438 344.72461 A 1.3230472 1.3230472 0 0 0 294.89648 344.76562 A 1.3230472 1.3230472 0 0 0 294.8125 344.8125 A 1.3230472 1.3230472 0 0 0 294.73242 344.86719 A 1.3230472 1.3230472 0 0 0 294.65625 344.92578 A 1.3230472 1.3230472 0 0 0 294.51758 345.06055 A 1.3230472 1.3230472 0 0 0 294.45703 345.13477 A 1.3230472 1.3230472 0 0 0 294.26953 345.47266 A 1.3230472 1.3230472 0 0 0 294.23828 345.56445 A 1.3230472 1.3230472 0 0 0 294.21289 345.6582 A 1.3230472 1.3230472 0 0 0 294.19727 345.75195 A 1.3230472 1.3230472 0 0 0 294.18945 345.80859 L 293.16797 357.75 A 1.3230472 1.3230472 0 0 0 293.16602 357.84766 A 1.3230472 1.3230472 0 0 0 293.16992 357.94336 A 1.3230472 1.3230472 0 0 0 293.19727 358.13477 A 1.3230472 1.3230472 0 0 0 293.22266 358.22852 A 1.3230472 1.3230472 0 0 0 293.25391 358.32031 A 1.3230472 1.3230472 0 0 0 293.33594 358.49414 A 1.3230472 1.3230472 0 0 0 293.50586 358.73047 A 1.3230472 1.3230472 0 0 0 293.57227 358.79883 A 1.3230472 1.3230472 0 0 0 293.7207 358.92188 A 1.3230472 1.3230472 0 0 0 293.80273 358.97656 A 1.3230472 1.3230472 0 0 0 293.88672 359.02344 A 1.3230472 1.3230472 0 0 0 294.06445 359.09766 A 1.3230472 1.3230472 0 0 0 294.15625 359.125 A 1.3230472 1.3230472 0 0 0 294.25195 359.14648 A 1.3230472 1.3230472 0 0 0 294.44336 359.16797 A 1.3230472 1.3230472 0 0 0 294.54102 359.16602 A 1.3230472 1.3230472 0 0 0 294.63672 359.16016 A 1.3230472 1.3230472 0 0 0 294.91992 359.0957 A 1.3230472 1.3230472 0 0 0 295.18164 358.97266 A 1.3230472 1.3230472 0 0 0 295.33789 358.85938 A 1.3230472 1.3230472 0 0 0 295.47656 358.72461 A 1.3230472 1.3230472 0 0 0 295.59375 358.57031 A 1.3230472 1.3230472 0 0 0 295.64453 358.48828 A 1.3230472 1.3230472 0 0 0 295.6875 358.40234 A 1.3230472 1.3230472 0 0 0 295.72656 358.3125 A 1.3230472 1.3230472 0 0 0 295.75586 358.2207 A 1.3230472 1.3230472 0 0 0 295.80469 357.97656 L 296.82617 346.03516 A 1.3230472 1.3230472 0 0 0 296.82617 345.8418 A 1.3230472 1.3230472 0 0 0 296.81445 345.74414 A 1.3230472 1.3230472 0 0 0 296.79688 345.65039 A 1.3230472 1.3230472 0 0 0 296.74023 345.46484 A 1.3230472 1.3230472 0 0 0 296.6582 345.29102 A 1.3230472 1.3230472 0 0 0 296.55078 345.12891 A 1.3230472 1.3230472 0 0 0 296.27344 344.86133 A 1.3230472 1.3230472 0 0 0 296.19336 344.80859 A 1.3230472 1.3230472 0 0 0 296.10742 344.76172 A 1.3230472 1.3230472 0 0 0 296.01953 344.7207 A 1.3230472 1.3230472 0 0 0 295.83789 344.66016 A 1.3230472 1.3230472 0 0 0 295.74219 344.63867 A 1.3230472 1.3230472 0 0 0 295.64648 344.625 A 1.3230472 1.3230472 0 0 0 295.55078 344.61719 z "/><path style="color:#000000;font-style:normal;font-variant:normal;font-weight:normal;font-stretch:normal;font-size:medium;line-height:normal;font-family:sans-serif;font-variant-ligatures:normal;font-variant-position:normal;font-variant-caps:normal;font-variant-numeric:normal;font-variant-alternates:normal;font-variant-east-asian:normal;font-feature-settings:normal;font-variation-settings:normal;text-indent:0;text-align:start;text-decoration:none;text-decoration-line:none;text-decoration-style:solid;text-decoration-color:#000000;letter-spacing:normal;word-spacing:normal;text-transform:none;writing-mode:lr-tb;direction:ltr;text-orientation:mixed;dominant-baseline:auto;baseline-shift:baseline;text-anchor:start;white-space:normal;shape-padding:0;shape-margin:0;inline-size:0;clip-rule:nonzero;display:inline;overflow:visible;visibility:visible;isolation:auto;mix-blend-mode:normal;color-interpolation:sRGB;color-interpolation-filters:linearRGB;solid-color:#000000;solid-opacity:1;vector-effect:none;fill:#000000;fill-opacity:1;fill-rule:nonzero;stroke:none;stroke-linecap:round;stroke-linejoin:round;stroke-miterlimit:15.1183;stroke-dasharray:none;stroke-dashoffset:0;stroke-opacity:1;paint-order:stroke fill markers;color-rendering:auto;image-rendering:auto;shape-rendering:auto;text-rendering:auto;enable-background:accumulate;stop-color:#000000;stop-opacity:1;opacity:1" d="M 323.15039 344.46875 A 1.3230472 1.3230472 0 0 0 323.05469 344.4707 A 1.3230472 1.3230472 0 0 0 322.86328 344.5 A 1.3230472 1.3230472 0 0 0 322.76953 344.52344 A 1.3230472 1.3230472 0 0 0 322.58984 344.5918 A 1.3230472 1.3230472 0 0 0 322.13281 344.94336 A 1.3230472 1.3230472 0 0 0 322.07422 345.01953 A 1.3230472 1.3230472 0 0 0 322.01953 345.09961 A 1.3230472 1.3230472 0 0 0 321.89648 345.36328 A 1.3230472 1.3230472 0 0 0 321.84766 345.54883 A 1.3230472 1.3230472 0 0 0 321.83398 345.64453 A 1.3230472 1.3230472 0 0 0 321.83008 345.89453 L 322.93359 357.82812 A 1.3230472 1.3230472 0 0 0 322.94727 357.92383 A 1.3230472 1.3230472 0 0 0 322.99609 358.11133 A 1.3230472 1.3230472 0 0 0 323.07227 358.28906 A 1.3230472 1.3230472 0 0 0 323.17188 358.45508 A 1.3230472 1.3230472 0 0 0 323.29492 358.60352 A 1.3230472 1.3230472 0 0 0 323.36523 358.67188 A 1.3230472 1.3230472 0 0 0 323.51758 358.78906 A 1.3230472 1.3230472 0 0 0 323.59961 358.83984 A 1.3230472 1.3230472 0 0 0 324.24609 359.01172 A 1.3230472 1.3230472 0 0 0 324.7207 358.92383 A 1.3230472 1.3230472 0 0 0 324.89453 358.84375 A 1.3230472 1.3230472 0 0 0 325.05664 358.73633 A 1.3230472 1.3230472 0 0 0 325.13086 358.67578 A 1.3230472 1.3230472 0 0 0 325.26562 358.53516 A 1.3230472 1.3230472 0 0 0 325.37891 358.37891 A 1.3230472 1.3230472 0 0 0 325.42578 358.29492 A 1.3230472 1.3230472 0 0 0 325.5293 358.02539 A 1.3230472 1.3230472 0 0 0 325.55078 357.92969 A 1.3230472 1.3230472 0 0 0 325.57227 357.64062 A 1.3230472 1.3230472 0 0 0 325.56836 357.58398 L 324.46484 345.65039 A 1.3230472 1.3230472 0 0 0 324.44922 345.55469 A 1.3230472 1.3230472 0 0 0 324.42969 345.46094 A 1.3230472 1.3230472 0 0 0 324.22656 345.02539 A 1.3230472 1.3230472 0 0 0 324.16797 344.94727 A 1.3230472 1.3230472 0 0 0 323.88086 344.68945 A 1.3230472 1.3230472 0 0 0 323.79883 344.63867 A 1.3230472 1.3230472 0 0 0 323.625 344.55664 A 1.3230472 1.3230472 0 0 0 323.5332 344.52539 A 1.3230472 1.3230472 0 0 0 323.15039 344.46875 z "/><path style="color:#000000;font-style:normal;font-variant:normal;font-weight:normal;font-stretch:normal;font-size:medium;line-height:normal;font-family:sans-serif;font-variant-ligatures:normal;font-variant-position:normal;font-variant-caps:normal;font-variant-numeric:normal;font-variant-alternates:normal;font-variant-east-asian:normal;font-feature-settings:normal;font-variation-settings:normal;text-indent:0;text-align:start;text-decoration:none;text-decoration-line:none;text-decoration-style:solid;text-decoration-color:#000000;letter-spacing:normal;word-spacing:normal;text-transform:none;writing-mode:lr-tb;direction:ltr;text-orientation:mixed;dominant-baseline:auto;baseline-shift:baseline;text-anchor:start;white-space:normal;shape-padding:0;shape-margin:0;inline-size:0;clip-rule:nonzero;display:inline;overflow:visible;visibility:visible;isolation:auto;mix-blend-mode:normal;color-interpolation:sRGB;color-interpolation-filters:linearRGB;solid-color:#000000;solid-opacity:1;vector-effect:none;fill:#000000;fill-opacity:1;fill-rule:nonzero;stroke:none;stroke-linecap:round;stroke-linejoin:round;stroke-miterlimit:15.1183;stroke-dasharray:none;stroke-dashoffset:0;stroke-opacity:1;paint-order:stroke fill markers;color-rendering:auto;image-rendering:auto;shape-rendering:auto;text-rendering:auto;enable-background:accumulate;stop-color:#000000;stop-opacity:1;opacity:1" d="M 346.04102 335.88086 A 1.3230472 1.3230472 0 0 0 345.75391 335.91016 A 1.3230472 1.3230472 0 0 0 345.56836 335.96484 A 1.3230472 1.3230472 0 0 0 345.23047 336.15234 A 1.3230472 1.3230472 0 0 0 345.15625 336.21289 A 1.3230472 1.3230472 0 0 0 345.02148 336.35156 A 1.3230472 1.3230472 0 0 0 344.96094 336.42773 A 1.3230472 1.3230472 0 0 0 344.85938 336.5918 A 1.3230472 1.3230472 0 0 0 344.81836 336.67969 A 1.3230472 1.3230472 0 0 0 344.73438 336.95703 A 1.3230472 1.3230472 0 0 0 344.71875 337.05273 A 1.3230472 1.3230472 0 0 0 344.71875 337.3418 A 1.3230472 1.3230472 0 0 0 344.73047 337.4375 A 1.3230472 1.3230472 0 0 0 344.79883 337.67773 L 349.25391 348.80469 A 1.3230472 1.3230472 0 0 0 349.29492 348.89258 A 1.3230472 1.3230472 0 0 0 349.39453 349.05664 A 1.3230472 1.3230472 0 0 0 350.08594 349.55859 A 1.3230472 1.3230472 0 0 0 350.37109 349.61328 A 1.3230472 1.3230472 0 0 0 350.66016 349.60547 A 1.3230472 1.3230472 0 0 0 350.84961 349.56445 A 1.3230472 1.3230472 0 0 0 351.03125 349.49609 A 1.3230472 1.3230472 0 0 0 351.11719 349.45312 A 1.3230472 1.3230472 0 0 0 351.2793 349.3457 A 1.3230472 1.3230472 0 0 0 351.54688 349.07031 A 1.3230472 1.3230472 0 0 0 351.60156 348.99023 A 1.3230472 1.3230472 0 0 0 351.75391 348.63672 A 1.3230472 1.3230472 0 0 0 351.77539 348.54102 A 1.3230472 1.3230472 0 0 0 351.79102 348.44531 A 1.3230472 1.3230472 0 0 0 351.79688 348.34961 A 1.3230472 1.3230472 0 0 0 351.79883 348.25391 A 1.3230472 1.3230472 0 0 0 351.79102 348.15625 A 1.3230472 1.3230472 0 0 0 351.77734 348.06055 A 1.3230472 1.3230472 0 0 0 351.75781 347.9668 A 1.3230472 1.3230472 0 0 0 351.73047 347.87305 A 1.3230472 1.3230472 0 0 0 351.71094 347.82031 L 347.25391 336.69531 A 1.3230472 1.3230472 0 0 0 347.21484 336.60742 A 1.3230472 1.3230472 0 0 0 347.16797 336.52148 A 1.3230472 1.3230472 0 0 0 346.92383 336.22461 A 1.3230472 1.3230472 0 0 0 346.6875 336.05469 A 1.3230472 1.3230472 0 0 0 346.33008 335.91406 A 1.3230472 1.3230472 0 0 0 346.23438 335.89648 A 1.3230472 1.3230472 0 0 0 346.04102 335.88086 z "/><path style="color:#000000;font-style:normal;font-variant:normal;font-weight:normal;font-stretch:normal;font-size:medium;line-height:normal;font-family:sans-serif;font-variant-ligatures:normal;font-variant-position:normal;font-variant-caps:normal;font-variant-numeric:normal;font-variant-alternates:normal;font-variant-east-asian:normal;font-feature-settings:normal;font-variation-settings:normal;text-indent:0;text-align:start;text-decoration:none;text-decoration-line:none;text-decoration-style:solid;text-decoration-color:#000000;letter-spacing:normal;word-spacing:normal;text-transform:none;writing-mode:lr-tb;direction:ltr;text-orientation:mixed;dominant-baseline:auto;baseline-shift:baseline;text-anchor:start;white-space:normal;shape-padding:0;shape-margin:0;inline-size:0;clip-rule:nonzero;display:inline;overflow:visible;visibility:visible;isolation:auto;mix-blend-mode:normal;color-interpolation:sRGB;color-interpolation-filters:linearRGB;solid-color:#000000;solid-opacity:1;vector-effect:none;fill:#000000;fill-opacity:1;fill-rule:nonzero;stroke:none;stroke-linecap:round;stroke-linejoin:round;stroke-miterlimit:15.1183;stroke-dasharray:none;stroke-dashoffset:0;stroke-opacity:1;paint-order:stroke fill markers;color-rendering:auto;image-rendering:auto;shape-rendering:auto;text-rendering:auto;enable-background:accumulate;stop-color:#000000;stop-opacity:1;opacity:1" d="M 363.08984 319.00586 A 1.3230472 1.3230472 0 0 0 362.89648 319.02148 A 1.3230472 1.3230472 0 0 0 362.80078 319.03906 A 1.3230472 1.3230472 0 0 0 362.70898 319.0625 A 1.3230472 1.3230472 0 0 0 362.61719 319.09375 A 1.3230472 1.3230472 0 0 0 362.28125 319.2832 A 1.3230472 1.3230472 0 0 0 362.13672 319.41211 A 1.3230472 1.3230472 0 0 0 362.07227 319.48438 A 1.3230472 1.3230472 0 0 0 362.01367 319.56055 A 1.3230472 1.3230472 0 0 0 361.87305 319.81445 A 1.3230472 1.3230472 0 0 0 361.83789 319.9043 A 1.3230472 1.3230472 0 0 0 361.77539 320.1875 A 1.3230472 1.3230472 0 0 0 361.76758 320.2832 A 1.3230472 1.3230472 0 0 0 361.78906 320.57227 A 1.3230472 1.3230472 0 0 0 361.81055 320.66602 A 1.3230472 1.3230472 0 0 0 361.91602 320.9375 A 1.3230472 1.3230472 0 0 0 361.96289 321.02148 A 1.3230472 1.3230472 0 0 0 362.11328 321.2207 L 370.31055 329.96289 A 1.3230472 1.3230472 0 0 0 370.37891 330.03125 A 1.3230472 1.3230472 0 0 0 370.5332 330.14844 A 1.3230472 1.3230472 0 0 0 370.61523 330.19922 A 1.3230472 1.3230472 0 0 0 370.78906 330.28125 A 1.3230472 1.3230472 0 0 0 370.97461 330.33594 A 1.3230472 1.3230472 0 0 0 371.07031 330.35352 A 1.3230472 1.3230472 0 0 0 371.16602 330.36523 A 1.3230472 1.3230472 0 0 0 371.35938 330.36523 A 1.3230472 1.3230472 0 0 0 372.14648 330.0293 A 1.3230472 1.3230472 0 0 0 372.21484 329.96289 A 1.3230472 1.3230472 0 0 0 372.33984 329.81445 A 1.3230472 1.3230472 0 0 0 372.39258 329.73242 A 1.3230472 1.3230472 0 0 0 372.43945 329.64844 A 1.3230472 1.3230472 0 0 0 372.48047 329.56055 A 1.3230472 1.3230472 0 0 0 372.51562 329.4707 A 1.3230472 1.3230472 0 0 0 372.54297 329.37891 A 1.3230472 1.3230472 0 0 0 372.5625 329.2832 A 1.3230472 1.3230472 0 0 0 372.57812 329.1875 A 1.3230472 1.3230472 0 0 0 372.58398 329.0918 A 1.3230472 1.3230472 0 0 0 372.58398 328.99414 A 1.3230472 1.3230472 0 0 0 372.57617 328.89844 A 1.3230472 1.3230472 0 0 0 372.5625 328.80273 A 1.3230472 1.3230472 0 0 0 372.54102 328.70898 A 1.3230472 1.3230472 0 0 0 372.51367 328.61523 A 1.3230472 1.3230472 0 0 0 372.47852 328.52539 A 1.3230472 1.3230472 0 0 0 372.4375 328.4375 A 1.3230472 1.3230472 0 0 0 372.39062 328.35352 A 1.3230472 1.3230472 0 0 0 372.33594 328.27344 A 1.3230472 1.3230472 0 0 0 372.27734 328.19727 A 1.3230472 1.3230472 0 0 0 372.24023 328.1543 L 364.04297 319.41211 A 1.3230472 1.3230472 0 0 0 363.65234 319.13086 A 1.3230472 1.3230472 0 0 0 363.5625 319.09375 A 1.3230472 1.3230472 0 0 0 363.08984 319.00586 z "/></g><text x="0" y="544.16668" fill="#000000" font-size="5px" font-weight="bold" font-family="'Helvetica Neue', Helvetica, Arial-Unicode, Arial, Sans-serif">Created by Jevgenijs Kudinovs</text><text x="0" y="549.16668" fill="#000000" font-size="5px" font-weight="bold" font-family="'Helvetica Neue', Helvetica, Arial-Unicode, Arial, Sans-serif">from the Noun Project</text></svg>