<svg xmlns:dc="http://purl.org/dc/elements/1.1/" xmlns:cc="http://creativecommons.org/ns#" xmlns:rdf="http://www.w3.org/1999/02/22-rdf-syntax-ns#" xmlns:svg="http://www.w3.org/2000/svg" xmlns="http://www.w3.org/2000/svg" xmlns:sodipodi="http://sodipodi.sourceforge.net/DTD/sodipodi-0.dtd" xmlns:inkscape="http://www.inkscape.org/namespaces/inkscape" viewBox="0 0 529.16666 661.4583500000001" version="1.1" x="0px" y="0px"><g style="" display="inline"><path style="color:#000000;font-style:normal;font-variant:normal;font-weight:normal;font-stretch:normal;font-size:medium;line-height:normal;font-family:sans-serif;font-variant-ligatures:normal;font-variant-position:normal;font-variant-caps:normal;font-variant-numeric:normal;font-variant-alternates:normal;font-variant-east-asian:normal;font-feature-settings:normal;font-variation-settings:normal;text-indent:0;text-align:start;text-decoration:none;text-decoration-line:none;text-decoration-style:solid;text-decoration-color:#000000;letter-spacing:normal;word-spacing:normal;text-transform:none;writing-mode:lr-tb;direction:ltr;text-orientation:mixed;dominant-baseline:auto;baseline-shift:baseline;text-anchor:start;white-space:normal;shape-padding:0;shape-margin:0;inline-size:0;clip-rule:nonzero;display:inline;overflow:visible;visibility:visible;isolation:auto;mix-blend-mode:normal;color-interpolation:sRGB;color-interpolation-filters:linearRGB;solid-color:#000000;solid-opacity:1;vector-effect:none;fill:#000000;fill-opacity:1;fill-rule:nonzero;stroke:none;stroke-linecap:butt;stroke-linejoin:miter;stroke-miterlimit:4;stroke-dasharray:none;stroke-dashoffset:0;stroke-opacity:1;color-rendering:auto;image-rendering:auto;shape-rendering:auto;text-rendering:auto;enable-background:accumulate;stop-color:#000000;stop-opacity:1;opacity:1" d="M 299.24219 363.74609 C 299.01491 363.7548 298.75296 363.75627 298.45898 363.76758 C 298.19898 363.77758 297.95737 363.78516 297.73242 363.78516 L 297.70703 363.78516 L 297.67969 363.78711 C 297.42069 363.79711 297.17889 363.80664 296.95508 363.80664 L 296.93555 363.80664 L 296.91797 363.80664 C 295.87721 363.8369 294.84957 363.87715 293.83789 363.91406 L 293.83594 363.91406 C 285.7059 364.22182 278.19903 364.69006 271.86328 365.33008 C 265.52803 365.96959 260.38311 366.76884 256.87305 367.79297 C 255.11801 368.30503 253.77161 368.84084 252.7832 369.625 C 252.289 370.01708 251.85822 370.50098 251.64844 371.1543 C 251.43866 371.80761 251.54773 372.5763 251.86523 373.1582 C 252.48575 374.29516 253.5947 374.95936 255.02148 375.58984 C 256.44827 376.22032 258.2558 376.768 260.42383 377.27148 C 264.75988 378.27845 270.53225 379.09436 277.2793 379.74414 C 290.77239 381.0437 308.13993 381.66243 325.26953 381.61133 C 342.39924 381.56123 359.27823 380.84126 371.81055 379.44531 C 378.07678 378.74733 383.24573 377.88821 386.89453 376.82031 C 388.71893 376.28636 390.16264 375.7155 391.24609 374.98047 C 391.78782 374.61295 392.25086 374.19843 392.58594 373.6543 C 392.92101 373.11016 393.08827 372.39729 392.96484 371.73242 C 392.70766 370.34614 391.58727 369.71122 390.30273 369.13477 C 389.0182 368.55831 387.33761 368.07323 385.25977 367.61914 C 381.10407 366.71097 375.37638 365.96082 368.58008 365.35156 C 365.18188 365.0472 361.51834 364.77854 357.6582 364.54688 C 353.79906 364.31521 349.74505 364.11926 345.56445 363.96094 C 344.52119 363.92093 343.46605 363.88083 342.40039 363.84961 L 342.41211 363.85156 C 342.14711 363.84156 341.86469 363.83008 341.56641 363.83008 L 341.61719 363.83008 C 341.35206 363.82007 341.08631 363.81078 340.82031 363.80078 C 340.55419 363.79078 340.26986 363.7793 339.9707 363.7793 L 339.9707 366.42578 C 340.20355 366.42578 340.45483 366.43532 340.7207 366.44531 C 340.9867 366.45531 341.2527 366.46461 341.51758 366.47461 L 341.54102 366.47656 L 341.56641 366.47656 C 341.79812 366.47656 342.0475 366.48414 342.3125 366.49414 L 342.31641 366.49414 L 342.32227 366.49609 C 343.3726 366.52687 344.42015 366.56548 345.46289 366.60547 C 349.62629 366.76314 353.66314 366.95717 357.5 367.1875 C 361.33786 367.41783 364.97595 367.68469 368.34375 367.98633 C 375.07845 368.59007 380.74025 369.3388 384.69531 370.20312 C 386.67284 370.63529 388.22719 371.10385 389.21875 371.54883 C 390.21031 371.99381 390.40647 372.44763 390.36328 372.21484 C 390.36586 372.22873 390.39143 372.1743 390.33398 372.26758 C 390.27654 372.36086 390.0966 372.5625 389.75977 372.79102 C 389.08609 373.24805 387.83249 373.787 386.15039 374.2793 C 382.7862 375.2639 377.70335 376.12543 371.51758 376.81445 C 359.1459 378.19251 342.32201 378.91495 325.26172 378.96484 C 308.20132 379.01574 290.89011 378.39777 277.5332 377.11133 C 270.85425 376.46811 265.15869 375.65415 261.02148 374.69336 C 258.95288 374.21297 257.27196 373.69229 256.08984 373.16992 C 254.92588 372.65558 254.33196 372.10397 254.2168 371.91016 C 254.22862 371.89233 254.24092 371.84548 254.42773 371.69727 C 254.89264 371.32843 256.02002 370.79942 257.61523 370.33398 C 260.80567 369.40311 265.87316 368.59438 272.12891 367.96289 C 278.3846 367.33096 285.84642 366.86484 293.93555 366.55859 C 294.95187 366.52151 295.9709 366.48092 296.99414 366.45117 C 297.27108 366.45021 297.53641 366.44117 297.7832 366.43164 L 297.73242 366.43164 C 298.02548 366.43164 298.3025 366.42016 298.5625 366.41016 C 298.78852 366.40146 299.04903 366.40192 299.34375 366.39062 L 299.24219 363.74609 z "/><path style="color:#000000;font-style:normal;font-variant:normal;font-weight:normal;font-stretch:normal;font-size:medium;line-height:normal;font-family:sans-serif;font-variant-ligatures:normal;font-variant-position:normal;font-variant-caps:normal;font-variant-numeric:normal;font-variant-alternates:normal;font-variant-east-asian:normal;font-feature-settings:normal;font-variation-settings:normal;text-indent:0;text-align:start;text-decoration:none;text-decoration-line:none;text-decoration-style:solid;text-decoration-color:#000000;letter-spacing:normal;word-spacing:normal;text-transform:none;writing-mode:lr-tb;direction:ltr;text-orientation:mixed;dominant-baseline:auto;baseline-shift:baseline;text-anchor:start;white-space:normal;shape-padding:0;shape-margin:0;inline-size:0;clip-rule:nonzero;display:inline;overflow:visible;visibility:visible;isolation:auto;mix-blend-mode:normal;color-interpolation:sRGB;color-interpolation-filters:linearRGB;solid-color:#000000;solid-opacity:1;vector-effect:none;fill:#000000;fill-opacity:1;fill-rule:nonzero;stroke:none;stroke-linecap:round;stroke-linejoin:round;stroke-miterlimit:4;stroke-dasharray:none;stroke-dashoffset:0;stroke-opacity:1;color-rendering:auto;image-rendering:auto;shape-rendering:auto;text-rendering:auto;enable-background:accumulate;stop-color:#000000;stop-opacity:1;opacity:1" d="M 356.49219 370.33203 A 0.926 0.926 0 0 0 356.41406 370.33984 C 331.17521 373.8042 307.79929 373.13977 282.42578 370.54102 A 0.926 0.926 0 0 0 281.41016 371.36914 A 0.926 0.926 0 0 0 282.23828 372.38477 C 307.69477 374.99201 331.24287 375.66348 356.66602 372.17383 A 0.926 0.926 0 0 0 357.45703 371.13086 A 0.926 0.926 0 0 0 356.49219 370.33203 z "/><path style="color:#000000;font-style:normal;font-variant:normal;font-weight:normal;font-stretch:normal;font-size:medium;line-height:normal;font-family:sans-serif;font-variant-ligatures:normal;font-variant-position:normal;font-variant-caps:normal;font-variant-numeric:normal;font-variant-alternates:normal;font-variant-east-asian:normal;font-feature-settings:normal;font-variation-settings:normal;text-indent:0;text-align:start;text-decoration:none;text-decoration-line:none;text-decoration-style:solid;text-decoration-color:#000000;letter-spacing:normal;word-spacing:normal;text-transform:none;writing-mode:lr-tb;direction:ltr;text-orientation:mixed;dominant-baseline:auto;baseline-shift:baseline;text-anchor:start;white-space:normal;shape-padding:0;shape-margin:0;inline-size:0;clip-rule:nonzero;display:inline;overflow:visible;visibility:visible;isolation:auto;mix-blend-mode:normal;color-interpolation:sRGB;color-interpolation-filters:linearRGB;solid-color:#000000;solid-opacity:1;vector-effect:none;fill:#000000;fill-opacity:1;fill-rule:nonzero;stroke:none;stroke-linecap:round;stroke-linejoin:round;stroke-miterlimit:4;stroke-dasharray:none;stroke-dashoffset:0;stroke-opacity:1;color-rendering:auto;image-rendering:auto;shape-rendering:auto;text-rendering:auto;enable-background:accumulate;stop-color:#000000;opacity:1" d="m 310.07269,290.76161 c -0.29,0.01 -0.03,-0.7092 -0.295,-0.5795 -0.169,0.084 -0.336,0.1701 -0.502,0.2578 -0.167,0.088 -0.332,0.1764 -0.496,0.2676 -0.164,0.091 -0.326,0.1849 -0.486,0.2793 -1.291,0.759 -2.504,1.6296 -3.641,2.5977 -4.546,3.8721 -7.853,9.2778 -10.209,15.5253 -2.356,6.247 -3.771,13.359 -4.465,20.781 -0.694,7.422 -0.663,15.154 -0.09,22.629 0.523,6.859 4.423,12.215 9.798,15.713 5.376,3.498 12.223,5.291 19.161,5.476 6.937,0.186 13.985,-1.239 19.769,-4.441 5.784,-3.202 10.322,-8.302 11.756,-15.176 1.488,-7.131 1.934,-14.774 1.424,-22.258 -0.51,-7.483 -1.976,-14.808 -4.354,-21.304 -2.378,-6.496 -5.664,-12.175 -9.918,-16.3145 -1.063,-1.0348 -2.189,-1.9721 -3.375,-2.7968 -0.296,-0.2062 -0.596,-0.4059 -0.9,-0.5977 v 0 c -0.08,-0.047 -0.15,-0.093 -0.227,-0.1406 -0.08,-0.048 -0.154,-0.095 -0.23,-0.1406 -0.941,-0.5635 -1.236,0.036 -1.798,0.977 -0.563,0.9401 -1.181,1.8645 -0.241,2.4273 0.06,0.038 0.127,0.077 0.189,0.1152 v 0 c 0.06,0.039 0.127,0.079 0.192,0.1191 v 0 c 0.253,0.1596 0.503,0.3272 0.752,0.5 0.994,0.6914 1.953,1.4879 2.873,2.3828 3.679,3.5799 6.731,8.7521 8.959,14.8358 2.227,6.084 3.634,13.066 4.121,20.209 0.487,7.143 0.05,14.448 -1.35,21.178 -1.176,5.64 -4.778,9.737 -9.793,12.513 -5.015,2.777 -11.426,4.114 -17.74,3.946 -6.315,-0.169 -12.512,-1.847 -17.104,-4.834 -4.591,-2.988 -7.582,-7.132 -8.005,-12.688 -0.555,-7.278 -0.58,-14.8 0.09,-21.957 0.67,-7.157 2.036,-13.947 4.225,-19.752 2.189,-5.8042 5.193,-10.6014 9.07,-13.9039 0.97,-0.8256 1.994,-1.5592 3.078,-2.1973 0.136,-0.08 0.274,-0.158 0.411,-0.2343 0.137,-0.077 0.275,-0.1533 0.414,-0.2266 0.139,-0.074 0.281,-0.1463 0.422,-0.2168 0.979,-0.4896 0.194,-1.3066 -0.294,-2.2867 -0.345,-0.69 -0.414,-0.7031 -1.185,-0.6827 z"/><path style="color:#000000;font-style:normal;font-variant:normal;font-weight:normal;font-stretch:normal;font-size:medium;line-height:normal;font-family:sans-serif;font-variant-ligatures:normal;font-variant-position:normal;font-variant-caps:normal;font-variant-numeric:normal;font-variant-alternates:normal;font-variant-east-asian:normal;font-feature-settings:normal;font-variation-settings:normal;text-indent:0;text-align:start;text-decoration:none;text-decoration-line:none;text-decoration-style:solid;text-decoration-color:#000000;letter-spacing:normal;word-spacing:normal;text-transform:none;writing-mode:lr-tb;direction:ltr;text-orientation:mixed;dominant-baseline:auto;baseline-shift:baseline;text-anchor:start;white-space:normal;shape-padding:0;shape-margin:0;inline-size:0;clip-rule:nonzero;display:inline;overflow:visible;visibility:visible;isolation:auto;mix-blend-mode:normal;color-interpolation:sRGB;color-interpolation-filters:linearRGB;solid-color:#000000;solid-opacity:1;vector-effect:none;fill:#000000;fill-opacity:1;fill-rule:nonzero;stroke:none;stroke-linecap:round;stroke-linejoin:round;stroke-miterlimit:4;stroke-dasharray:none;stroke-dashoffset:0;stroke-opacity:1;color-rendering:auto;image-rendering:auto;shape-rendering:auto;text-rendering:auto;enable-background:accumulate;stop-color:#000000;stop-opacity:1;opacity:1" d="M 315.44727 225.88867 A 1.3230472 1.3230472 0 0 0 314.20312 226.99023 L 310.08398 251.38477 L 287.55859 232.17578 A 1.3230472 1.3230472 0 0 0 285.56836 233.86523 L 303.19336 263.0332 L 295.58594 259.21875 A 1.3230472 1.3230472 0 0 0 293.88477 261.12305 L 301.84766 273.36133 L 294.93945 271.83984 A 1.3230472 1.3230472 0 0 0 293.80859 274.14844 L 303.04492 281.84766 L 297.89453 280.91797 A 1.3230472 1.3230472 0 0 0 296.83594 283.25586 C 302.31681 287.62305 308.31916 291.96628 313.93359 296.08203 A 1.3230472 1.3230472 0 0 0 315.23633 296.23242 L 321.11133 293.71875 L 326.58789 296.27148 A 1.3230472 1.3230472 0 0 0 327.9082 296.1543 L 340.26758 287.45312 A 1.3230472 1.3230472 0 0 0 339.71484 285.06445 L 335.43555 284.37695 L 343.54883 275.65039 A 1.3230472 1.3230472 0 0 0 342.28711 273.46094 L 336.35156 274.81445 L 341.99023 264.76953 A 1.3230472 1.3230472 0 0 0 340.57617 262.82422 L 332.4668 264.45703 L 346.75977 233.00391 A 1.3230472 1.3230472 0 0 0 344.67969 231.4668 L 323.87695 249.87891 L 316.77148 226.82031 A 1.3230472 1.3230472 0 0 0 315.44727 225.88867 z M 315.88281 232.92383 L 321.95312 252.61719 A 1.3230472 1.3230472 0 0 0 324.09375 253.21875 L 341.7832 237.5625 L 328.98828 265.7168 A 1.3230472 1.3230472 0 0 0 330.45312 267.56055 L 338.27344 265.98828 L 332.58398 276.12109 A 1.3230472 1.3230472 0 0 0 334.03125 278.05859 L 338.68555 276.99609 L 331.81055 284.39062 A 1.3230472 1.3230472 0 0 0 332.57031 286.59766 L 336.08398 287.16211 L 327.01172 293.54883 L 321.69336 291.07031 A 1.3230472 1.3230472 0 0 0 320.61523 291.05273 L 314.89648 293.49805 C 310.92154 290.58647 306.89502 287.54412 302.92188 284.51367 L 307.50391 285.33984 A 1.3230472 1.3230472 0 0 0 308.58594 283.02148 L 299.66992 275.5918 L 304.43555 276.64062 A 1.3230472 1.3230472 0 0 0 305.83008 274.62695 L 298.76562 263.77344 L 306.10352 267.45312 A 1.3230472 1.3230472 0 0 0 307.82812 265.58594 L 292.05664 239.48828 L 310.14062 254.91211 A 1.3230472 1.3230472 0 0 0 312.30469 254.125 L 315.88281 232.92383 z "/><path style="color:#000000;font-style:normal;font-variant:normal;font-weight:normal;font-stretch:normal;font-size:medium;line-height:normal;font-family:sans-serif;font-variant-ligatures:normal;font-variant-position:normal;font-variant-caps:normal;font-variant-numeric:normal;font-variant-alternates:normal;font-variant-east-asian:normal;font-feature-settings:normal;font-variation-settings:normal;text-indent:0;text-align:start;text-decoration:none;text-decoration-line:none;text-decoration-style:solid;text-decoration-color:#000000;letter-spacing:normal;word-spacing:normal;text-transform:none;writing-mode:lr-tb;direction:ltr;text-orientation:mixed;dominant-baseline:auto;baseline-shift:baseline;text-anchor:start;white-space:normal;shape-padding:0;shape-margin:0;inline-size:0;clip-rule:nonzero;display:inline;overflow:visible;visibility:visible;isolation:auto;mix-blend-mode:normal;color-interpolation:sRGB;color-interpolation-filters:linearRGB;solid-color:#000000;solid-opacity:1;vector-effect:none;fill:#000000;fill-opacity:1;fill-rule:nonzero;stroke:none;stroke-linecap:round;stroke-linejoin:round;stroke-miterlimit:4;stroke-dasharray:none;stroke-dashoffset:0;stroke-opacity:1;color-rendering:auto;image-rendering:auto;shape-rendering:auto;text-rendering:auto;enable-background:accumulate;stop-color:#000000;stop-opacity:1;opacity:1" d="M 306.75 300.94727 A 1.3230472 1.3230472 0 0 0 306.06445 301.13086 L 296.9668 306.50586 A 1.322915 1.322915 0 0 0 296.5 308.31641 A 1.322915 1.322915 0 0 0 298.3125 308.7832 L 306.5 303.94727 L 312.20508 309.99805 A 1.3230472 1.3230472 0 0 0 313.95898 310.15039 L 321.43359 304.5625 L 327.87109 309.71094 A 1.3230472 1.3230472 0 0 0 329.5293 309.70508 L 335.88672 304.55469 L 343.38281 309.95703 A 1.322915 1.322915 0 0 0 345.23047 309.6582 A 1.322915 1.322915 0 0 0 344.92969 307.8125 L 336.61523 301.81641 A 1.3230472 1.3230472 0 0 0 335.00781 301.86133 L 328.69141 306.98047 L 322.28711 301.85742 A 1.3230472 1.3230472 0 0 0 320.66797 301.83008 L 313.32031 307.32422 L 307.69922 301.36328 A 1.3230472 1.3230472 0 0 0 306.75 300.94727 z "/><path style="color:#000000;font-style:normal;font-variant:normal;font-weight:normal;font-stretch:normal;font-size:medium;line-height:normal;font-family:sans-serif;font-variant-ligatures:normal;font-variant-position:normal;font-variant-caps:normal;font-variant-numeric:normal;font-variant-alternates:normal;font-variant-east-asian:normal;font-feature-settings:normal;font-variation-settings:normal;text-indent:0;text-align:start;text-decoration:none;text-decoration-line:none;text-decoration-style:solid;text-decoration-color:#000000;letter-spacing:normal;word-spacing:normal;text-transform:none;writing-mode:lr-tb;direction:ltr;text-orientation:mixed;dominant-baseline:auto;baseline-shift:baseline;text-anchor:start;white-space:normal;shape-padding:0;shape-margin:0;inline-size:0;clip-rule:nonzero;display:inline;overflow:visible;visibility:visible;isolation:auto;mix-blend-mode:normal;color-interpolation:sRGB;color-interpolation-filters:linearRGB;solid-color:#000000;solid-opacity:1;vector-effect:none;fill:#000000;fill-opacity:1;fill-rule:nonzero;stroke:none;stroke-linecap:round;stroke-linejoin:round;stroke-miterlimit:4;stroke-dasharray:none;stroke-dashoffset:0;stroke-opacity:1;color-rendering:auto;image-rendering:auto;shape-rendering:auto;text-rendering:auto;enable-background:accumulate;stop-color:#000000;stop-opacity:1;opacity:1" d="M 303.07227 316.66406 A 1.3230472 1.3230472 0 0 0 302.36328 316.84766 L 293.26758 322.22266 A 1.322915 1.322915 0 0 0 292.80078 324.0332 A 1.322915 1.322915 0 0 0 294.61328 324.5 L 302.71289 319.71484 L 307.37109 325.62695 A 1.3230472 1.3230472 0 0 0 309.27148 325.8125 L 315.67383 320.32422 L 322.05273 325.42773 A 1.3230472 1.3230472 0 0 0 323.75 325.39062 L 329.44922 320.4043 L 334.77344 325.55273 A 1.3230472 1.3230472 0 0 0 336.66992 325.49414 L 341.33789 320.39453 L 347.39062 326.17773 A 1.322915 1.322915 0 0 0 349.26172 326.13672 A 1.322915 1.322915 0 0 0 349.21875 324.26562 L 342.18945 317.54688 A 1.3230472 1.3230472 0 0 0 340.30078 317.61133 L 335.63672 322.70703 L 330.41406 317.65625 A 1.3230472 1.3230472 0 0 0 328.62305 317.61133 L 322.8418 322.66992 L 316.4707 317.57422 A 1.3230472 1.3230472 0 0 0 314.7832 317.60156 L 308.5957 322.9043 L 304.07617 317.16797 A 1.3230472 1.3230472 0 0 0 303.07227 316.66406 z "/><path style="color:#000000;font-style:normal;font-variant:normal;font-weight:normal;font-stretch:normal;font-size:medium;line-height:normal;font-family:sans-serif;font-variant-ligatures:normal;font-variant-position:normal;font-variant-caps:normal;font-variant-numeric:normal;font-variant-alternates:normal;font-variant-east-asian:normal;font-feature-settings:normal;font-variation-settings:normal;text-indent:0;text-align:start;text-decoration:none;text-decoration-line:none;text-decoration-style:solid;text-decoration-color:#000000;letter-spacing:normal;word-spacing:normal;text-transform:none;writing-mode:lr-tb;direction:ltr;text-orientation:mixed;dominant-baseline:auto;baseline-shift:baseline;text-anchor:start;white-space:normal;shape-padding:0;shape-margin:0;inline-size:0;clip-rule:nonzero;display:inline;overflow:visible;visibility:visible;isolation:auto;mix-blend-mode:normal;color-interpolation:sRGB;color-interpolation-filters:linearRGB;solid-color:#000000;solid-opacity:1;vector-effect:none;fill:#000000;fill-opacity:1;fill-rule:nonzero;stroke:none;stroke-linecap:round;stroke-linejoin:round;stroke-miterlimit:4;stroke-dasharray:none;stroke-dashoffset:0;stroke-opacity:1;color-rendering:auto;image-rendering:auto;shape-rendering:auto;text-rendering:auto;enable-background:accumulate;stop-color:#000000;stop-opacity:1;opacity:1" d="M 301.30273 334.375 A 1.3230472 1.3230472 0 0 0 300.5957 334.55859 L 291.49805 339.93359 A 1.322915 1.322915 0 0 0 291.03125 341.74414 A 1.322915 1.322915 0 0 0 292.84375 342.21094 L 300.94531 337.42578 L 305.60156 343.33789 A 1.3230472 1.3230472 0 0 0 307.50195 343.52344 L 313.9043 338.03516 L 320.28516 343.13867 A 1.3230472 1.3230472 0 0 0 321.98242 343.09961 L 327.68164 338.11523 L 333.00586 343.26367 A 1.3230472 1.3230472 0 0 0 334.75977 343.33789 L 341.66602 337.7207 L 348.38672 343.32812 A 1.322915 1.322915 0 0 0 350.25 343.1582 A 1.322915 1.322915 0 0 0 350.08203 341.29492 L 342.52344 334.99219 A 1.3230472 1.3230472 0 0 0 340.8418 334.98047 L 334 340.54492 L 328.64453 335.36719 A 1.3230472 1.3230472 0 0 0 326.85547 335.32227 L 321.07227 340.38086 L 314.70117 335.28516 A 1.3230472 1.3230472 0 0 0 313.01367 335.3125 L 306.82617 340.61719 L 302.30664 334.87891 A 1.3230472 1.3230472 0 0 0 301.30273 334.375 z "/><path style="color:#000000;font-style:normal;font-variant:normal;font-weight:normal;font-stretch:normal;font-size:medium;line-height:normal;font-family:sans-serif;font-variant-ligatures:normal;font-variant-position:normal;font-variant-caps:normal;font-variant-numeric:normal;font-variant-alternates:normal;font-variant-east-asian:normal;font-feature-settings:normal;font-variation-settings:normal;text-indent:0;text-align:start;text-decoration:none;text-decoration-line:none;text-decoration-style:solid;text-decoration-color:#000000;letter-spacing:normal;word-spacing:normal;text-transform:none;writing-mode:lr-tb;direction:ltr;text-orientation:mixed;dominant-baseline:auto;baseline-shift:baseline;text-anchor:start;white-space:normal;shape-padding:0;shape-margin:0;inline-size:0;clip-rule:nonzero;display:inline;overflow:visible;visibility:visible;isolation:auto;mix-blend-mode:normal;color-interpolation:sRGB;color-interpolation-filters:linearRGB;solid-color:#000000;solid-opacity:1;vector-effect:none;fill:#000000;fill-opacity:1;fill-rule:nonzero;stroke:none;stroke-linecap:round;stroke-linejoin:round;stroke-miterlimit:4;stroke-dasharray:none;stroke-dashoffset:0;stroke-opacity:1;color-rendering:auto;image-rendering:auto;shape-rendering:auto;text-rendering:auto;enable-background:accumulate;stop-color:#000000;stop-opacity:1;opacity:1" d="M 302.5 351.92969 A 1.3230472 1.3230472 0 0 0 301.89062 352.11328 L 292.79297 357.48633 A 1.322915 1.322915 0 0 0 292.32617 359.29883 A 1.322915 1.322915 0 0 0 294.13867 359.76562 L 302.24023 354.97852 L 306.89648 360.89062 A 1.3230472 1.3230472 0 0 0 308.79688 361.07812 L 315.19922 355.58984 L 321.58008 360.69336 A 1.3230472 1.3230472 0 0 0 323.27734 360.65625 L 328.97656 355.66797 L 334.30078 360.81836 A 1.3230472 1.3230472 0 0 0 336.05469 360.89258 L 342.92969 355.30078 L 345.60156 357.69922 A 1.322915 1.322915 0 0 0 347.4707 357.59766 A 1.322915 1.322915 0 0 0 347.36914 355.73047 L 343.85547 352.57812 A 1.3230472 1.3230472 0 0 0 342.13672 352.53516 L 335.29492 358.09961 L 329.93945 352.91992 A 1.3230472 1.3230472 0 0 0 328.15039 352.87695 L 322.36719 357.93555 L 315.99609 352.83789 A 1.3230472 1.3230472 0 0 0 314.30859 352.86719 L 308.12109 358.16992 L 303.60156 352.43359 A 1.3230472 1.3230472 0 0 0 302.5 351.92969 z "/><path style="color:#000000;font-style:normal;font-variant:normal;font-weight:normal;font-stretch:normal;font-size:medium;line-height:normal;font-family:sans-serif;font-variant-ligatures:normal;font-variant-position:normal;font-variant-caps:normal;font-variant-numeric:normal;font-variant-alternates:normal;font-variant-east-asian:normal;font-feature-settings:normal;font-variation-settings:normal;text-indent:0;text-align:start;text-decoration:none;text-decoration-line:none;text-decoration-style:solid;text-decoration-color:#000000;letter-spacing:normal;word-spacing:normal;text-transform:none;writing-mode:lr-tb;direction:ltr;text-orientation:mixed;dominant-baseline:auto;baseline-shift:baseline;text-anchor:start;white-space:normal;shape-padding:0;shape-margin:0;inline-size:0;clip-rule:nonzero;display:inline;overflow:visible;visibility:visible;isolation:auto;mix-blend-mode:normal;color-interpolation:sRGB;color-interpolation-filters:linearRGB;solid-color:#000000;solid-opacity:1;vector-effect:none;fill:#000000;fill-opacity:1;fill-rule:nonzero;stroke:none;stroke-linecap:round;stroke-linejoin:round;stroke-miterlimit:4;stroke-dasharray:none;stroke-dashoffset:0;stroke-opacity:1;color-rendering:auto;image-rendering:auto;shape-rendering:auto;text-rendering:auto;enable-background:accumulate;stop-color:#000000;stop-opacity:1;opacity:1" d="M 275.83203 312.13867 A 2.6458349 2.6458349 0 0 0 273.37695 313.87695 A 2.6458349 2.6458349 0 0 0 274.95312 317.26953 L 279.98438 319.10938 A 2.6458349 2.6458349 0 0 0 283.37891 317.5332 A 2.6458349 2.6458349 0 0 0 281.80273 314.14062 L 276.77148 312.30078 A 2.6458349 2.6458349 0 0 0 275.83203 312.13867 z "/><path style="color:#000000;font-style:normal;font-variant:normal;font-weight:normal;font-stretch:normal;font-size:medium;line-height:normal;font-family:sans-serif;font-variant-ligatures:normal;font-variant-position:normal;font-variant-caps:normal;font-variant-numeric:normal;font-variant-alternates:normal;font-variant-east-asian:normal;font-feature-settings:normal;font-variation-settings:normal;text-indent:0;text-align:start;text-decoration:none;text-decoration-line:none;text-decoration-style:solid;text-decoration-color:#000000;letter-spacing:normal;word-spacing:normal;text-transform:none;writing-mode:lr-tb;direction:ltr;text-orientation:mixed;dominant-baseline:auto;baseline-shift:baseline;text-anchor:start;white-space:normal;shape-padding:0;shape-margin:0;inline-size:0;clip-rule:nonzero;display:inline;overflow:visible;visibility:visible;isolation:auto;mix-blend-mode:normal;color-interpolation:sRGB;color-interpolation-filters:linearRGB;solid-color:#000000;solid-opacity:1;vector-effect:none;fill:#000000;fill-opacity:1;fill-rule:nonzero;stroke:none;stroke-linecap:round;stroke-linejoin:round;stroke-miterlimit:4;stroke-dasharray:none;stroke-dashoffset:0;stroke-opacity:1;color-rendering:auto;image-rendering:auto;shape-rendering:auto;text-rendering:auto;enable-background:accumulate;stop-color:#000000;stop-opacity:1;opacity:1" d="M 237.42969 311.99805 A 2.6458349 2.6458349 0 0 0 236.57227 312.14453 C 224.3991 316.36433 215.87834 320.79677 210.4375 325.7793 C 204.99666 330.76182 202.71844 336.69873 203.91016 342.58594 C 205.10187 348.47315 209.28301 354.01159 215.51172 359.61133 C 221.74043 365.21107 230.13011 370.89182 240.23438 376.76758 A 2.6458349 2.6458349 0 0 0 243.85156 375.81055 A 2.6458349 2.6458349 0 0 0 242.89453 372.19336 C 232.9743 366.42462 224.84151 360.88176 219.05078 355.67578 C 213.26005 350.4698 209.92224 345.62027 209.0957 341.53711 C 208.26917 337.45395 209.47349 333.83759 214.01172 329.68164 C 218.54994 325.5257 226.50536 321.23474 238.30469 317.14453 A 2.6458349 2.6458349 0 0 0 239.93945 313.77734 A 2.6458349 2.6458349 0 0 0 237.42969 311.99805 z "/><path style="color:#000000;font-style:normal;font-variant:normal;font-weight:normal;font-stretch:normal;font-size:medium;line-height:normal;font-family:sans-serif;font-variant-ligatures:normal;font-variant-position:normal;font-variant-caps:normal;font-variant-numeric:normal;font-variant-alternates:normal;font-variant-east-asian:normal;font-feature-settings:normal;font-variation-settings:normal;text-indent:0;text-align:start;text-decoration:none;text-decoration-line:none;text-decoration-style:solid;text-decoration-color:#000000;letter-spacing:normal;word-spacing:normal;text-transform:none;writing-mode:lr-tb;direction:ltr;text-orientation:mixed;dominant-baseline:auto;baseline-shift:baseline;text-anchor:start;white-space:normal;shape-padding:0;shape-margin:0;inline-size:0;clip-rule:nonzero;display:inline;overflow:visible;visibility:visible;isolation:auto;mix-blend-mode:normal;color-interpolation:sRGB;color-interpolation-filters:linearRGB;solid-color:#000000;solid-opacity:1;vector-effect:none;fill:#000000;fill-opacity:1;fill-rule:nonzero;stroke:none;stroke-linecap:round;stroke-linejoin:round;stroke-miterlimit:4;stroke-dasharray:none;stroke-dashoffset:0;stroke-opacity:1;color-rendering:auto;image-rendering:auto;shape-rendering:auto;text-rendering:auto;enable-background:accumulate;stop-color:#000000;stop-opacity:1;opacity:1" d="M 258.58398 385.16992 A 2.6458349 2.6458349 0 0 0 256.03516 387.77344 L 255 453.64258 A 2.6458349 2.6458349 0 0 0 257.60352 456.33008 A 2.6458349 2.6458349 0 0 0 260.29102 453.72656 L 261.32617 387.85547 A 2.6458349 2.6458349 0 0 0 258.7207 385.16992 A 2.6458349 2.6458349 0 0 0 258.58398 385.16992 z "/><path style="color:#000000;font-style:normal;font-variant:normal;font-weight:normal;font-stretch:normal;font-size:medium;line-height:normal;font-family:sans-serif;font-variant-ligatures:normal;font-variant-position:normal;font-variant-caps:normal;font-variant-numeric:normal;font-variant-alternates:normal;font-variant-east-asian:normal;font-feature-settings:normal;font-variation-settings:normal;text-indent:0;text-align:start;text-decoration:none;text-decoration-line:none;text-decoration-style:solid;text-decoration-color:#000000;letter-spacing:normal;word-spacing:normal;text-transform:none;writing-mode:lr-tb;direction:ltr;text-orientation:mixed;dominant-baseline:auto;baseline-shift:baseline;text-anchor:start;white-space:normal;shape-padding:0;shape-margin:0;inline-size:0;clip-rule:nonzero;display:inline;overflow:visible;visibility:visible;isolation:auto;mix-blend-mode:normal;color-interpolation:sRGB;color-interpolation-filters:linearRGB;solid-color:#000000;solid-opacity:1;vector-effect:none;fill:#000000;fill-opacity:1;fill-rule:nonzero;stroke-width:5.29166;stroke-linecap:square;stroke-linejoin:miter;stroke-miterlimit:4;stroke-dasharray:none;stroke-dashoffset:0;stroke-opacity:1;paint-order:markers fill stroke;color-rendering:auto;image-rendering:auto;shape-rendering:auto;text-rendering:auto;enable-background:accumulate;stop-color:#000000;stop-opacity:1;stroke:none;opacity:1" d="m 237.55654,161.46541 c 0,2.58315 -2.19876,4.67721 -4.91108,4.67721 -2.71231,0 -4.91108,-2.09406 -4.91108,-4.67721 0,-2.58316 2.19877,-4.67722 4.91108,-4.67722 2.71232,0 4.91108,2.09406 4.91108,4.67722 z"/><path style="color:#000000;font-style:normal;font-variant:normal;font-weight:normal;font-stretch:normal;font-size:medium;line-height:normal;font-family:sans-serif;font-variant-ligatures:normal;font-variant-position:normal;font-variant-caps:normal;font-variant-numeric:normal;font-variant-alternates:normal;font-variant-east-asian:normal;font-feature-settings:normal;font-variation-settings:normal;text-indent:0;text-align:start;text-decoration:none;text-decoration-line:none;text-decoration-style:solid;text-decoration-color:#000000;letter-spacing:normal;word-spacing:normal;text-transform:none;writing-mode:lr-tb;direction:ltr;text-orientation:mixed;dominant-baseline:auto;baseline-shift:baseline;text-anchor:start;white-space:normal;shape-padding:0;shape-margin:0;inline-size:0;clip-rule:nonzero;display:inline;overflow:visible;visibility:visible;isolation:auto;mix-blend-mode:normal;color-interpolation:sRGB;color-interpolation-filters:linearRGB;solid-color:#000000;solid-opacity:1;vector-effect:none;fill:#000000;fill-opacity:1;fill-rule:nonzero;stroke-width:5.29166;stroke-linecap:square;stroke-linejoin:miter;stroke-miterlimit:4;stroke-dasharray:none;stroke-dashoffset:0;stroke-opacity:1;paint-order:markers fill stroke;color-rendering:auto;image-rendering:auto;shape-rendering:auto;text-rendering:auto;enable-background:accumulate;stop-color:#000000;stop-opacity:1;stroke:none;opacity:1" d="m 333.46671,161.46931 c 0,2.58316 -2.19876,4.67722 -4.91108,4.67722 -2.71231,0 -4.91107,-2.09406 -4.91107,-4.67722 0,-2.58315 2.19876,-4.67721 4.91107,-4.67721 2.71232,0 4.91108,2.09406 4.91108,4.67721 z"/><path style="color:#000000;font-style:normal;font-variant:normal;font-weight:normal;font-stretch:normal;font-size:medium;line-height:normal;font-family:sans-serif;font-variant-ligatures:normal;font-variant-position:normal;font-variant-caps:normal;font-variant-numeric:normal;font-variant-alternates:normal;font-variant-east-asian:normal;font-feature-settings:normal;font-variation-settings:normal;text-indent:0;text-align:start;text-decoration:none;text-decoration-line:none;text-decoration-style:solid;text-decoration-color:#000000;letter-spacing:normal;word-spacing:normal;text-transform:none;writing-mode:lr-tb;direction:ltr;text-orientation:mixed;dominant-baseline:auto;baseline-shift:baseline;text-anchor:start;white-space:normal;shape-padding:0;shape-margin:0;inline-size:0;clip-rule:nonzero;display:inline;overflow:visible;visibility:visible;isolation:auto;mix-blend-mode:normal;color-interpolation:sRGB;color-interpolation-filters:linearRGB;solid-color:#000000;solid-opacity:1;vector-effect:none;fill:#000000;fill-opacity:1;fill-rule:nonzero;stroke:none;stroke-linecap:square;stroke-linejoin:miter;stroke-miterlimit:4;stroke-dasharray:none;stroke-dashoffset:0;stroke-opacity:1;paint-order:markers fill stroke;color-rendering:auto;image-rendering:auto;shape-rendering:auto;text-rendering:auto;enable-background:accumulate;stop-color:#000000;opacity:1" d="m 259.41369,50.21481 c -67.425,3e-4 -122.156,54.7308 -122.156,122.1562 0,67.4254 54.731,122.156 122.156,122.1563 2.107,0 4.202,-0.055 6.284,-0.1602 2.081,-0.1055 4.149,-0.2622 6.203,-0.4707 2.052,-0.2084 4.091,-0.4685 6.113,-0.7773 2.022,-0.309 4.028,-0.6674 6.016,-1.0742 1.988,-0.4069 3.958,-0.861 5.91,-1.3633 1.952,-0.5022 3.886,-1.0515 5.799,-1.6465 1.913,-0.595 3.804,-1.2367 5.675,-1.9219 l 3.106,-1.1367 -2.545,-1.5656 1.408,-1.5399 -0.181,-1.4364 -0.956,-1.669 -3.105,1.1367 c -1.769,0.6478 -3.559,1.254 -5.367,1.8164 -1.809,0.5626 -3.637,1.0819 -5.483,1.5566 -1.845,0.4749 -3.707,0.9043 -5.587,1.2891 -1.88,0.3847 -3.778,0.7234 -5.69,1.0156 -1.913,0.2922 -3.84,0.5392 -5.781,0.7363 -1.943,0.1973 -3.901,0.3455 -5.871,0.4454 -1.97,0.1 -3.952,0.1503 -5.948,0.1503 -63.85,-2e-4 -115.541,-51.6904 -115.541,-115.541 0,-63.8506 51.691,-115.5407 115.541,-115.541 63.851,-3e-4 115.541,51.69 115.541,115.541 0,15.9627 -3.232,31.152 -9.078,44.9727 -5.845,13.8208 -14.307,26.2703 -24.763,36.7266 v 0 c -1.307,1.3064 -2.645,2.5822 -4.014,3.8262 -1.368,1.2433 -2.767,2.4529 -4.193,3.6308 l -2.549,2.1055 3.565,2.6986 3.195,-0.9686 c 1.87,-0.567 2.985,-1.2573 4.431,-2.5718 1.446,-1.3138 2.861,-2.663 4.242,-4.0449 11.052,-11.0511 19.996,-24.2111 26.178,-38.8281 6.183,-14.6169 9.602,-30.6924 9.602,-47.5489 0,-67.4258 -54.731,-122.1565 -122.157,-122.1562 z"/><path style="color:#000000;font-style:normal;font-variant:normal;font-weight:normal;font-stretch:normal;font-size:medium;line-height:normal;font-family:sans-serif;font-variant-ligatures:normal;font-variant-position:normal;font-variant-caps:normal;font-variant-numeric:normal;font-variant-alternates:normal;font-variant-east-asian:normal;font-feature-settings:normal;font-variation-settings:normal;text-indent:0;text-align:start;text-decoration:none;text-decoration-line:none;text-decoration-style:solid;text-decoration-color:#000000;letter-spacing:normal;word-spacing:normal;text-transform:none;writing-mode:lr-tb;direction:ltr;text-orientation:mixed;dominant-baseline:auto;baseline-shift:baseline;text-anchor:start;white-space:normal;shape-padding:0;shape-margin:0;inline-size:0;clip-rule:nonzero;display:inline;overflow:visible;visibility:visible;isolation:auto;mix-blend-mode:normal;color-interpolation:sRGB;color-interpolation-filters:linearRGB;solid-color:#000000;solid-opacity:1;vector-effect:none;fill:#000000;fill-opacity:1;fill-rule:nonzero;stroke:none;stroke-linecap:round;stroke-linejoin:round;stroke-miterlimit:4;stroke-dasharray:none;stroke-dashoffset:0;stroke-opacity:1;color-rendering:auto;image-rendering:auto;shape-rendering:auto;text-rendering:auto;enable-background:accumulate;stop-color:#000000;stop-opacity:1;opacity:1" d="M 259.96094 310.13477 A 2.6458349 2.6458349 0 0 0 257.27344 312.74023 L 256.75781 345.67383 L 256.62891 353.9082 A 2.6458349 2.6458349 0 0 0 259.23242 356.5957 A 2.6458349 2.6458349 0 0 0 261.91992 353.99219 L 262.04883 345.75781 L 262.56445 312.82227 A 2.6458349 2.6458349 0 0 0 259.96094 310.13477 z "/><path style="color:#000000;font-style:normal;font-variant:normal;font-weight:normal;font-stretch:normal;font-size:medium;line-height:normal;font-family:sans-serif;font-variant-ligatures:normal;font-variant-position:normal;font-variant-caps:normal;font-variant-numeric:normal;font-variant-alternates:normal;font-variant-east-asian:normal;font-feature-settings:normal;font-variation-settings:normal;text-indent:0;text-align:start;text-decoration:none;text-decoration-line:none;text-decoration-style:solid;text-decoration-color:#000000;letter-spacing:normal;word-spacing:normal;text-transform:none;writing-mode:lr-tb;direction:ltr;text-orientation:mixed;dominant-baseline:auto;baseline-shift:baseline;text-anchor:start;white-space:normal;shape-padding:0;shape-margin:0;inline-size:0;clip-rule:nonzero;display:inline;overflow:visible;visibility:visible;isolation:auto;mix-blend-mode:normal;color-interpolation:sRGB;color-interpolation-filters:linearRGB;solid-color:#000000;solid-opacity:1;vector-effect:none;fill:#000000;fill-opacity:1;fill-rule:nonzero;stroke:none;stroke-linecap:round;stroke-linejoin:round;stroke-miterlimit:4;stroke-dasharray:none;stroke-dashoffset:0;stroke-opacity:1;color-rendering:auto;image-rendering:auto;shape-rendering:auto;text-rendering:auto;enable-background:accumulate;stop-color:#000000;stop-opacity:1;opacity:1" d="M 259.4043 465.23242 C 253.81268 464.44453 248.14015 467.42494 242.78516 473.49023 C 237.43016 479.55553 232.0635 488.87415 226.54102 502.00586 A 2.6458349 2.6458349 0 0 0 227.95312 505.4707 A 2.6458349 2.6458349 0 0 0 231.41797 504.05664 C 236.80948 491.23635 242.02883 482.3418 246.75195 476.99219 C 251.47508 471.64258 255.37314 470.00867 258.66602 470.47266 C 261.95889 470.93664 265.53059 473.76417 268.98242 479.43555 C 272.43426 485.10692 275.62392 493.39588 278.29492 503.72461 A 2.6458349 2.6458349 0 0 0 281.51758 505.62305 A 2.6458349 2.6458349 0 0 0 283.41797 502.39844 C 280.66497 491.75266 277.3852 483.06252 273.50391 476.68555 C 269.62262 470.30858 264.99592 466.02031 259.4043 465.23242 z "/></g><text x="0" y="544.16668" fill="#000000" font-size="5px" font-weight="bold" font-family="'Helvetica Neue', Helvetica, Arial-Unicode, Arial, Sans-serif">Created by Jevgenijs Kudinovs</text><text x="0" y="549.16668" fill="#000000" font-size="5px" font-weight="bold" font-family="'Helvetica Neue', Helvetica, Arial-Unicode, Arial, Sans-serif">from the Noun Project</text></svg>