<svg width="33" height="33" viewBox="0 0 33 33" fill="none" xmlns="http://www.w3.org/2000/svg">
<circle cx="16.5" cy="16.5" r="16.5" fill="#D1D1D1"/>
<path d="M21.8556 22.0625L23.875 20.0431L23.0819 19.25L21.0625 21.2694L19.0431 19.25L18.25 20.0431L20.2694 22.0625L18.25 24.0819L19.0431 24.875L21.0625 22.8556L23.0819 24.875L23.875 24.0819L21.8556 22.0625Z" fill="black"/>
<path d="M21.0625 10.8125H19.375V10.25C19.3741 9.95191 19.2553 9.66627 19.0445 9.45549C18.8337 9.2447 18.5481 9.12589 18.25 9.125H13.75C13.4519 9.12589 13.1663 9.2447 12.9555 9.45549C12.7447 9.66627 12.6259 9.95191 12.625 10.25V10.8125H10.9375C10.6394 10.8134 10.3538 10.9322 10.143 11.143C9.9322 11.3538 9.81339 11.6394 9.8125 11.9375V23.75C9.81339 24.0481 9.9322 24.3337 10.143 24.5445C10.3538 24.7553 10.6394 24.8741 10.9375 24.875H16V23.75H10.9375V11.9375H12.625V13.625H19.375V11.9375H21.0625V17.5625H22.1875V11.9375C22.1866 11.6394 22.0678 11.3538 21.857 11.143C21.6462 10.9322 21.3606 10.8134 21.0625 10.8125ZM18.25 12.5H13.75V10.25H18.25V12.5Z" fill="black"/>
</svg>
