<svg width="33" height="33" viewBox="0 0 33 33" fill="none" xmlns="http://www.w3.org/2000/svg">
<circle cx="16.5" cy="16.5" r="16.5" fill="#217AC0"/>
<path d="M20.24 14.1767C20.3395 14.2764 20.3954 14.4114 20.3954 14.5522C20.3954 14.6929 20.3395 14.828 20.24 14.9276L18.8234 16.3442C18.7238 16.4437 18.5887 16.4996 18.448 16.4996C18.3072 16.4996 18.1721 16.4437 18.0725 16.3442L17.3642 15.6359C17.312 15.5873 17.2701 15.5286 17.2411 15.4635C17.2121 15.3983 17.1965 15.3279 17.1952 15.2566C17.1939 15.1853 17.2071 15.1144 17.2338 15.0483C17.2605 14.9821 17.3003 14.922 17.3507 14.8716C17.4012 14.8211 17.4613 14.7814 17.5274 14.7547C17.5936 14.7279 17.6644 14.7148 17.7357 14.7161C17.8071 14.7173 17.8774 14.733 17.9426 14.762C18.0078 14.791 18.0664 14.8329 18.115 14.8851L18.448 15.218L19.4892 14.1767C19.5888 14.0773 19.7238 14.0214 19.8646 14.0214C20.0054 14.0214 20.1404 14.0773 20.24 14.1767ZM20.24 18.8234C20.2922 18.7748 20.3341 18.7161 20.3631 18.651C20.3922 18.5858 20.4078 18.5154 20.409 18.4441C20.4103 18.3728 20.3972 18.3019 20.3705 18.2358C20.3437 18.1696 20.304 18.1095 20.2535 18.0591C20.2031 18.0086 20.143 17.9689 20.0768 17.9422C20.0107 17.9154 19.9398 17.9023 19.8685 17.9036C19.7972 17.9048 19.7268 17.9205 19.6617 17.9495C19.5965 17.9785 19.5378 18.0204 19.4892 18.0726L18.448 19.1138L18.115 18.7809C18.0664 18.7287 18.0078 18.6869 17.9426 18.6578C17.8774 18.6288 17.8071 18.6132 17.7357 18.6119C17.6644 18.6107 17.5936 18.6238 17.5274 18.6505C17.4613 18.6772 17.4012 18.717 17.3507 18.7674C17.3003 18.8179 17.2605 18.878 17.2338 18.9441C17.2071 19.0103 17.1939 19.0811 17.1952 19.1525C17.1965 19.2238 17.2121 19.2941 17.2411 19.3593C17.2701 19.4245 17.312 19.4831 17.3642 19.5317L18.0725 20.2401C18.1721 20.3396 18.3072 20.3954 18.448 20.3954C18.5887 20.3954 18.7238 20.3396 18.8234 20.2401L20.24 18.8234ZM12.9584 15.2605C12.9584 15.1196 13.0143 14.9845 13.114 14.8848C13.2136 14.7852 13.3487 14.7292 13.4896 14.7292H15.9688C16.1097 14.7292 16.2448 14.7852 16.3444 14.8848C16.4441 14.9845 16.5 15.1196 16.5 15.2605C16.5 15.4014 16.4441 15.5365 16.3444 15.6361C16.2448 15.7358 16.1097 15.7917 15.9688 15.7917H13.4896C13.3487 15.7917 13.2136 15.7358 13.114 15.6361C13.0143 15.5365 12.9584 15.4014 12.9584 15.2605ZM13.4896 18.6251C13.3487 18.6251 13.2136 18.6811 13.114 18.7807C13.0143 18.8803 12.9584 19.0154 12.9584 19.1563C12.9584 19.2972 13.0143 19.4324 13.114 19.532C13.2136 19.6316 13.3487 19.6876 13.4896 19.6876H15.9688C16.1097 19.6876 16.2448 19.6316 16.3444 19.532C16.4441 19.4324 16.5 19.2972 16.5 19.1563C16.5 19.0154 16.4441 18.8803 16.3444 18.7807C16.2448 18.6811 16.1097 18.6251 15.9688 18.6251H13.4896ZM19.3235 10.8334C19.2799 10.4438 19.0943 10.084 18.8021 9.8226C18.5099 9.56125 18.1316 9.41676 17.7396 9.41675H15.2605C14.8684 9.41676 14.4902 9.56125 14.198 9.8226C13.9058 10.084 13.7202 10.4438 13.6766 10.8334H12.4271C12.0044 10.8334 11.5991 11.0013 11.3002 11.3002C11.0013 11.5991 10.8334 12.0045 10.8334 12.4272V21.9897C10.8334 22.4124 11.0013 22.8177 11.3002 23.1166C11.5991 23.4155 12.0044 23.5834 12.4271 23.5834H20.573C20.7822 23.5834 20.9895 23.5422 21.1829 23.4621C21.3762 23.382 21.5519 23.2646 21.6999 23.1166C21.8479 22.9686 21.9653 22.7929 22.0454 22.5996C22.1255 22.4062 22.1667 22.199 22.1667 21.9897V12.4272C22.1667 12.2179 22.1255 12.0106 22.0454 11.8173C21.9653 11.6239 21.8479 11.4482 21.6999 11.3002C21.5519 11.1522 21.3762 11.0348 21.1829 10.9547C20.9895 10.8746 20.7822 10.8334 20.573 10.8334H19.3235ZM15.2605 12.6042H17.7396C18.2921 12.6042 18.7787 12.323 19.0649 11.8959H20.573C20.7139 11.8959 20.849 11.9519 20.9486 12.0515C21.0482 12.1511 21.1042 12.2863 21.1042 12.4272V21.9897C21.1042 22.1306 21.0482 22.2657 20.9486 22.3653C20.849 22.4649 20.7139 22.5209 20.573 22.5209H12.4271C12.2862 22.5209 12.1511 22.4649 12.0515 22.3653C11.9518 22.2657 11.8959 22.1306 11.8959 21.9897V12.4272C11.8959 12.2863 11.9518 12.1511 12.0515 12.0515C12.1511 11.9519 12.2862 11.8959 12.4271 11.8959H13.9352C14.2213 12.323 14.708 12.6042 15.2605 12.6042ZM15.2605 10.4792H17.7396C17.8805 10.4792 18.0156 10.5352 18.1153 10.6348C18.2149 10.7345 18.2709 10.8696 18.2709 11.0105C18.2709 11.1514 18.2149 11.2865 18.1153 11.3861C18.0156 11.4858 17.8805 11.5417 17.7396 11.5417H15.2605C15.1196 11.5417 14.9844 11.4858 14.8848 11.3861C14.7852 11.2865 14.7292 11.1514 14.7292 11.0105C14.7292 10.8696 14.7852 10.7345 14.8848 10.6348C14.9844 10.5352 15.1196 10.4792 15.2605 10.4792Z" fill="white"/>
</svg>
