<svg width="14" height="14" viewBox="0 0 14 14" fill="none" xmlns="http://www.w3.org/2000/svg">
<path d="M11.3181 2.32172H9.57681V1.4511C9.57681 1.37413 9.54624 1.30031 9.49181 1.24589C9.43739 1.19146 9.36357 1.16089 9.2866 1.16089C9.20963 1.16089 9.13582 1.19146 9.08139 1.24589C9.02697 1.30031 8.99639 1.37413 8.99639 1.4511V2.32172H4.93348V1.4511C4.93348 1.37413 4.9029 1.30031 4.84848 1.24589C4.79405 1.19146 4.72024 1.16089 4.64327 1.16089C4.5663 1.16089 4.49248 1.19146 4.43806 1.24589C4.38363 1.30031 4.35306 1.37413 4.35306 1.4511V2.32172H2.61181C2.22711 2.32218 1.8583 2.47521 1.58628 2.74723C1.31425 3.01925 1.16123 3.38807 1.16077 3.77276V11.3182C1.16123 11.7029 1.31425 12.0717 1.58628 12.3437C1.8583 12.6157 2.22711 12.7688 2.61181 12.7692H11.3181C11.7028 12.7689 12.0717 12.6159 12.3438 12.3439C12.6158 12.0718 12.7688 11.7029 12.7691 11.3182V3.77276C12.7688 3.38802 12.6158 3.01912 12.3438 2.74706C12.0717 2.47501 11.7028 2.32203 11.3181 2.32172ZM12.1887 11.3182C12.1887 11.7988 11.7986 12.1888 11.3181 12.1888H2.61181C2.13006 12.1888 1.74118 11.7988 1.74118 11.3182V6.38464H12.1887V11.3182ZM12.1887 5.80422H1.74118V3.77276C1.74118 3.29218 2.13006 2.90214 2.61181 2.90214H4.35306V3.77276C4.35306 3.84973 4.38363 3.92355 4.43806 3.97797C4.49248 4.0324 4.5663 4.06297 4.64327 4.06297C4.72024 4.06297 4.79405 4.0324 4.84848 3.97797C4.9029 3.92355 4.93348 3.84973 4.93348 3.77276V2.90214H8.99639V3.77276C8.99639 3.84973 9.02697 3.92355 9.08139 3.97797C9.13582 4.0324 9.20963 4.06297 9.2866 4.06297C9.36357 4.06297 9.43739 4.0324 9.49181 3.97797C9.54624 3.92355 9.57681 3.84973 9.57681 3.77276V2.90214H11.3181C11.7986 2.90214 12.1887 3.29218 12.1887 3.77276V5.80422Z" fill="#646464"/>
</svg>
